<svg width="1267" height="481" viewBox="0 0 1267 481" fill="none" xmlns="http://www.w3.org/2000/svg">
<g clip-path="url(#clip0_325:39)">
<path d="M319 23H1014V361H319V23Z" fill="#DFE9DD"/>
<path fill-rule="evenodd" clip-rule="evenodd" d="M313 18H1020V367H313V18ZM324.565 29.5563V355.444H1008.44V29.5563H324.565Z" fill="#075BFF"/>
<path d="M319 23H1019V130H319V23Z" fill="#075BFF"/>
<path d="M348.264 68.4059C348.264 71.5573 347.309 73.9047 345.399 75.4482C343.488 76.9757 340.823 77.7394 337.403 77.7394H331.985V90.4735H327V59H337.355C340.807 59 343.488 59.7959 345.399 61.3876C347.309 62.9633 348.264 65.3027 348.264 68.4059ZM343.279 68.3335C343.279 66.7257 342.75 65.5198 341.69 64.7159C340.646 63.912 339.218 63.51 337.403 63.51H331.985V73.2294H337.403C339.218 73.2294 340.646 72.8275 341.69 72.0235C342.75 71.2196 343.279 69.9896 343.279 68.3335Z" fill="#DFE9DD"/>
<path d="M372.661 73.3259C372.067 73.0365 371.457 72.8194 370.831 72.6747C370.221 72.5139 369.515 72.4335 368.712 72.4335C367.604 72.4335 366.561 72.6024 365.581 72.94C364.618 73.2616 363.783 73.752 363.077 74.4112C362.37 75.0704 361.817 75.8984 361.415 76.8953C361.03 77.8761 360.837 79.0418 360.837 80.3924V85.9876H365.87V90.4735H350.771V85.9876H355.852V72.5059H350.771V67.9959H360.837V73.6394C361.656 71.3884 362.86 69.7967 364.449 68.8641C366.055 67.9316 367.957 67.4653 370.157 67.4653C370.847 67.4653 371.57 67.5376 372.324 67.6824C373.079 67.8271 373.817 68.0843 374.54 68.4541L372.661 73.3259Z" fill="#DFE9DD"/>
<path d="M398.744 79.2588C398.744 81.0114 398.463 82.6031 397.901 84.0341C397.356 85.4651 396.561 86.7031 395.517 87.7482C394.49 88.7773 393.254 89.5812 391.809 90.16C390.364 90.7388 388.75 91.0282 386.968 91.0282C385.218 91.0282 383.621 90.7388 382.176 90.16C380.731 89.5812 379.487 88.7773 378.443 87.7482C377.416 86.7031 376.621 85.4651 376.059 84.0341C375.513 82.6031 375.24 81.0114 375.24 79.2588C375.24 77.5545 375.513 75.9788 376.059 74.5318C376.621 73.0686 377.416 71.8145 378.443 70.7694C379.487 69.7082 380.731 68.8963 382.176 68.3335C383.621 67.7547 385.218 67.4653 386.968 67.4653C388.75 67.4653 390.364 67.7547 391.809 68.3335C393.254 68.8963 394.49 69.7082 395.517 70.7694C396.561 71.8145 397.356 73.0686 397.901 74.5318C398.463 75.9788 398.744 77.5545 398.744 79.2588ZM393.783 79.2588C393.783 78.2459 393.623 77.2892 393.302 76.3888C392.997 75.4724 392.547 74.6925 391.953 74.0494C391.359 73.4063 390.637 72.8998 389.786 72.53C388.951 72.1441 388.012 71.9512 386.968 71.9512C385.909 71.9512 384.961 72.1441 384.126 72.53C383.292 72.8998 382.585 73.4063 382.007 74.0494C381.429 74.6925 380.98 75.4724 380.659 76.3888C380.354 77.2892 380.201 78.2459 380.201 79.2588C380.201 80.32 380.354 81.2847 380.659 82.1529C380.98 83.0212 381.429 83.7849 382.007 84.4441C382.585 85.1033 383.292 85.6178 384.126 85.9876C384.961 86.3414 385.909 86.5182 386.968 86.5182C388.012 86.5182 388.951 86.3414 389.786 85.9876C390.637 85.6178 391.359 85.1033 391.953 84.4441C392.547 83.7849 392.997 83.0212 393.302 82.1529C393.623 81.2847 393.783 80.32 393.783 79.2588Z" fill="#DFE9DD"/>
<path d="M408.957 100C405.537 100 402.776 98.7218 400.673 96.1653L403.635 92.8371C404.389 93.7375 405.192 94.4047 406.043 94.8388C406.894 95.289 407.865 95.5141 408.957 95.5141C410.643 95.5141 411.887 95.0478 412.69 94.1153C413.492 93.1988 413.894 91.9849 413.894 90.4735V72.5059H408.812V67.9959H418.879V90.4735C418.879 91.9206 418.638 93.231 418.156 94.4047C417.675 95.5784 417 96.5833 416.133 97.4194C415.266 98.2555 414.223 98.8906 413.003 99.3247C411.783 99.7749 410.434 100 408.957 100ZM419.409 65.0776H413.34V59H419.409V65.0776Z" fill="#DFE9DD"/>
<path d="M430.199 81.14C430.44 82.6835 431.171 83.9698 432.391 84.9988C433.627 86.0118 435.281 86.5182 437.352 86.5182C438.973 86.5182 440.378 86.269 441.566 85.7706C442.77 85.2561 443.806 84.5808 444.673 83.7447L447.225 87.2659C445.78 88.7129 444.247 89.7018 442.626 90.2324C441.02 90.7629 439.262 91.0282 437.352 91.0282C435.618 91.0282 434.004 90.7388 432.511 90.16C431.018 89.5812 429.726 88.7773 428.634 87.7482C427.542 86.7031 426.683 85.4651 426.057 84.0341C425.447 82.6031 425.142 81.0114 425.142 79.2588C425.142 77.5545 425.423 75.9869 425.985 74.5559C426.563 73.1088 427.366 71.8627 428.393 70.8176C429.437 69.7565 430.681 68.9365 432.126 68.3576C433.571 67.7627 435.168 67.4653 436.918 67.4653C438.732 67.4653 440.378 67.7788 441.855 68.4059C443.332 69.0169 444.592 69.9092 445.636 71.0829C446.695 72.2567 447.522 73.6957 448.116 75.4C448.71 77.0882 449.007 79.0016 449.007 81.14H430.199ZM443.372 76.7506C443.115 75.3035 442.369 74.1459 441.132 73.2776C439.896 72.3933 438.491 71.9512 436.918 71.9512C435.345 71.9512 433.932 72.3933 432.68 73.2776C431.427 74.1459 430.673 75.3035 430.416 76.7506H443.372Z" fill="#DFE9DD"/>
<path d="M472.176 87.2659C470.731 88.7129 469.206 89.7018 467.601 90.2324C466.011 90.7629 464.285 91.0282 462.423 91.0282C460.545 91.0282 458.835 90.7469 457.293 90.1841C455.768 89.6214 454.468 88.8335 453.392 87.8206C452.333 86.7916 451.514 85.5535 450.936 84.1065C450.374 82.6594 450.093 81.0435 450.093 79.2588C450.093 77.5545 450.374 75.9788 450.936 74.5318C451.514 73.0686 452.284 71.8225 453.248 70.7935C454.227 69.7484 455.375 68.9365 456.691 68.3576C458.008 67.7627 459.405 67.4653 460.882 67.4653C462.423 67.4653 463.764 67.7869 464.903 68.43C466.043 69.0731 466.87 70.0137 467.384 71.2518V67.9959H471.839V78.4629H467.384C467.384 76.4853 466.838 74.9096 465.746 73.7359C464.671 72.5461 463.266 71.9512 461.532 71.9512C460.842 71.9512 460.111 72.0959 459.34 72.3853C458.586 72.6586 457.887 73.0927 457.245 73.6876C456.619 74.2825 456.097 75.0382 455.68 75.9547C455.263 76.8712 455.054 77.9725 455.054 79.2588C455.054 80.5129 455.255 81.5982 455.656 82.5147C456.057 83.4151 456.579 84.1627 457.221 84.7576C457.879 85.3365 458.65 85.7786 459.533 86.0841C460.432 86.3735 461.355 86.5182 462.303 86.5182C463.924 86.5182 465.329 86.269 466.517 85.7706C467.721 85.2561 468.757 84.5808 469.623 83.7447L472.176 87.2659Z" fill="#DFE9DD"/>
<path d="M498.211 83.3106C497.954 85.6741 497.023 87.5553 495.417 88.9541C493.828 90.3369 491.837 91.0282 489.445 91.0282C488.128 91.0282 486.924 90.8112 485.833 90.3771C484.741 89.9429 483.81 89.34 483.039 88.5682C482.268 87.7965 481.666 86.872 481.233 85.7947C480.816 84.7014 480.607 83.5116 480.607 82.2253V72.5059H475.526V67.9959H480.607V59H485.592V67.9959H495.008V72.5059H485.592V82.2253C485.592 83.6724 485.945 84.7496 486.651 85.4571C487.358 86.1645 488.289 86.5182 489.445 86.5182C490.858 86.5182 491.909 86.1082 492.6 85.2882C493.29 84.4682 493.699 83.4794 493.828 82.3218L498.211 83.3106Z" fill="#DFE9DD"/>
<path d="M530.003 81.14C530.244 82.6835 530.974 83.9698 532.194 84.9988C533.431 86.0118 535.084 86.5182 537.155 86.5182C538.777 86.5182 540.182 86.269 541.37 85.7706C542.574 85.2561 543.609 84.5808 544.476 83.7447L547.029 87.2659C545.584 88.7129 544.051 89.7018 542.429 90.2324C540.824 90.7629 539.066 91.0282 537.155 91.0282C535.421 91.0282 533.808 90.7388 532.315 90.16C530.822 89.5812 529.529 88.7773 528.438 87.7482C527.346 86.7031 526.487 85.4651 525.861 84.0341C525.251 82.6031 524.946 81.0114 524.946 79.2588C524.946 77.5545 525.227 75.9869 525.789 74.5559C526.367 73.1088 527.169 71.8627 528.197 70.8176C529.24 69.7565 530.485 68.9365 531.929 68.3576C533.374 67.7627 534.972 67.4653 536.722 67.4653C538.536 67.4653 540.182 67.7788 541.659 68.4059C543.136 69.0169 544.396 69.9092 545.44 71.0829C546.499 72.2567 547.326 73.6957 547.92 75.4C548.514 77.0882 548.811 79.0016 548.811 81.14H530.003ZM543.176 76.7506C542.919 75.3035 542.172 74.1459 540.936 73.2776C539.7 72.3933 538.295 71.9512 536.722 71.9512C535.148 71.9512 533.736 72.3933 532.483 73.2776C531.231 74.1459 530.477 75.3035 530.22 76.7506H543.176Z" fill="#DFE9DD"/>
<path d="M572.269 73.3259C571.675 73.0365 571.065 72.8194 570.439 72.6747C569.829 72.5139 569.122 72.4335 568.319 72.4335C567.212 72.4335 566.168 72.6024 565.189 72.94C564.225 73.2616 563.391 73.752 562.684 74.4112C561.978 75.0704 561.424 75.8984 561.023 76.8953C560.637 77.8761 560.445 79.0418 560.445 80.3924V85.9876H565.478V90.4735H550.378V85.9876H555.46V72.5059H550.378V67.9959H560.445V73.6394C561.263 71.3884 562.467 69.7967 564.057 68.8641C565.662 67.9316 567.565 67.4653 569.764 67.4653C570.455 67.4653 571.177 67.5376 571.932 67.6824C572.686 67.8271 573.425 68.0843 574.147 68.4541L572.269 73.3259Z" fill="#DFE9DD"/>
<path d="M597.22 73.3259C596.626 73.0365 596.016 72.8194 595.39 72.6747C594.779 72.5139 594.073 72.4335 593.27 72.4335C592.163 72.4335 591.119 72.6024 590.14 72.94C589.176 73.2616 588.342 73.752 587.635 74.4112C586.929 75.0704 586.375 75.8984 585.973 76.8953C585.588 77.8761 585.395 79.0418 585.395 80.3924V85.9876H590.429V90.4735H575.329V85.9876H580.41V72.5059H575.329V67.9959H585.395V73.6394C586.214 71.3884 587.418 69.7967 589.008 68.8641C590.613 67.9316 592.516 67.4653 594.715 67.4653C595.406 67.4653 596.128 67.5376 596.883 67.6824C597.637 67.8271 598.376 68.0843 599.098 68.4541L597.22 73.3259Z" fill="#DFE9DD"/>
<path d="M623.303 79.2588C623.303 81.0114 623.022 82.6031 622.46 84.0341C621.914 85.4651 621.119 86.7031 620.076 87.7482C619.048 88.7773 617.812 89.5812 616.367 90.16C614.922 90.7388 613.308 91.0282 611.526 91.0282C609.776 91.0282 608.179 90.7388 606.734 90.16C605.289 89.5812 604.045 88.7773 603.001 87.7482C601.974 86.7031 601.179 85.4651 600.617 84.0341C600.071 82.6031 599.798 81.0114 599.798 79.2588C599.798 77.5545 600.071 75.9788 600.617 74.5318C601.179 73.0686 601.974 71.8145 603.001 70.7694C604.045 69.7082 605.289 68.8963 606.734 68.3335C608.179 67.7547 609.776 67.4653 611.526 67.4653C613.308 67.4653 614.922 67.7547 616.367 68.3335C617.812 68.8963 619.048 69.7082 620.076 70.7694C621.119 71.8145 621.914 73.0686 622.46 74.5318C623.022 75.9788 623.303 77.5545 623.303 79.2588ZM618.342 79.2588C618.342 78.2459 618.181 77.2892 617.86 76.3888C617.555 75.4724 617.105 74.6925 616.511 74.0494C615.917 73.4063 615.195 72.8998 614.344 72.53C613.509 72.1441 612.57 71.9512 611.526 71.9512C610.467 71.9512 609.52 72.1441 608.685 72.53C607.85 72.8998 607.143 73.4063 606.566 74.0494C605.988 74.6925 605.538 75.4724 605.217 76.3888C604.912 77.2892 604.759 78.2459 604.759 79.2588C604.759 80.32 604.912 81.2847 605.217 82.1529C605.538 83.0212 605.988 83.7849 606.566 84.4441C607.143 85.1033 607.85 85.6178 608.685 85.9876C609.52 86.3414 610.467 86.5182 611.526 86.5182C612.57 86.5182 613.509 86.3414 614.344 85.9876C615.195 85.6178 615.917 85.1033 616.511 84.4441C617.105 83.7849 617.555 83.0212 617.86 82.1529C618.181 81.2847 618.342 80.32 618.342 79.2588Z" fill="#DFE9DD"/>
<path d="M647.122 73.3259C646.528 73.0365 645.917 72.8194 645.291 72.6747C644.681 72.5139 643.975 72.4335 643.172 72.4335C642.064 72.4335 641.021 72.6024 640.041 72.94C639.078 73.2616 638.243 73.752 637.537 74.4112C636.831 75.0704 636.277 75.8984 635.875 76.8953C635.49 77.8761 635.297 79.0418 635.297 80.3924V85.9876H640.33V90.4735H625.231V85.9876H630.312V72.5059H625.231V67.9959H635.297V73.6394C636.116 71.3884 637.32 69.7967 638.91 68.8641C640.515 67.9316 642.418 67.4653 644.617 67.4653C645.307 67.4653 646.03 67.5376 646.784 67.6824C647.539 67.8271 648.278 68.0843 649 68.4541L647.122 73.3259Z" fill="#DFE9DD"/>
<path fill-rule="evenodd" clip-rule="evenodd" d="M1001.23 98.35L962.762 59.6348L968.228 54.2044L1006.7 92.9196L1001.23 98.35Z" fill="#DFE9DD"/>
<path fill-rule="evenodd" clip-rule="evenodd" d="M962 91.3696L1002.88 56L1008 61.6304L967.118 97L962 91.3696Z" fill="#DFE9DD"/>
<path fill-rule="evenodd" clip-rule="evenodd" d="M779.688 246.302H552.312V330.698H779.688V246.302ZM550 244V333H782V244H550Z" fill="black"/>
<path fill-rule="evenodd" clip-rule="evenodd" d="M566 257H568.313V259.25H568.296V259.305H566V257ZM566 317.695V320H568.313V317.75H568.295V317.695H566ZM765.687 320H768V317.695H765.704V317.75H765.687V320ZM768 259.305V257H765.687V259.25H765.705V259.305H768ZM572.886 257V259.305H577.477V257H572.886ZM582.068 257V259.305H586.659V257H582.068ZM591.25 257V259.305H595.841V257H591.25ZM600.432 257V259.305H605.023V257H600.432ZM609.614 257V259.305H614.205V257H609.614ZM618.795 257V259.305H623.386V257H618.795ZM627.977 257V259.305H632.568V257H627.977ZM637.159 257V259.305H641.75V257H637.159ZM646.341 257V259.305H650.932V257H646.341ZM655.523 257V259.305H660.114V257H655.523ZM664.705 257V259.305H669.295V257H664.705ZM673.886 257V259.305H678.477V257H673.886ZM683.068 257V259.305H687.659V257H683.068ZM692.25 257V259.305H696.841V257H692.25ZM701.432 257V259.305H706.023V257H701.432ZM710.614 257V259.305H715.205V257H710.614ZM719.795 257V259.305H724.386V257H719.795ZM728.977 257V259.305H733.568V257H728.977ZM738.159 257V259.305H742.75V257H738.159ZM747.341 257V259.305H751.932V257H747.341ZM756.523 257V259.305H761.114V257H756.523ZM768 263.75H765.687V268.25H768V263.75ZM768 272.75H765.687V277.25H768V272.75ZM768 281.75H765.687V286.25H768V281.75ZM768 290.75H765.687V295.25H768V290.75ZM768 299.75H765.687V304.25H768V299.75ZM768 308.75H765.687V313.25H768V308.75ZM761.114 320V317.695H756.523V320H761.114ZM751.932 320V317.695H747.341V320H751.932ZM742.75 320V317.695H738.159V320H742.75ZM733.568 320V317.695H728.977V320H733.568ZM724.386 320V317.695H719.795V320H724.386ZM715.205 320V317.695H710.614V320H715.205ZM706.023 320V317.695H701.432V320H706.023ZM696.841 320V317.695H692.25V320H696.841ZM687.659 320V317.695H683.068V320H687.659ZM678.477 320V317.695H673.886V320H678.477ZM669.295 320V317.695H664.705V320H669.295ZM660.114 320V317.695H655.523V320H660.114ZM650.932 320V317.695H646.341V320H650.932ZM641.75 320V317.695H637.159V320H641.75ZM632.568 320V317.695H627.977V320H632.568ZM623.386 320V317.695H618.795V320H623.386ZM614.205 320V317.695H609.614V320H614.205ZM605.023 320V317.695H600.432V320H605.023ZM595.841 320V317.695H591.25V320H595.841ZM586.659 320V317.695H582.068V320H586.659ZM577.477 320V317.695H572.886V320H577.477ZM566 313.25H568.313V308.75H566V313.25ZM566 304.25H568.313V299.75H566V304.25ZM566 295.25H568.313V290.75H566V295.25ZM566 286.25H568.313V281.75H566V286.25ZM566 277.25H568.313V272.75H566V277.25ZM566 268.25H568.313V263.75H566V268.25Z" fill="black"/>
<path d="M640 287.976C640 285.906 640.224 283.907 640.673 281.979C641.122 280.051 641.819 278.353 642.764 276.883C643.709 275.413 644.943 274.236 646.465 273.351C648.004 272.45 649.854 272 652.018 272C654.181 272 656.023 272.45 657.546 273.351C659.084 274.236 660.334 275.413 661.295 276.883C662.256 278.353 662.954 280.051 663.386 281.979C663.819 283.907 664.035 285.906 664.035 287.976C664.035 290.046 663.819 292.045 663.386 293.973C662.954 295.885 662.265 297.592 661.319 299.093C660.374 300.579 659.132 301.772 657.594 302.673C656.071 303.558 654.213 304 652.018 304C649.822 304 647.956 303.558 646.417 302.673C644.895 301.772 643.653 300.579 642.692 299.093C641.747 297.592 641.066 295.885 640.649 293.973C640.216 292.045 640 290.046 640 287.976ZM644.975 287.976C644.975 289.367 645.079 290.758 645.288 292.148C645.512 293.539 645.881 294.787 646.393 295.893C646.922 296.984 647.635 297.869 648.532 298.548C649.446 299.228 650.607 299.567 652.018 299.567C653.428 299.567 654.581 299.228 655.479 298.548C656.392 297.869 657.105 296.984 657.618 295.893C658.146 294.787 658.515 293.539 658.723 292.148C658.948 290.758 659.06 289.367 659.06 287.976C659.06 286.586 658.948 285.203 658.723 283.828C658.515 282.453 658.146 281.213 657.618 280.107C657.105 279 656.384 278.108 655.455 277.428C654.541 276.749 653.396 276.409 652.018 276.409C649.726 276.409 647.98 277.428 646.778 279.467C645.576 281.505 644.975 284.342 644.975 287.976Z" fill="black"/>
<path d="M687.952 303.455H682.135L673.915 289.043L671.848 291.461V303.455H666.873V272.521H671.848V284.658L681.607 272.521H688L677.064 285.345L687.952 303.455Z" fill="black"/>
<rect x="190" y="17" width="53" height="104" fill="#075BFF"/>
<rect x="164" y="107" width="27" height="104" fill="black"/>
<rect x="215" y="224" width="55" height="58" fill="black"/>
<rect x="88" y="310" width="103" height="58" fill="black"/>
<rect x="139" y="368" width="103" height="60" fill="#075BFF"/>
<rect y="427" width="191" height="84" fill="black"/>
<rect x="318" y="423" width="175" height="58" fill="#FF5C00"/>
<rect x="443" y="399" width="175" height="28" fill="#075BFF"/>
<rect x="965" y="455" width="255" height="28" fill="black"/>
<rect x="550" y="423" width="175" height="88" fill="black"/>
<rect x="782" y="427" width="78" height="58" fill="black"/>
<rect x="860" y="399" width="57" height="29" fill="#075BFF"/>
<rect x="917" y="367" width="57" height="32" fill="#FF5C00"/>
<rect x="267" y="453" width="75" height="32" fill="black"/>
<rect x="957" y="428" width="57" height="83" fill="black"/>
<rect x="1168" y="367" width="57" height="53" fill="#FF5C00"/>
<rect x="1141" y="420" width="31" height="76" fill="#075BFF"/>
<rect x="1220" y="135" width="47" height="76" fill="black"/>
<rect x="1065" width="52" height="76" fill="#FF5C00"/>
<rect x="88" y="49" width="51" height="116" fill="#FF5C00"/>
<rect x="1065" y="165" width="52" height="87" fill="black"/>
<rect x="1116" y="77" width="52" height="88" fill="#075BFF"/>
<rect x="1091" y="234" width="26" height="122" fill="black"/>
<rect x="1117" y="218" width="26" height="122" fill="#075BFF"/>
</g>
<defs>
<clipPath id="clip0_325:39">
<rect width="1267" height="481" fill="white"/>
</clipPath>
</defs>
</svg>
