<svg width="1206" height="496" viewBox="0 0 1206 496" fill="none" xmlns="http://www.w3.org/2000/svg">
<path fill-rule="evenodd" clip-rule="evenodd" d="M1111.62 450.974C1111.62 448.551 1113.58 446.587 1116.01 446.587H1157.54V455.361H1120.39V465.304H1162.22V474.078H1116.01C1113.58 474.078 1111.62 472.114 1111.62 469.691V450.974Z" fill="black"/>
<path d="M842.849 429.332V5.84918H1199.65V429.332V489.579H842.849V429.332Z" fill="#DFE9DD"/>
<path fill-rule="evenodd" clip-rule="evenodd" d="M837 5.84921C837 2.61878 839.619 0 842.849 0H1199.65C1202.88 0 1205.5 2.61878 1205.5 5.84921V489.579C1205.5 492.809 1202.88 495.428 1199.65 495.428H842.849C839.619 495.428 837 492.809 837 489.579V5.84921ZM848.698 11.6984V423.483H1193.8V11.6984H848.698ZM1193.8 435.181H848.698V483.729H1193.8V435.181Z" fill="black"/>
<path fill-rule="evenodd" clip-rule="evenodd" d="M1113.96 326.971C1113.96 324.548 1115.92 322.584 1118.35 322.584H1157.54C1159.96 322.584 1161.92 324.548 1161.92 326.971V345.103C1161.92 347.526 1159.96 349.49 1157.54 349.49H1024.17V340.716H1113.96V326.971ZM1122.73 340.716H1153.15V331.358H1122.73V340.716Z" fill="black"/>
<path d="M870.34 363.236H899.587V391.312H870.34V363.236Z" fill="#FF5C00"/>
<path d="M1148.18 446.294H1168.65V474.371H1148.18V446.294Z" fill="black"/>
<path d="M875.02 276.667V49.7182H1166.9V276.667H875.02Z" fill="black"/>
<path fill-rule="evenodd" clip-rule="evenodd" d="M870.633 49.7182C870.633 47.2954 872.597 45.3313 875.02 45.3313H1166.9C1169.32 45.3313 1171.28 47.2954 1171.28 49.7182V276.667C1171.28 279.09 1169.32 281.054 1166.9 281.054H875.02C872.597 281.054 870.633 279.09 870.633 276.667V49.7182ZM879.407 54.1051V272.28H1162.51V54.1051H879.407Z" fill="black"/>
<path d="M888.473 81.8888C888.473 70.9054 897.377 62.0015 908.36 62.0015H1133.55C1144.54 62.0015 1153.44 70.9054 1153.44 81.8888V244.497C1153.44 255.48 1144.54 264.384 1133.55 264.384H908.36C897.377 264.384 888.473 255.48 888.473 244.497V81.8888Z" fill="#075BFF"/>
<path d="M942.336 149.74H933.823V126.256H916.549V149.74H908.036V96.0686H916.549V118.565H933.823V96.0686H942.336V149.74Z" fill="#DFE9DD"/>
<path d="M988.316 149.74H954.016V96.0686H988.316V103.759H962.529V118.565H982.641V126.256H962.529V142.09H988.316V149.74Z" fill="#DFE9DD"/>
<path d="M1034.3 149.74H999.996V96.0686H1008.51V142.09H1034.3V149.74Z" fill="#DFE9DD"/>
<path d="M1080.28 149.74H1045.98V96.0686H1054.49V142.09H1080.28V149.74Z" fill="#DFE9DD"/>
<path d="M1088.58 122.884C1088.58 119.292 1088.97 115.823 1089.74 112.478C1090.5 109.133 1091.7 106.186 1093.31 103.636C1094.93 101.086 1097.04 99.0435 1099.65 97.5081C1102.28 95.9452 1105.45 95.1638 1109.15 95.1638C1112.85 95.1638 1116 95.9452 1118.61 97.5081C1121.24 99.0435 1123.38 101.086 1125.02 103.636C1126.67 106.186 1127.86 109.133 1128.6 112.478C1129.34 115.823 1129.71 119.292 1129.71 122.884C1129.71 126.475 1129.34 129.944 1128.6 133.289C1127.86 136.606 1126.68 139.568 1125.06 142.172C1123.45 144.75 1121.32 146.82 1118.69 148.382C1116.08 149.918 1112.9 150.686 1109.15 150.686C1105.39 150.686 1102.2 149.918 1099.57 148.382C1096.96 146.82 1094.84 144.75 1093.19 142.172C1091.57 139.568 1090.41 136.606 1089.69 133.289C1088.95 129.944 1088.58 126.475 1088.58 122.884ZM1097.1 122.884C1097.1 125.296 1097.28 127.709 1097.63 130.122C1098.02 132.535 1098.65 134.701 1099.52 136.62C1100.43 138.512 1101.65 140.047 1103.18 141.226C1104.75 142.405 1106.74 142.995 1109.15 142.995C1111.56 142.995 1113.53 142.405 1115.07 141.226C1116.63 140.047 1117.85 138.512 1118.73 136.62C1119.64 134.701 1120.27 132.535 1120.62 130.122C1121.01 127.709 1121.2 125.296 1121.2 122.884C1121.2 120.471 1121.01 118.072 1120.62 115.686C1120.27 113.301 1119.64 111.149 1118.73 109.229C1117.85 107.31 1116.62 105.761 1115.03 104.582C1113.47 103.403 1111.51 102.813 1109.15 102.813C1105.23 102.813 1102.24 104.582 1100.18 108.119C1098.13 111.656 1097.1 116.577 1097.1 122.884Z" fill="#DFE9DD"/>
<path d="M946.942 176.788L938.635 230.459H929.874L925.145 207.304L920.497 230.459H911.737L903.43 176.788H912.272L917.207 212.939L921.114 192.128H929.258L933.041 212.939L938.1 176.788H946.942Z" fill="#DFE9DD"/>
<path d="M950.644 203.603C950.644 200.011 951.028 196.542 951.795 193.197C952.563 189.852 953.756 186.905 955.373 184.355C956.991 181.805 959.102 179.763 961.707 178.227C964.339 176.664 967.506 175.883 971.207 175.883C974.909 175.883 978.062 176.664 980.667 178.227C983.299 179.763 985.437 181.805 987.082 184.355C988.728 186.905 989.92 189.852 990.66 193.197C991.401 196.542 991.771 200.011 991.771 203.603C991.771 207.194 991.401 210.663 990.66 214.008C989.92 217.325 988.741 220.287 987.124 222.891C985.506 225.469 983.381 227.539 980.749 229.102C978.144 230.637 974.964 231.405 971.207 231.405C967.451 231.405 964.257 230.637 961.625 229.102C959.02 227.539 956.895 225.469 955.25 222.891C953.632 220.287 952.467 217.325 951.754 214.008C951.014 210.663 950.644 207.194 950.644 203.603ZM959.157 203.603C959.157 206.015 959.335 208.428 959.692 210.841C960.076 213.254 960.706 215.42 961.584 217.339C962.488 219.231 963.708 220.766 965.244 221.945C966.807 223.124 968.795 223.714 971.207 223.714C973.62 223.714 975.594 223.124 977.13 221.945C978.692 220.766 979.913 219.231 980.79 217.339C981.695 215.42 982.325 213.254 982.682 210.841C983.066 208.428 983.258 206.015 983.258 203.603C983.258 201.19 983.066 198.791 982.682 196.405C982.325 194.02 981.695 191.868 980.79 189.948C979.913 188.029 978.679 186.48 977.089 185.301C975.526 184.122 973.565 183.533 971.207 183.533C967.287 183.533 964.298 185.301 962.242 188.838C960.185 192.375 959.157 197.296 959.157 203.603Z" fill="#DFE9DD"/>
<path d="M1037.05 230.459H1026.28L1012.38 208.744H1008.51V230.459H999.996V176.788H1017.68C1023.58 176.788 1028.15 178.145 1031.42 180.859C1034.68 183.546 1036.31 187.536 1036.31 192.827C1036.31 195.185 1035.94 197.269 1035.2 199.079C1034.49 200.861 1033.46 202.396 1032.12 203.685C1030.8 204.974 1029.25 206.002 1027.47 206.769C1025.71 207.51 1023.81 208.017 1021.75 208.291L1037.05 230.459ZM1027.8 192.704C1027.8 189.962 1026.89 187.906 1025.08 186.535C1023.3 185.164 1020.83 184.478 1017.68 184.478H1008.51V201.053H1017.68C1020.83 201.053 1023.3 200.367 1025.08 198.996C1026.89 197.625 1027.8 195.528 1027.8 192.704Z" fill="#DFE9DD"/>
<path d="M1080.28 230.459H1045.98V176.788H1054.49V222.809H1080.28V230.459Z" fill="#DFE9DD"/>
<path d="M1130.04 203.603C1130.04 207.194 1129.66 210.622 1128.89 213.884C1128.15 217.12 1126.94 219.971 1125.27 222.439C1123.62 224.879 1121.49 226.826 1118.85 228.279C1116.25 229.732 1113.1 230.459 1109.39 230.459H1091.96V176.788H1109.39C1113.04 176.788 1116.17 177.528 1118.77 179.009C1121.4 180.462 1123.54 182.408 1125.19 184.849C1126.86 187.289 1128.08 190.127 1128.85 193.362C1129.64 196.597 1130.04 200.011 1130.04 203.603ZM1121.53 203.603C1121.53 197.406 1120.47 192.676 1118.36 189.414C1116.25 186.124 1113.26 184.478 1109.39 184.478H1100.47V222.809H1109.39C1113.26 222.809 1116.25 221.137 1118.36 217.792C1120.47 214.447 1121.53 209.717 1121.53 203.603Z" fill="#DFE9DD"/>
<path fill-rule="evenodd" clip-rule="evenodd" d="M1118.93 449.219C1118.93 447.604 1120.24 446.294 1121.86 446.294H1154.03V452.144H1124.78V468.521H1161.05V474.371H1121.86C1120.24 474.371 1118.93 473.061 1118.93 471.446V449.219Z" fill="black"/>
<path fill-rule="evenodd" clip-rule="evenodd" d="M694.62 450.974C694.62 448.551 696.584 446.587 699.007 446.587H740.537V455.361H703.394V465.304H745.216V474.078H699.007C696.584 474.078 694.62 472.114 694.62 469.691V450.974Z" fill="black"/>
<path d="M425.849 429.332V5.84918H782.651V429.332V489.579H425.849V429.332Z" fill="#DFE9DD"/>
<path fill-rule="evenodd" clip-rule="evenodd" d="M420 5.84921C420 2.61878 422.619 0 425.849 0H782.651C785.881 0 788.5 2.61878 788.5 5.84921V489.579C788.5 492.809 785.881 495.428 782.651 495.428H425.849C422.619 495.428 420 492.809 420 489.579V5.84921ZM431.698 11.6984V423.483H776.802V11.6984H431.698ZM776.802 435.181H431.698V483.729H776.802V435.181Z" fill="black"/>
<path fill-rule="evenodd" clip-rule="evenodd" d="M696.96 326.971C696.96 324.548 698.924 322.584 701.347 322.584H740.537C742.959 322.584 744.923 324.548 744.923 326.971V345.103C744.923 347.526 742.959 349.49 740.537 349.49H607.175V340.716H696.96V326.971ZM705.734 340.716H736.15V331.358H705.734V340.716Z" fill="black"/>
<path d="M453.34 363.236H482.587V391.312H453.34V363.236Z" fill="#FF5C00"/>
<path d="M731.178 446.294H751.65V474.371H731.178V446.294Z" fill="black"/>
<path d="M458.02 276.667V49.7182H749.895V276.667H458.02Z" fill="black"/>
<path fill-rule="evenodd" clip-rule="evenodd" d="M453.633 49.7182C453.633 47.2954 455.597 45.3313 458.02 45.3313H749.895C752.318 45.3313 754.282 47.2954 754.282 49.7182V276.667C754.282 279.09 752.318 281.054 749.895 281.054H458.02C455.597 281.054 453.633 279.09 453.633 276.667V49.7182ZM462.407 54.1051V272.28H745.508V54.1051H462.407Z" fill="black"/>
<path d="M471.473 81.8888C471.473 70.9054 480.377 62.0015 491.36 62.0015H716.555C727.538 62.0015 736.442 70.9054 736.442 81.8888V244.497C736.442 255.48 727.538 264.384 716.555 264.384H491.36C480.377 264.384 471.473 255.48 471.473 244.497V81.8888Z" fill="#FF5C00"/>
<path d="M525.336 149.74H516.823V126.256H499.549V149.74H491.036V96.0686H499.549V118.565H516.823V96.0686H525.336V149.74Z" fill="#DFE9DD"/>
<path d="M571.316 149.74H537.016V96.0686H571.316V103.759H545.529V118.565H565.641V126.256H545.529V142.09H571.316V149.74Z" fill="#DFE9DD"/>
<path d="M617.296 149.74H582.996V96.0686H591.51V142.09H617.296V149.74Z" fill="#DFE9DD"/>
<path d="M663.277 149.74H628.977V96.0686H637.49V142.09H663.277V149.74Z" fill="#DFE9DD"/>
<path d="M671.584 122.884C671.584 119.292 671.968 115.823 672.736 112.478C673.504 109.133 674.696 106.186 676.314 103.636C677.932 101.086 680.043 99.0435 682.648 97.5081C685.28 95.9452 688.447 95.1638 692.148 95.1638C695.85 95.1638 699.003 95.9452 701.607 97.5081C704.239 99.0435 706.378 101.086 708.023 103.636C709.668 106.186 710.861 109.133 711.601 112.478C712.342 115.823 712.712 119.292 712.712 122.884C712.712 126.475 712.342 129.944 711.601 133.289C710.861 136.606 709.682 139.568 708.064 142.172C706.447 144.75 704.322 146.82 701.69 148.382C699.085 149.918 695.904 150.686 692.148 150.686C688.392 150.686 685.198 149.918 682.565 148.382C679.961 146.82 677.836 144.75 676.191 142.172C674.573 139.568 673.408 136.606 672.695 133.289C671.955 129.944 671.584 126.475 671.584 122.884ZM680.098 122.884C680.098 125.296 680.276 127.709 680.632 130.122C681.016 132.535 681.647 134.701 682.524 136.62C683.429 138.512 684.649 140.047 686.185 141.226C687.747 142.405 689.735 142.995 692.148 142.995C694.561 142.995 696.535 142.405 698.07 141.226C699.633 140.047 700.853 138.512 701.731 136.62C702.635 134.701 703.266 132.535 703.623 130.122C704.006 127.709 704.198 125.296 704.198 122.884C704.198 120.471 704.006 118.072 703.623 115.686C703.266 113.301 702.635 111.149 701.731 109.229C700.853 107.31 699.619 105.761 698.029 104.582C696.466 103.403 694.506 102.813 692.148 102.813C688.227 102.813 685.239 104.582 683.182 108.119C681.126 111.656 680.098 116.577 680.098 122.884Z" fill="#DFE9DD"/>
<path d="M529.942 176.788L521.635 230.459H512.874L508.145 207.304L503.497 230.459H494.737L486.43 176.788H495.272L500.207 212.939L504.114 192.128H512.258L516.041 212.939L521.1 176.788H529.942Z" fill="#DFE9DD"/>
<path d="M533.644 203.603C533.644 200.011 534.028 196.542 534.795 193.197C535.563 189.852 536.756 186.905 538.373 184.355C539.991 181.805 542.102 179.763 544.707 178.227C547.339 176.664 550.506 175.883 554.207 175.883C557.909 175.883 561.062 176.664 563.667 178.227C566.299 179.763 568.437 181.805 570.082 184.355C571.728 186.905 572.92 189.852 573.66 193.197C574.401 196.542 574.771 200.011 574.771 203.603C574.771 207.194 574.401 210.663 573.66 214.008C572.92 217.325 571.741 220.287 570.124 222.891C568.506 225.469 566.381 227.539 563.749 229.102C561.144 230.637 557.964 231.405 554.207 231.405C550.451 231.405 547.257 230.637 544.625 229.102C542.02 227.539 539.895 225.469 538.25 222.891C536.632 220.287 535.467 217.325 534.754 214.008C534.014 210.663 533.644 207.194 533.644 203.603ZM542.157 203.603C542.157 206.015 542.335 208.428 542.692 210.841C543.076 213.254 543.706 215.42 544.584 217.339C545.488 219.231 546.708 220.766 548.244 221.945C549.807 223.124 551.795 223.714 554.207 223.714C556.62 223.714 558.594 223.124 560.13 221.945C561.692 220.766 562.913 219.231 563.79 217.339C564.695 215.42 565.325 213.254 565.682 210.841C566.066 208.428 566.258 206.015 566.258 203.603C566.258 201.19 566.066 198.791 565.682 196.405C565.325 194.02 564.695 191.868 563.79 189.948C562.913 188.029 561.679 186.48 560.089 185.301C558.526 184.122 556.565 183.533 554.207 183.533C550.287 183.533 547.298 185.301 545.242 188.838C543.185 192.375 542.157 197.296 542.157 203.603Z" fill="#DFE9DD"/>
<path d="M620.052 230.459H609.277L595.376 208.744H591.51V230.459H582.996V176.788H600.681C606.576 176.788 611.155 178.145 614.418 180.859C617.68 183.546 619.312 187.536 619.312 192.827C619.312 195.185 618.942 197.269 618.201 199.079C617.488 200.861 616.46 202.396 615.117 203.685C613.801 204.974 612.252 206.002 610.469 206.769C608.715 207.51 606.809 208.017 604.753 208.291L620.052 230.459ZM610.798 192.704C610.798 189.962 609.894 187.906 608.084 186.535C606.302 185.164 603.834 184.478 600.681 184.478H591.51V201.053H600.681C603.834 201.053 606.302 200.367 608.084 198.996C609.894 197.625 610.798 195.528 610.798 192.704Z" fill="#DFE9DD"/>
<path d="M663.277 230.459H628.977V176.788H637.49V222.809H663.277V230.459Z" fill="#DFE9DD"/>
<path d="M713.041 203.603C713.041 207.194 712.657 210.622 711.889 213.884C711.149 217.12 709.942 219.971 708.27 222.439C706.625 224.879 704.486 226.826 701.854 228.279C699.249 229.732 696.096 230.459 692.395 230.459H674.957V176.788H692.395C696.041 176.788 699.167 177.528 701.772 179.009C704.404 180.462 706.543 182.408 708.188 184.849C709.86 187.289 711.08 190.127 711.848 193.362C712.643 196.597 713.041 200.011 713.041 203.603ZM704.527 203.603C704.527 197.406 703.472 192.676 701.361 189.414C699.249 186.124 696.261 184.478 692.395 184.478H683.47V222.809H692.395C696.261 222.809 699.249 221.137 701.361 217.792C703.472 214.447 704.527 209.717 704.527 203.603Z" fill="#DFE9DD"/>
<path fill-rule="evenodd" clip-rule="evenodd" d="M701.932 449.219C701.932 447.604 703.241 446.294 704.856 446.294H737.027V452.144H707.781V468.521H744.046V474.371H704.856C703.241 474.371 701.932 473.061 701.932 471.446V449.219Z" fill="black"/>
<path fill-rule="evenodd" clip-rule="evenodd" d="M274.62 450.974C274.62 448.551 276.584 446.587 279.007 446.587H320.537V455.361H283.394V465.304H325.216V474.078H279.007C276.584 474.078 274.62 472.114 274.62 469.691V450.974Z" fill="black"/>
<path d="M5.84918 429.332V5.84918H362.651V429.332V489.579H5.84918V429.332Z" fill="#DFE9DD"/>
<path fill-rule="evenodd" clip-rule="evenodd" d="M0 5.84921C0 2.61878 2.61878 0 5.84921 0H362.651C365.881 0 368.5 2.61878 368.5 5.84921V489.579C368.5 492.809 365.881 495.428 362.651 495.428H5.84921C2.61878 495.428 0 492.809 0 489.579V5.84921ZM11.6984 11.6984V423.483H356.802V11.6984H11.6984ZM356.802 435.181H11.6984V483.729H356.802V435.181Z" fill="black"/>
<path fill-rule="evenodd" clip-rule="evenodd" d="M276.96 326.971C276.96 324.548 278.924 322.584 281.347 322.584H320.537C322.959 322.584 324.923 324.548 324.923 326.971V345.103C324.923 347.526 322.959 349.49 320.537 349.49H187.175V340.716H276.96V326.971ZM285.734 340.716H316.15V331.358H285.734V340.716Z" fill="black"/>
<path d="M33.3405 363.236H62.5865V391.312H33.3405V363.236Z" fill="#FF5C00"/>
<path d="M311.178 446.294H331.65V474.371H311.178V446.294Z" fill="black"/>
<path d="M38.0198 276.667V49.7182H329.895V276.667H38.0198Z" fill="black"/>
<path fill-rule="evenodd" clip-rule="evenodd" d="M33.6329 49.7182C33.6329 47.2954 35.597 45.3313 38.0198 45.3313H329.895C332.318 45.3313 334.282 47.2954 334.282 49.7182V276.667C334.282 279.09 332.318 281.054 329.895 281.054H38.0198C35.597 281.054 33.6329 279.09 33.6329 276.667V49.7182ZM42.4067 54.1051V272.28H325.508V54.1051H42.4067Z" fill="black"/>
<path d="M51.473 81.8888C51.473 70.9054 60.3769 62.0015 71.3603 62.0015H296.555C307.538 62.0015 316.442 70.9054 316.442 81.8888V244.497C316.442 255.48 307.538 264.384 296.555 264.384H71.3603C60.3769 264.384 51.473 255.48 51.473 244.497V81.8888Z" fill="#075BFF"/>
<path d="M105.336 149.74H96.8227V126.256H79.5492V149.74H71.0359V96.0686H79.5492V118.565H96.8227V96.0686H105.336V149.74Z" fill="#DFE9DD"/>
<path d="M151.316 149.74H117.016V96.0686H151.316V103.759H125.529V118.565H145.641V126.256H125.529V142.09H151.316V149.74Z" fill="#DFE9DD"/>
<path d="M197.296 149.74H162.996V96.0686H171.51V142.09H197.296V149.74Z" fill="#DFE9DD"/>
<path d="M243.277 149.74H208.977V96.0686H217.49V142.09H243.277V149.74Z" fill="#DFE9DD"/>
<path d="M251.584 122.884C251.584 119.292 251.968 115.823 252.736 112.478C253.504 109.133 254.696 106.186 256.314 103.636C257.932 101.086 260.043 99.0435 262.648 97.5081C265.28 95.9452 268.447 95.1638 272.148 95.1638C275.85 95.1638 279.003 95.9452 281.607 97.5081C284.239 99.0435 286.378 101.086 288.023 103.636C289.668 106.186 290.861 109.133 291.601 112.478C292.342 115.823 292.712 119.292 292.712 122.884C292.712 126.475 292.342 129.944 291.601 133.289C290.861 136.606 289.682 139.568 288.064 142.172C286.447 144.75 284.322 146.82 281.69 148.382C279.085 149.918 275.904 150.686 272.148 150.686C268.392 150.686 265.198 149.918 262.565 148.382C259.961 146.82 257.836 144.75 256.191 142.172C254.573 139.568 253.408 136.606 252.695 133.289C251.955 129.944 251.584 126.475 251.584 122.884ZM260.098 122.884C260.098 125.296 260.276 127.709 260.632 130.122C261.016 132.535 261.647 134.701 262.524 136.62C263.429 138.512 264.649 140.047 266.185 141.226C267.747 142.405 269.735 142.995 272.148 142.995C274.561 142.995 276.535 142.405 278.07 141.226C279.633 140.047 280.853 138.512 281.731 136.62C282.635 134.701 283.266 132.535 283.623 130.122C284.006 127.709 284.198 125.296 284.198 122.884C284.198 120.471 284.006 118.072 283.623 115.686C283.266 113.301 282.635 111.149 281.731 109.229C280.853 107.31 279.619 105.761 278.029 104.582C276.466 103.403 274.506 102.813 272.148 102.813C268.227 102.813 265.239 104.582 263.182 108.119C261.126 111.656 260.098 116.577 260.098 122.884Z" fill="#DFE9DD"/>
<path d="M109.942 176.788L101.635 230.459H92.8744L88.1448 207.304L83.4974 230.459H74.7373L66.4296 176.788H75.272L80.2072 212.939L84.1143 192.128H92.2575L96.0412 212.939L101.1 176.788H109.942Z" fill="#DFE9DD"/>
<path d="M113.644 203.603C113.644 200.011 114.028 196.542 114.795 193.197C115.563 189.852 116.756 186.905 118.373 184.355C119.991 181.805 122.102 179.763 124.707 178.227C127.339 176.664 130.506 175.883 134.207 175.883C137.909 175.883 141.062 176.664 143.667 178.227C146.299 179.763 148.437 181.805 150.082 184.355C151.728 186.905 152.92 189.852 153.66 193.197C154.401 196.542 154.771 200.011 154.771 203.603C154.771 207.194 154.401 210.663 153.66 214.008C152.92 217.325 151.741 220.287 150.124 222.891C148.506 225.469 146.381 227.539 143.749 229.102C141.144 230.637 137.964 231.405 134.207 231.405C130.451 231.405 127.257 230.637 124.625 229.102C122.02 227.539 119.895 225.469 118.25 222.891C116.632 220.287 115.467 217.325 114.754 214.008C114.014 210.663 113.644 207.194 113.644 203.603ZM122.157 203.603C122.157 206.015 122.335 208.428 122.692 210.841C123.076 213.254 123.706 215.42 124.584 217.339C125.488 219.231 126.708 220.766 128.244 221.945C129.807 223.124 131.795 223.714 134.207 223.714C136.62 223.714 138.594 223.124 140.13 221.945C141.692 220.766 142.913 219.231 143.79 217.339C144.695 215.42 145.325 213.254 145.682 210.841C146.066 208.428 146.258 206.015 146.258 203.603C146.258 201.19 146.066 198.791 145.682 196.405C145.325 194.02 144.695 191.868 143.79 189.948C142.913 188.029 141.679 186.48 140.089 185.301C138.526 184.122 136.565 183.533 134.207 183.533C130.287 183.533 127.298 185.301 125.242 188.838C123.185 192.375 122.157 197.296 122.157 203.603Z" fill="#DFE9DD"/>
<path d="M200.052 230.459H189.277L175.376 208.744H171.51V230.459H162.996V176.788H180.681C186.576 176.788 191.155 178.145 194.418 180.859C197.68 183.546 199.312 187.536 199.312 192.827C199.312 195.185 198.942 197.269 198.201 199.079C197.488 200.861 196.46 202.396 195.117 203.685C193.801 204.974 192.252 206.002 190.469 206.769C188.715 207.51 186.809 208.017 184.753 208.291L200.052 230.459ZM190.798 192.704C190.798 189.962 189.894 187.906 188.084 186.535C186.302 185.164 183.834 184.478 180.681 184.478H171.51V201.053H180.681C183.834 201.053 186.302 200.367 188.084 198.996C189.894 197.625 190.798 195.528 190.798 192.704Z" fill="#DFE9DD"/>
<path d="M243.277 230.459H208.977V176.788H217.49V222.809H243.277V230.459Z" fill="#DFE9DD"/>
<path d="M293.041 203.603C293.041 207.194 292.657 210.622 291.889 213.884C291.149 217.12 289.942 219.971 288.27 222.439C286.625 224.879 284.486 226.826 281.854 228.279C279.249 229.732 276.096 230.459 272.395 230.459H254.957V176.788H272.395C276.041 176.788 279.167 177.528 281.772 179.009C284.404 180.462 286.543 182.408 288.188 184.849C289.86 187.289 291.08 190.127 291.848 193.362C292.643 196.597 293.041 200.011 293.041 203.603ZM284.527 203.603C284.527 197.406 283.472 192.676 281.361 189.414C279.249 186.124 276.261 184.478 272.395 184.478H263.47V222.809H272.395C276.261 222.809 279.249 221.137 281.361 217.792C283.472 214.447 284.527 209.717 284.527 203.603Z" fill="#DFE9DD"/>
<path fill-rule="evenodd" clip-rule="evenodd" d="M281.932 449.219C281.932 447.604 283.241 446.294 284.856 446.294H317.027V452.144H287.781V468.521H324.046V474.371H284.856C283.241 474.371 281.932 473.061 281.932 471.446V449.219Z" fill="black"/>
</svg>
