<svg width="1037" height="736" viewBox="0 0 1037 736" fill="none" xmlns="http://www.w3.org/2000/svg">
<path d="M8.76193 8.76196H1036.1V731.619H8.76193V8.76196Z" fill="#DFE9DD"/>
<path fill-rule="evenodd" clip-rule="evenodd" d="M966.332 662.482V194.952H969.804V662.482H1031.71V665.956H969.804V724.164H966.332V665.956H80.0391V733.81H76.5675V665.956H8.76193V662.482H966.332Z" fill="black"/>
<path fill-rule="evenodd" clip-rule="evenodd" d="M985.481 676.857L983.524 679.75L1005.89 697.24L983.672 710.994L985.333 714.095L1012 697.59L985.481 676.857Z" fill="black"/>
<path fill-rule="evenodd" clip-rule="evenodd" d="M57.0347 676.857L59.1428 679.58L35.0513 696.041L58.983 708.986L57.1946 711.905L28.4762 696.37L57.0347 676.857Z" fill="black"/>
<path fill-rule="evenodd" clip-rule="evenodd" d="M976.952 239.211L980.14 240.952L995.571 213.349L1011 240.952L1014.19 239.211L995.571 205.905L976.952 239.211Z" fill="black"/>
<path fill-rule="evenodd" clip-rule="evenodd" d="M1014.19 619.347L1011 617.714L995.571 643.592L980.14 617.714L976.952 619.347L995.571 650.571L1014.19 619.347Z" fill="black"/>
<path fill-rule="evenodd" clip-rule="evenodd" d="M137.158 302.549L155.729 320.632L148.619 329.797L128.762 311.958L131.08 309.377L148.163 324.724L151.088 320.955L134.737 305.034L137.158 302.549Z" fill="black"/>
<path fill-rule="evenodd" clip-rule="evenodd" d="M60.0401 348.286L74.4762 356.667L68.9952 367.038L52.7092 402.266L35.0476 416.191L38.297 393.364L54.5518 359.32L60.0401 348.286ZM66.8122 363.867L69.8851 358.052L61.4303 353.144L58.3394 359.358L66.8122 363.867ZM56.8011 362.514L65.2561 367.013L50.6579 398.59L42.1352 393.23L56.8011 362.514ZM41.2205 396.787L48.3493 401.271L39.6003 408.168L41.2205 396.787Z" fill="black"/>
<path d="M59.8404 470.952L57.2959 462.6H45.6023L43.112 470.952H37.2381L48.255 435.905H54.6973L65.7143 470.952H59.8404ZM47.091 457.685H55.8071L51.4762 443.237L47.091 457.685Z" fill="black"/>
<path d="M333.701 520.739H323.497V510.381H333.701V520.739ZM343.905 582.666H313.238V576.186H324.813V537.522H313.238V531.042H332.384V576.186H343.905V582.666Z" fill="black"/>
<path d="M516.952 582.667H473.143V512.571H480.339V576.382H516.952V582.667Z" fill="black"/>
<path fill-rule="evenodd" clip-rule="evenodd" d="M1025.14 194.952H15.3333V192.762H1025.14V194.952Z" fill="black"/>
<path fill-rule="evenodd" clip-rule="evenodd" d="M0 0H1036.1V736H0V0ZM14.7873 14.7791V721.221H1021.31V14.7791H14.7873Z" fill="#075BFF"/>
<path d="M8.76193 8.76196H1036.1V98.5715H8.76193V8.76196Z" fill="#075BFF"/>
<path fill-rule="evenodd" clip-rule="evenodd" d="M782 63.5239H714.095V54.762H782V63.5239Z" fill="#DFE9DD"/>
<path fill-rule="evenodd" clip-rule="evenodd" d="M812.667 26.2858H867.429V83.2381H812.667V26.2858ZM821.223 44.9048V73.7461H858.872V44.9048H821.223Z" fill="#DFE9DD"/>
<path fill-rule="evenodd" clip-rule="evenodd" d="M939.528 78.8942L894.056 33.1295L900.516 26.7102L945.989 72.475L939.528 78.8942Z" fill="#DFE9DD"/>
<path fill-rule="evenodd" clip-rule="evenodd" d="M894.629 73.7056L938.313 26.231L945.015 32.3977L901.331 79.8724L894.629 73.7056Z" fill="#DFE9DD"/>
<path d="M15.3333 47.0742C15.3333 45.232 15.5232 43.4531 15.9031 41.7375C16.2829 40.0219 16.873 38.5102 17.6734 37.2024C18.4738 35.8946 19.5183 34.847 20.8071 34.0595C22.1094 33.258 23.6762 32.8572 25.5076 32.8572C27.3389 32.8572 28.899 33.258 30.1877 34.0595C31.49 34.847 32.5482 35.8946 33.3621 37.2024C34.176 38.5102 34.7661 40.0219 35.1324 41.7375C35.4987 43.4531 35.6818 45.232 35.6818 47.0742C35.6818 48.9163 35.4987 50.6952 35.1324 52.4108C34.7661 54.1124 34.1828 55.6311 33.3824 56.967C32.5821 58.2889 31.5307 59.3506 30.2284 60.1521C28.9397 60.9396 27.3661 61.3334 25.5076 61.3334C23.6491 61.3334 22.0687 60.9396 20.7664 60.1521C19.4776 59.3506 18.4263 58.2889 17.6123 56.967C16.812 55.6311 16.2354 54.1124 15.8827 52.4108C15.5164 50.6952 15.3333 48.9163 15.3333 47.0742ZM19.5455 47.0742C19.5455 48.3117 19.6336 49.5491 19.81 50.7866C19.9999 52.0241 20.3119 53.135 20.746 54.1194C21.1937 55.0897 21.7974 55.8772 22.557 56.4819C23.3303 57.0865 24.3138 57.3889 25.5076 57.3889C26.7013 57.3889 27.6781 57.0865 28.4378 56.4819C29.211 55.8772 29.8147 55.0897 30.2488 54.1194C30.6964 53.135 31.0085 52.0241 31.1848 50.7866C31.3747 49.5491 31.4697 48.3117 31.4697 47.0742C31.4697 45.8367 31.3747 44.6062 31.1848 43.3828C31.0085 42.1594 30.6964 41.0555 30.2488 40.0711C29.8147 39.0868 29.2042 38.2923 28.4174 37.6876C27.6442 37.0829 26.6742 36.7806 25.5076 36.7806C23.5677 36.7806 22.089 37.6876 21.0716 39.5016C20.0542 41.3157 19.5455 43.8398 19.5455 47.0742Z" fill="#DFE9DD"/>
<path d="M57.0071 58.0428C55.7862 59.3084 54.4974 60.1732 53.1409 60.6373C51.7978 61.1013 50.3395 61.3334 48.7659 61.3334C47.1787 61.3334 45.734 61.0873 44.4317 60.5951C43.1429 60.1029 42.0441 59.4139 41.1352 58.5279C40.2399 57.6279 39.548 56.5451 39.0597 55.2795C38.5849 54.0139 38.3475 52.6007 38.3475 51.0398C38.3475 49.5491 38.5849 48.171 39.0597 46.9054C39.548 45.6258 40.1992 44.5359 41.0131 43.6359C41.8406 42.7219 42.8106 42.0117 43.923 41.5055C45.0354 40.9852 46.2156 40.725 47.4636 40.725C48.7659 40.725 49.8987 41.0063 50.8618 41.5688C51.825 42.1313 52.5236 42.9539 52.9577 44.0367V41.1891H56.7222V50.3437H52.9577C52.9577 48.614 52.4965 47.2359 51.574 46.2093C50.6651 45.1687 49.4781 44.6484 48.013 44.6484C47.4297 44.6484 46.8125 44.775 46.1613 45.0281C45.5237 45.2672 44.9336 45.6469 44.391 46.1672C43.8619 46.6875 43.421 47.3484 43.0683 48.1499C42.7156 48.9515 42.5393 49.9148 42.5393 51.0398C42.5393 52.1366 42.7088 53.0858 43.048 53.8874C43.3871 54.6749 43.828 55.3288 44.3706 55.8491C44.9268 56.3553 45.578 56.742 46.3241 57.0092C47.0838 57.2623 47.8638 57.3889 48.6642 57.3889C50.0343 57.3889 51.2213 57.1709 52.2252 56.735C53.2426 56.285 54.1176 55.6944 54.8501 54.9631L57.0071 58.0428Z" fill="#DFE9DD"/>
<path d="M80.9573 51.0398C80.9573 52.5725 80.7199 53.9647 80.2451 55.2163C79.7838 56.4678 79.1123 57.5506 78.2306 58.4647C77.3624 59.3646 76.3178 60.0678 75.0969 60.574C73.876 61.0802 72.5126 61.3334 71.0068 61.3334C69.5282 61.3334 68.1784 61.0802 66.9575 60.574C65.7366 60.0678 64.6852 59.3646 63.8035 58.4647C62.9353 57.5506 62.2638 56.4678 61.789 55.2163C61.3277 53.9647 61.0971 52.5725 61.0971 51.0398C61.0971 49.5491 61.3277 48.171 61.789 46.9054C62.2638 45.6258 62.9353 44.5289 63.8035 43.6148C64.6852 42.6867 65.7366 41.9766 66.9575 41.4844C68.1784 40.9782 69.5282 40.725 71.0068 40.725C72.5126 40.725 73.876 40.9782 75.0969 41.4844C76.3178 41.9766 77.3624 42.6867 78.2306 43.6148C79.1123 44.5289 79.7838 45.6258 80.2451 46.9054C80.7199 48.171 80.9573 49.5491 80.9573 51.0398ZM76.7655 51.0398C76.7655 50.1538 76.6298 49.3171 76.3585 48.5296C76.1008 47.7281 75.7209 47.0461 75.219 46.4836C74.7171 45.9211 74.1066 45.4781 73.3876 45.1547C72.6822 44.8172 71.8886 44.6484 71.0068 44.6484C70.1115 44.6484 69.3111 44.8172 68.6057 45.1547C67.9003 45.4781 67.3034 45.9211 66.8151 46.4836C66.3267 47.0461 65.9468 47.7281 65.6755 48.5296C65.4178 49.3171 65.2889 50.1538 65.2889 51.0398C65.2889 51.9679 65.4178 52.8116 65.6755 53.571C65.9468 54.3303 66.3267 54.9983 66.8151 55.5748C67.3034 56.1514 67.9003 56.6014 68.6057 56.9248C69.3111 57.2342 70.1115 57.3889 71.0068 57.3889C71.8886 57.3889 72.6822 57.2342 73.3876 56.9248C74.1066 56.6014 74.7171 56.1514 75.219 55.5748C75.7209 54.9983 76.1008 54.3303 76.3585 53.571C76.6298 52.8116 76.7655 51.9679 76.7655 51.0398Z" fill="#DFE9DD"/>
<path d="M88.7101 51.4827C88.7101 53.2686 89.1645 54.703 90.0734 55.7858C90.9959 56.8545 92.2507 57.3889 93.8379 57.3889C95.3437 57.3889 96.5781 56.8545 97.5413 55.7858C98.518 54.703 99.0064 53.2686 99.0064 51.4827C99.0064 49.6687 98.5452 48.2273 97.6227 47.1586C96.7138 46.0898 95.4522 45.5554 93.8379 45.5554C92.115 45.5554 90.8263 46.0898 89.9717 47.1586C89.1306 48.2273 88.7101 49.6687 88.7101 51.4827ZM84.2537 47.1164C84.2537 45.007 84.464 43.0805 84.8845 41.3368C85.3186 39.593 85.9223 38.0954 86.6955 36.8438C87.4824 35.5923 88.4116 34.615 89.4833 33.9119C90.555 33.2087 91.742 32.8572 93.0443 32.8572C93.6819 32.8572 94.2109 32.9205 94.6315 33.047C95.052 33.1736 95.4251 33.3283 95.7506 33.5111C96.0898 33.6798 96.4018 33.8275 96.6867 33.954C96.9851 34.0806 97.3446 34.1439 97.7651 34.1439C98.3213 34.1439 98.7894 34.0454 99.1692 33.8486C99.5626 33.6517 100.037 33.3212 100.594 32.8572L102.506 35.747C102.004 36.3798 101.326 36.9282 100.471 37.3923C99.6304 37.8563 98.7283 38.0884 97.7651 38.0884C97.114 38.0884 96.5917 38.0251 96.1983 37.8985C95.8185 37.7579 95.4658 37.6032 95.1402 37.4345C94.8282 37.2657 94.5162 37.1181 94.2042 36.9915C93.9057 36.8509 93.5191 36.7806 93.0443 36.7806C92.4067 36.7806 91.8166 36.9493 91.274 37.2868C90.7313 37.6102 90.2498 38.1305 89.8292 38.8477C89.4222 39.5508 89.0967 40.4579 88.8525 41.5688C88.6219 42.6656 88.5066 44.0086 88.5066 45.5976C89.0356 44.3039 89.775 43.3195 90.7246 42.6445C91.6877 41.9696 92.7391 41.6321 93.8786 41.6321C95.208 41.6321 96.4425 41.843 97.582 42.2649C98.7215 42.6727 99.705 43.2914 100.533 44.1211C101.374 44.9367 102.032 45.9562 102.506 47.1796C102.981 48.4031 103.219 49.8374 103.219 51.4827C103.219 52.8608 102.981 54.1546 102.506 55.3639C102.032 56.5733 101.374 57.6209 100.533 58.5068C99.705 59.3787 98.7215 60.0678 97.582 60.574C96.4425 61.0802 95.208 61.3334 93.8786 61.3334C90.6906 61.3334 88.2895 60.1803 86.6752 57.874C85.0609 55.5678 84.2537 51.9819 84.2537 47.1164Z" fill="#DFE9DD"/>
<path d="M110.87 52.685C111.073 54.035 111.69 55.16 112.721 56.06C113.766 56.9459 115.163 57.3889 116.913 57.3889C118.283 57.3889 119.47 57.1709 120.474 56.735C121.492 56.285 122.366 55.6944 123.099 54.9631L125.256 58.0428C124.035 59.3084 122.74 60.1732 121.369 60.6373C120.013 61.1013 118.527 61.3334 116.913 61.3334C115.448 61.3334 114.085 61.0802 112.823 60.574C111.561 60.0678 110.469 59.3646 109.547 58.4647C108.624 57.5506 107.899 56.4678 107.37 55.2163C106.854 53.9647 106.596 52.5725 106.596 51.0398C106.596 49.5491 106.834 48.1781 107.309 46.9265C107.797 45.6609 108.475 44.5711 109.343 43.657C110.225 42.7289 111.277 42.0117 112.497 41.5055C113.718 40.9852 115.068 40.725 116.547 40.725C118.08 40.725 119.47 40.9993 120.718 41.5477C121.966 42.0821 123.031 42.8625 123.913 43.8891C124.808 44.9156 125.507 46.1742 126.009 47.6648C126.511 49.1413 126.762 50.8148 126.762 52.685H110.87ZM122 48.846C121.783 47.5804 121.152 46.5679 120.108 45.8086C119.063 45.0351 117.876 44.6484 116.547 44.6484C115.217 44.6484 114.024 45.0351 112.965 45.8086C111.907 46.5679 111.27 47.5804 111.053 48.846H122Z" fill="#DFE9DD"/>
<path d="M147.721 60.8482H143.509V52.7272H134.962V60.8482H130.75V41.1891H134.962V48.8038H143.509V41.1891H147.721V60.8482Z" fill="#DFE9DD"/>
<path d="M170.47 60.8482H166.258V52.7272H157.712V60.8482H153.5V41.1891H157.712V48.8038H166.258V41.1891H170.47V60.8482Z" fill="#DFE9DD"/>
<path d="M194.705 51.0398C194.705 52.5725 194.468 53.9647 193.993 55.2163C193.532 56.4678 192.861 57.5506 191.979 58.4647C191.111 59.3646 190.066 60.0678 188.845 60.574C187.624 61.0802 186.261 61.3334 184.755 61.3334C183.276 61.3334 181.927 61.0802 180.706 60.574C179.485 60.0678 178.433 59.3646 177.552 58.4647C176.683 57.5506 176.012 56.4678 175.537 55.2163C175.076 53.9647 174.845 52.5725 174.845 51.0398C174.845 49.5491 175.076 48.171 175.537 46.9054C176.012 45.6258 176.683 44.5289 177.552 43.6148C178.433 42.6867 179.485 41.9766 180.706 41.4844C181.927 40.9782 183.276 40.725 184.755 40.725C186.261 40.725 187.624 40.9782 188.845 41.4844C190.066 41.9766 191.111 42.6867 191.979 43.6148C192.861 44.5289 193.532 45.6258 193.993 46.9054C194.468 48.171 194.705 49.5491 194.705 51.0398ZM190.514 51.0398C190.514 50.1538 190.378 49.3171 190.107 48.5296C189.849 47.7281 189.469 47.0461 188.967 46.4836C188.465 45.9211 187.855 45.4781 187.136 45.1547C186.43 44.8172 185.637 44.6484 184.755 44.6484C183.86 44.6484 183.059 44.8172 182.354 45.1547C181.648 45.4781 181.052 45.9211 180.563 46.4836C180.075 47.0461 179.695 47.7281 179.424 48.5296C179.166 49.3171 179.037 50.1538 179.037 51.0398C179.037 51.9679 179.166 52.8116 179.424 53.571C179.695 54.3303 180.075 54.9983 180.563 55.5748C181.052 56.1514 181.648 56.6014 182.354 56.9248C183.059 57.2342 183.86 57.3889 184.755 57.3889C185.637 57.3889 186.43 57.2342 187.136 56.9248C187.855 56.6014 188.465 56.1514 188.967 55.5748C189.469 54.9983 189.849 54.3303 190.107 53.571C190.378 52.8116 190.514 51.9679 190.514 51.0398Z" fill="#DFE9DD"/>
<path d="M216.255 58.0428C215.034 59.3084 213.745 60.1732 212.388 60.6373C211.045 61.1013 209.587 61.3334 208.013 61.3334C206.426 61.3334 204.981 61.0873 203.679 60.5951C202.39 60.1029 201.292 59.4139 200.383 58.5279C199.487 57.6279 198.796 56.5451 198.307 55.2795C197.832 54.0139 197.595 52.6007 197.595 51.0398C197.595 49.5491 197.832 48.171 198.307 46.9054C198.796 45.6258 199.447 44.5359 200.261 43.6359C201.088 42.7219 202.058 42.0117 203.17 41.5055C204.283 40.9852 205.463 40.725 206.711 40.725C208.013 40.725 209.146 41.0063 210.109 41.5688C211.072 42.1313 211.771 42.9539 212.205 44.0367V41.1891H215.97V50.3437H212.205C212.205 48.614 211.744 47.2359 210.821 46.2093C209.913 45.1687 208.726 44.6484 207.26 44.6484C206.677 44.6484 206.06 44.775 205.409 45.0281C204.771 45.2672 204.181 45.6469 203.638 46.1672C203.109 46.6875 202.669 47.3484 202.316 48.1499C201.963 48.9515 201.787 49.9148 201.787 51.0398C201.787 52.1366 201.956 53.0858 202.295 53.8874C202.635 54.6749 203.075 55.3288 203.618 55.8491C204.174 56.3553 204.825 56.742 205.572 57.0092C206.331 57.2623 207.111 57.3889 207.912 57.3889C209.282 57.3889 210.469 57.1709 211.473 56.735C212.49 56.285 213.365 55.6944 214.098 54.9631L216.255 58.0428Z" fill="#DFE9DD"/>
<path d="M239.676 51.2085H235.911V45.1336H232.33V56.9248H236.542V60.8482H223.926V56.9248H228.118V45.1336H224.496V51.2085H220.752V41.1891H239.676V51.2085Z" fill="#DFE9DD"/>
<path d="M244.498 41.1891H248.71V54.71L256.178 41.1891H261.469V60.8482H257.257V46.5468L249.382 60.8482H244.498V41.1891Z" fill="#DFE9DD"/>
<path d="M287.128 52.7272V48.8038H309.878V52.7272H287.128Z" fill="#DFE9DD"/>
<path d="M353.465 41.5477C353.465 44.3039 352.657 46.357 351.043 47.707C349.429 49.0429 347.177 49.7109 344.287 49.7109H339.709V60.8482H335.497V33.3212H344.247C347.163 33.3212 349.429 34.0173 351.043 35.4095C352.657 36.7876 353.465 38.8337 353.465 41.5477ZM349.252 41.4844C349.252 40.0782 348.805 39.0235 347.909 38.3204C347.028 37.6173 345.82 37.2657 344.287 37.2657H339.709V45.7664H344.287C345.82 45.7664 347.028 45.4148 347.909 44.7117C348.805 44.0086 349.252 42.9328 349.252 41.4844Z" fill="#DFE9DD"/>
<path d="M357.168 55.1952C357.168 54.0421 357.466 53.0366 358.063 52.1788C358.66 51.3069 359.44 50.5827 360.403 50.0062C361.38 49.4296 362.493 49.0007 363.741 48.7195C365.002 48.4242 366.284 48.2765 367.586 48.2765C368.305 48.2765 368.923 48.2906 369.438 48.3187C369.954 48.3468 370.476 48.389 371.005 48.4453V47.6648C371.005 46.6382 370.618 45.8719 369.845 45.3656C369.085 44.8594 368.082 44.6062 366.834 44.6062C365.694 44.6062 364.534 44.775 363.354 45.1125C362.174 45.4359 361.055 45.914 359.996 46.5468L358.287 43.1297C359.535 42.3844 360.871 41.8008 362.296 41.3789C363.734 40.943 365.246 40.725 366.834 40.725C367.865 40.725 368.875 40.8446 369.865 41.0836C370.869 41.3227 371.765 41.7164 372.551 42.2649C373.352 42.8133 373.989 43.5305 374.464 44.4164C374.939 45.2883 375.176 46.3711 375.176 47.6648V60.8482H371.005V57.9584C370.34 59.0271 369.357 59.8568 368.054 60.4474C366.766 61.0381 365.375 61.3334 363.883 61.3334C362.961 61.3334 362.086 61.1998 361.258 60.9326C360.444 60.6795 359.739 60.2928 359.142 59.7724C358.545 59.2521 358.063 58.6123 357.697 57.8529C357.344 57.0795 357.168 56.1936 357.168 55.1952ZM364.961 57.4311C365.789 57.4311 366.562 57.3256 367.281 57.1147C368.014 56.8897 368.658 56.5873 369.214 56.2077C369.771 55.8139 370.205 55.3428 370.517 54.7944C370.842 54.246 371.005 53.6413 371.005 52.9804V52.2421C370.34 52.1296 369.716 52.0663 369.133 52.0522C368.55 52.0382 368.034 52.0311 367.586 52.0311C365.524 52.0311 363.964 52.3124 362.906 52.8749C361.862 53.4374 361.339 54.1335 361.339 54.9631C361.339 56.6084 362.547 57.4311 364.961 57.4311Z" fill="#DFE9DD"/>
<path d="M392.045 38.6368H386.918V33.3212H392.045V38.6368ZM395.912 60.8482H383.173V56.9248H387.365V45.1336H383.173V41.1891H391.577V56.9248H395.912V60.8482Z" fill="#DFE9DD"/>
<path d="M420.716 60.8482H416.504V48.7195C416.504 47.1867 416.226 46.125 415.67 45.5344C415.114 44.9437 414.307 44.6484 413.249 44.6484C411.688 44.6484 410.413 45.3023 409.423 46.6101C408.446 47.9179 407.958 49.7249 407.958 52.0311V60.8482H403.746V41.1891H407.958V46.125C408.378 44.4234 409.158 43.1016 410.298 42.1594C411.437 41.2032 412.842 40.725 414.51 40.725C416.45 40.725 417.969 41.3789 419.068 42.6867C420.167 43.9945 420.716 46.0054 420.716 48.7195V60.8482Z" fill="#DFE9DD"/>
<path d="M444.667 54.5835C444.45 56.6506 443.663 58.2959 442.306 59.5193C440.963 60.7287 439.281 61.3334 437.26 61.3334C436.147 61.3334 435.13 61.1435 434.207 60.7638C433.285 60.3842 432.498 59.8568 431.847 59.1818C431.196 58.5068 430.687 57.6983 430.321 56.7561C429.968 55.7998 429.792 54.7592 429.792 53.6342V45.1336H425.498V41.1891H429.792V33.3212H434.004V41.1891H441.96V45.1336H434.004V53.6342C434.004 54.8999 434.302 55.842 434.899 56.4608C435.496 57.0795 436.283 57.3889 437.26 57.3889C438.454 57.3889 439.342 57.0303 439.925 56.3131C440.509 55.5959 440.855 54.7311 440.963 53.7186L444.667 54.5835Z" fill="#DFE9DD"/>
<path d="M60.3512 138.304C60.3512 139.398 60.176 140.415 59.8258 141.353C59.4868 142.291 59.0009 143.117 58.3682 143.832C57.7468 144.535 56.9954 145.11 56.1141 145.557C55.244 146.004 54.278 146.283 53.2159 146.395V149.276H50.877V146.361C49.8149 146.249 48.8488 145.97 47.9788 145.524C47.1201 145.077 46.3744 144.507 45.7416 143.815C45.1202 143.112 44.64 142.291 44.301 141.353C43.9733 140.415 43.8095 139.398 43.8095 138.304C43.8095 137.199 43.9733 136.177 44.301 135.239C44.64 134.301 45.1202 133.474 45.7416 132.76C46.3744 132.034 47.1201 131.453 47.9788 131.018C48.8488 130.571 49.8149 130.275 50.877 130.13V127.416H53.2159V130.13C54.278 130.241 55.244 130.526 56.1141 130.984C56.9954 131.442 57.7468 132.028 58.3682 132.743C59.0009 133.446 59.4868 134.273 59.8258 135.222C60.176 136.171 60.3512 137.199 60.3512 138.304ZM58.0292 138.304C58.0292 137.522 57.9162 136.785 57.6903 136.093C57.4756 135.389 57.1649 134.764 56.7581 134.217C56.3626 133.67 55.8598 133.217 55.2497 132.86C54.6509 132.503 53.9729 132.257 53.2159 132.123V144.368C54.7412 144.122 55.922 143.447 56.7581 142.341C57.6055 141.224 58.0292 139.879 58.0292 138.304ZM46.1314 138.304C46.1314 139.879 46.5382 141.224 47.3517 142.341C48.1766 143.447 49.3516 144.122 50.877 144.368V132.123C50.12 132.257 49.442 132.508 48.8432 132.877C48.2556 133.245 47.7585 133.698 47.3517 134.234C46.9563 134.77 46.6512 135.389 46.4365 136.093C46.2331 136.785 46.1314 137.522 46.1314 138.304Z" fill="black"/>
<path d="M63.0629 145.055C63.0629 144.072 63.3115 143.251 63.8087 142.592C64.3058 141.922 64.9555 141.397 65.7577 141.018C66.5712 140.627 67.4978 140.348 68.5373 140.18C69.5881 140.001 70.6558 139.912 71.7405 139.912C72.1586 139.912 72.5314 139.918 72.8591 139.929C73.1981 139.94 73.5145 139.957 73.8082 139.979C74.1133 140.001 74.4184 140.029 74.7234 140.063C75.0285 140.096 75.3618 140.135 75.7234 140.18V139.058C75.7234 138.298 75.5539 137.673 75.2149 137.182C74.8873 136.69 74.4805 136.305 73.9947 136.026C73.5088 135.736 73.0003 135.535 72.4693 135.423C71.9382 135.3 71.4863 135.239 71.1134 135.239C69.9383 135.239 68.8536 135.395 67.8593 135.708C66.865 136.02 65.9385 136.439 65.0798 136.964L64.029 135.239C64.9781 134.669 66.0402 134.206 67.2153 133.848C68.4017 133.48 69.7011 133.296 71.1134 133.296C71.9721 133.296 72.8139 133.407 73.6387 133.631C74.4749 133.843 75.2206 134.178 75.8759 134.636C76.5426 135.082 77.0736 135.674 77.4691 136.411C77.8645 137.148 78.0623 138.03 78.0623 139.058V149.276H75.7234V146.663C75.3166 147.165 74.8534 147.606 74.3336 147.986C73.8252 148.366 73.2885 148.678 72.7235 148.924C72.1586 149.159 71.5936 149.337 71.0287 149.46C70.4637 149.594 69.927 149.661 69.4186 149.661C67.3283 149.661 65.7464 149.265 64.673 148.472C63.5996 147.679 63.0629 146.54 63.0629 145.055ZM69.4186 147.701C70.3903 147.701 71.2603 147.562 72.0286 147.282C72.8083 146.992 73.4693 146.635 74.0116 146.21C74.554 145.786 74.972 145.334 75.2658 144.854C75.5709 144.373 75.7234 143.938 75.7234 143.547V142.073C74.9664 141.961 74.2376 141.9 73.5371 141.889C72.8478 141.878 72.249 141.872 71.7405 141.872C70.9044 141.872 70.0965 141.928 69.3169 142.039C68.5486 142.151 67.8763 142.335 67.3 142.592C66.7238 142.838 66.2605 143.162 65.9103 143.564C65.56 143.966 65.3849 144.463 65.3849 145.055C65.3849 145.713 65.7069 146.322 66.3509 146.88C67.0063 147.428 68.0288 147.701 69.4186 147.701Z" fill="black"/>
<path d="M82.8756 133.664H85.1976V146.261L93.7396 133.664H97.0106V149.276H94.6717V136.11L85.7569 149.276H82.8756V133.664ZM94.7904 129.007C93.4684 130.303 91.8583 130.951 89.9601 130.951C88.0619 130.951 86.4518 130.303 85.1298 129.007L86.4518 127.734C87.5139 128.784 88.6833 129.309 89.9601 129.309C91.2369 129.309 92.4063 128.784 93.4684 127.734L94.7904 129.007Z" fill="black"/>
<path d="M115.959 133.664V149.276H113.62V135.624H106.485V145.808C106.485 146.423 106.377 146.97 106.163 147.45C105.959 147.93 105.683 148.332 105.332 148.656C104.982 148.98 104.575 149.226 104.112 149.393C103.649 149.572 103.163 149.661 102.654 149.661C101.705 149.661 101.01 149.521 100.57 149.242L101.027 147.416C101.186 147.517 101.361 147.59 101.553 147.634C101.756 147.679 102.022 147.701 102.349 147.701C103.547 147.701 104.146 147.07 104.146 145.808V133.664H115.959Z" fill="black"/>
<path d="M174.041 138.304C174.041 139.398 173.866 140.415 173.516 141.353C173.177 142.291 172.691 143.117 172.058 143.832C171.437 144.535 170.685 145.11 169.804 145.557C168.934 146.004 167.968 146.283 166.906 146.395V149.276H164.567V146.361C163.505 146.249 162.539 145.97 161.669 145.524C160.81 145.077 160.064 144.507 159.432 143.815C158.81 143.112 158.33 142.291 157.991 141.353C157.663 140.415 157.5 139.398 157.5 138.304C157.5 137.199 157.663 136.177 157.991 135.239C158.33 134.301 158.81 133.474 159.432 132.76C160.064 132.034 160.81 131.453 161.669 131.018C162.539 130.571 163.505 130.275 164.567 130.13V127.416H166.906V130.13C167.968 130.241 168.934 130.526 169.804 130.984C170.685 131.442 171.437 132.028 172.058 132.743C172.691 133.446 173.177 134.273 173.516 135.222C173.866 136.171 174.041 137.199 174.041 138.304ZM171.719 138.304C171.719 137.522 171.606 136.785 171.38 136.093C171.166 135.389 170.855 134.764 170.448 134.217C170.053 133.67 169.55 133.217 168.94 132.86C168.341 132.503 167.663 132.257 166.906 132.123V144.368C168.431 144.122 169.612 143.447 170.448 142.341C171.296 141.224 171.719 139.879 171.719 138.304ZM159.821 138.304C159.821 139.879 160.228 141.224 161.042 142.341C161.867 143.447 163.042 144.122 164.567 144.368V132.123C163.81 132.257 163.132 132.508 162.533 132.877C161.946 133.245 161.449 133.698 161.042 134.234C160.646 134.77 160.341 135.389 160.127 136.093C159.923 136.785 159.821 137.522 159.821 138.304Z" fill="black"/>
<path d="M192.99 141.52C192.99 142.737 192.792 143.843 192.396 144.837C192.012 145.831 191.453 146.685 190.718 147.4C189.995 148.103 189.125 148.656 188.108 149.058C187.092 149.46 185.956 149.661 184.702 149.661C183.47 149.661 182.346 149.46 181.329 149.058C180.312 148.656 179.436 148.103 178.702 147.4C177.979 146.685 177.42 145.831 177.024 144.837C176.64 143.843 176.448 142.737 176.448 141.52C176.448 140.336 176.64 139.237 177.024 138.22C177.42 137.193 177.979 136.322 178.702 135.607C179.436 134.881 180.312 134.317 181.329 133.915C182.346 133.502 183.47 133.296 184.702 133.296C185.956 133.296 187.092 133.502 188.108 133.915C189.125 134.317 189.995 134.881 190.718 135.607C191.453 136.322 192.012 137.193 192.396 138.22C192.792 139.237 192.99 140.336 192.99 141.52ZM190.668 141.52C190.668 140.627 190.532 139.806 190.261 139.058C190.001 138.298 189.611 137.634 189.091 137.065C188.572 136.495 187.939 136.048 187.193 135.724C186.459 135.401 185.628 135.239 184.702 135.239C183.775 135.239 182.939 135.401 182.193 135.724C181.459 136.048 180.838 136.495 180.329 137.065C179.821 137.634 179.431 138.298 179.16 139.058C178.9 139.806 178.77 140.627 178.77 141.52C178.77 142.414 178.9 143.24 179.16 143.999C179.431 144.748 179.821 145.395 180.329 145.942C180.838 146.49 181.459 146.92 182.193 147.232C182.939 147.545 183.775 147.701 184.702 147.701C185.628 147.701 186.459 147.545 187.193 147.232C187.939 146.92 188.572 146.49 189.091 145.942C189.611 145.395 190.001 144.748 190.261 143.999C190.532 143.24 190.668 142.414 190.668 141.52Z" fill="black"/>
<path d="M211.531 141.487C211.531 142.704 211.339 143.809 210.955 144.803C210.571 145.797 210.028 146.657 209.328 147.383C208.639 148.098 207.802 148.656 206.819 149.058C205.836 149.46 204.735 149.661 203.515 149.661C202.678 149.661 201.865 149.51 201.074 149.209C200.294 148.907 199.566 148.461 198.888 147.869V155.524H196.566V133.664H198.888V135.105C200.323 133.899 201.865 133.296 203.515 133.296C204.735 133.296 205.836 133.497 206.819 133.899C207.802 134.289 208.639 134.853 209.328 135.59C210.028 136.316 210.571 137.187 210.955 138.204C211.339 139.209 211.531 140.303 211.531 141.487ZM209.209 141.487C209.209 140.616 209.085 139.8 208.836 139.041C208.599 138.271 208.237 137.606 207.752 137.048C207.266 136.489 206.667 136.048 205.955 135.724C205.255 135.401 204.441 135.239 203.515 135.239C202.633 135.239 201.808 135.401 201.04 135.724C200.283 136.048 199.566 136.573 198.888 137.299V145.674C199.566 146.4 200.283 146.92 201.04 147.232C201.808 147.545 202.633 147.701 203.515 147.701C204.441 147.701 205.255 147.539 205.955 147.215C206.667 146.892 207.266 146.451 207.752 145.892C208.237 145.334 208.599 144.681 208.836 143.932C209.085 143.173 209.209 142.358 209.209 141.487Z" fill="black"/>
<path d="M229.649 149.276H227.31V136.897L223.429 144.988H221.768L217.836 136.897V149.276H215.514V133.664H218.531L222.598 141.805L226.632 133.664H229.649V149.276Z" fill="black"/>
<path d="M233.598 145.055C233.598 144.072 233.847 143.251 234.344 142.592C234.841 141.922 235.491 141.397 236.293 141.018C237.106 140.627 238.033 140.348 239.072 140.18C240.123 140.001 241.191 139.912 242.276 139.912C242.694 139.912 243.067 139.918 243.394 139.929C243.733 139.94 244.05 139.957 244.343 139.979C244.648 140.001 244.953 140.029 245.258 140.063C245.564 140.096 245.897 140.135 246.258 140.18V139.058C246.258 138.298 246.089 137.673 245.75 137.182C245.422 136.69 245.016 136.305 244.53 136.026C244.044 135.736 243.535 135.535 243.004 135.423C242.473 135.3 242.021 135.239 241.648 135.239C240.473 135.239 239.389 135.395 238.394 135.708C237.4 136.02 236.474 136.439 235.615 136.964L234.564 135.239C235.513 134.669 236.575 134.206 237.75 133.848C238.937 133.48 240.236 133.296 241.648 133.296C242.507 133.296 243.349 133.407 244.174 133.631C245.01 133.843 245.756 134.178 246.411 134.636C247.078 135.082 247.609 135.674 248.004 136.411C248.4 137.148 248.597 138.03 248.597 139.058V149.276H246.258V146.663C245.852 147.165 245.388 147.606 244.869 147.986C244.36 148.366 243.824 148.678 243.259 148.924C242.694 149.159 242.129 149.337 241.564 149.46C240.999 149.594 240.462 149.661 239.954 149.661C237.863 149.661 236.281 149.265 235.208 148.472C234.135 147.679 233.598 146.54 233.598 145.055ZM239.954 147.701C240.925 147.701 241.795 147.562 242.564 147.282C243.343 146.992 244.004 146.635 244.547 146.21C245.089 145.786 245.507 145.334 245.801 144.854C246.106 144.373 246.258 143.938 246.258 143.547V142.073C245.501 141.961 244.773 141.9 244.072 141.889C243.383 141.878 242.784 141.872 242.276 141.872C241.439 141.872 240.632 141.928 239.852 142.039C239.084 142.151 238.411 142.335 237.835 142.592C237.259 142.838 236.796 143.162 236.445 143.564C236.095 143.966 235.92 144.463 235.92 145.055C235.92 145.713 236.242 146.322 236.886 146.88C237.541 147.428 238.564 147.701 239.954 147.701Z" fill="black"/>
<path d="M268.376 141.034H266.393V135.624H261.648V147.316H265.207V149.276H255.733V147.316H259.309V135.624H254.563V141.034H252.58V133.664H268.376V141.034Z" fill="black"/>
<path d="M325.187 143.028C325.187 145.116 324.504 146.679 323.137 147.718C321.769 148.757 319.826 149.276 317.306 149.276H310.256V127.416H316.916C317.843 127.416 318.753 127.494 319.645 127.651C320.538 127.796 321.334 128.075 322.035 128.488C322.747 128.901 323.323 129.476 323.764 130.213C324.204 130.939 324.425 131.894 324.425 133.078C324.425 135.345 323.278 136.891 320.984 137.718C323.786 138.567 325.187 140.336 325.187 143.028ZM322.103 133.078C322.103 132.307 321.939 131.676 321.611 131.185C321.284 130.694 320.865 130.32 320.357 130.063C319.849 129.795 319.289 129.616 318.679 129.527C318.069 129.426 317.481 129.376 316.916 129.376H312.578V136.797H316.916C317.549 136.797 318.171 136.752 318.781 136.663C319.391 136.562 319.939 136.378 320.425 136.11C320.911 135.831 321.312 135.451 321.628 134.971C321.944 134.491 322.103 133.86 322.103 133.078ZM322.865 143.028C322.865 141.52 322.368 140.426 321.374 139.745C320.391 139.052 319.035 138.706 317.306 138.706H312.578V147.316H317.306C319.035 147.316 320.391 146.959 321.374 146.244C322.368 145.518 322.865 144.446 322.865 143.028Z" fill="black"/>
<path d="M329.204 133.664H331.526V146.261L340.068 133.664H343.339V149.276H341V136.11L332.085 149.276H329.204V133.664Z" fill="black"/>
<path d="M347.322 147.316C347.853 147.204 348.361 146.903 348.847 146.411C349.333 145.92 349.757 145.239 350.118 144.368C350.48 143.497 350.768 142.441 350.983 141.202C351.209 139.951 351.322 138.516 351.322 136.897V133.664H359.949V147.316H363.118V154.619H361.033V149.276H349.407V154.619H347.322V147.316ZM353.644 136.897C353.644 138.192 353.548 139.41 353.356 140.549C353.175 141.677 352.932 142.687 352.627 143.581C352.333 144.474 351.994 145.244 351.61 145.892C351.226 146.529 350.847 147.003 350.474 147.316H357.627V135.624H353.644V136.897Z" fill="black"/>
<path d="M419.929 143.028C419.929 145.116 419.245 146.679 417.878 147.718C416.511 148.757 414.568 149.276 412.048 149.276H404.997V127.416H411.658C412.585 127.416 413.494 127.494 414.387 127.651C415.279 127.796 416.076 128.075 416.777 128.488C417.488 128.901 418.065 129.476 418.505 130.213C418.946 130.939 419.166 131.894 419.166 133.078C419.166 135.345 418.019 136.891 415.726 137.718C418.528 138.567 419.929 140.336 419.929 143.028ZM416.844 133.078C416.844 132.307 416.681 131.676 416.353 131.185C416.025 130.694 415.607 130.32 415.099 130.063C414.59 129.795 414.031 129.616 413.421 129.527C412.811 129.426 412.223 129.376 411.658 129.376H407.319V136.797H411.658C412.291 136.797 412.912 136.752 413.522 136.663C414.133 136.562 414.681 136.378 415.166 136.11C415.652 135.831 416.053 135.451 416.37 134.971C416.686 134.491 416.844 133.86 416.844 133.078ZM417.607 143.028C417.607 141.52 417.11 140.426 416.116 139.745C415.133 139.052 413.777 138.706 412.048 138.706H407.319V147.316H412.048C413.777 147.316 415.133 146.959 416.116 146.244C417.11 145.518 417.607 144.446 417.607 143.028Z" fill="black"/>
<path d="M438.318 146.328C437.651 147.355 436.736 148.17 435.572 148.773C434.42 149.365 433.047 149.661 431.454 149.661C430.222 149.661 429.092 149.46 428.064 149.058C427.036 148.656 426.155 148.098 425.42 147.383C424.697 146.657 424.132 145.797 423.725 144.803C423.319 143.809 423.115 142.704 423.115 141.487C423.115 140.303 423.302 139.209 423.675 138.204C424.047 137.187 424.579 136.322 425.268 135.607C425.957 134.881 426.799 134.317 427.793 133.915C428.799 133.502 429.912 133.296 431.132 133.296C431.618 133.296 432.115 133.351 432.623 133.463C433.132 133.575 433.612 133.748 434.064 133.982C434.516 134.206 434.923 134.479 435.284 134.803C435.646 135.116 435.917 135.49 436.098 135.925V133.664H438.182V139.912H436.098C436.098 139.22 435.968 138.589 435.708 138.019C435.459 137.45 435.115 136.958 434.674 136.545C434.233 136.132 433.708 135.814 433.098 135.59C432.488 135.356 431.832 135.239 431.132 135.239C430.183 135.239 429.352 135.401 428.64 135.724C427.94 136.048 427.352 136.489 426.878 137.048C426.403 137.606 426.042 138.265 425.793 139.024C425.556 139.773 425.437 140.593 425.437 141.487C425.437 142.38 425.573 143.206 425.844 143.966C426.126 144.714 426.528 145.362 427.047 145.909C427.578 146.456 428.211 146.892 428.946 147.215C429.691 147.539 430.527 147.701 431.454 147.701C432.629 147.701 433.674 147.478 434.589 147.031C435.505 146.585 436.205 145.981 436.691 145.222L438.318 146.328Z" fill="black"/>
<path d="M457.86 141.034H455.877V135.624H451.131V147.316H454.69V149.276H445.216V147.316H448.792V135.624H444.047V141.034H442.064V133.664H457.86V141.034Z" fill="black"/>
<path d="M460.978 145.055C460.978 144.072 461.227 143.251 461.724 142.592C462.221 141.922 462.871 141.397 463.673 141.018C464.486 140.627 465.413 140.348 466.452 140.18C467.503 140.001 468.571 139.912 469.656 139.912C470.074 139.912 470.447 139.918 470.774 139.929C471.113 139.94 471.43 139.957 471.723 139.979C472.028 140.001 472.334 140.029 472.639 140.063C472.944 140.096 473.277 140.135 473.639 140.18V139.058C473.639 138.298 473.469 137.673 473.13 137.182C472.802 136.69 472.396 136.305 471.91 136.026C471.424 135.736 470.915 135.535 470.384 135.423C469.853 135.3 469.401 135.239 469.029 135.239C467.853 135.239 466.769 135.395 465.774 135.708C464.78 136.02 463.854 136.439 462.995 136.964L461.944 135.239C462.893 134.669 463.955 134.206 465.13 133.848C466.317 133.48 467.616 133.296 469.029 133.296C469.887 133.296 470.729 133.407 471.554 133.631C472.39 133.843 473.136 134.178 473.791 134.636C474.458 135.082 474.989 135.674 475.384 136.411C475.78 137.148 475.977 138.03 475.977 139.058V149.276H473.639V146.663C473.232 147.165 472.769 147.606 472.249 147.986C471.74 148.366 471.204 148.678 470.639 148.924C470.074 149.159 469.509 149.337 468.944 149.46C468.379 149.594 467.842 149.661 467.334 149.661C465.243 149.661 463.662 149.265 462.588 148.472C461.515 147.679 460.978 146.54 460.978 145.055ZM467.334 147.701C468.305 147.701 469.175 147.562 469.944 147.282C470.723 146.992 471.384 146.635 471.927 146.21C472.469 145.786 472.887 145.334 473.181 144.854C473.486 144.373 473.639 143.938 473.639 143.547V142.073C472.882 141.961 472.153 141.9 471.452 141.889C470.763 141.878 470.164 141.872 469.656 141.872C468.82 141.872 468.012 141.928 467.232 142.039C466.464 142.151 465.791 142.335 465.215 142.592C464.639 142.838 464.176 143.162 463.825 143.564C463.475 143.966 463.3 144.463 463.3 145.055C463.3 145.713 463.622 146.322 464.266 146.88C464.921 147.428 465.944 147.701 467.334 147.701Z" fill="black"/>
<path d="M495.722 144.82C495.722 146.328 495.157 147.45 494.027 148.187C492.909 148.913 491.299 149.276 489.197 149.276H480.791V133.664H488.672C489.44 133.664 490.197 133.726 490.943 133.848C491.7 133.96 492.372 134.167 492.96 134.468C493.547 134.759 494.027 135.166 494.4 135.691C494.773 136.216 494.96 136.903 494.96 137.751C494.96 138.555 494.762 139.231 494.366 139.778C493.971 140.325 493.197 140.744 492.045 141.034C493.457 141.358 494.423 141.838 494.943 142.475C495.462 143.1 495.722 143.882 495.722 144.82ZM492.638 137.885C492.638 137.405 492.508 137.02 492.248 136.73C491.988 136.428 491.666 136.199 491.282 136.043C490.909 135.875 490.491 135.764 490.028 135.708C489.564 135.652 489.112 135.624 488.672 135.624H483.113V140.113H488.672C489.135 140.113 489.604 140.085 490.079 140.029C490.553 139.974 490.982 139.862 491.367 139.694C491.751 139.516 492.056 139.287 492.282 139.008C492.519 138.717 492.638 138.343 492.638 137.885ZM493.4 144.72C493.4 143.804 493.022 143.134 492.265 142.71C491.508 142.285 490.474 142.073 489.163 142.073H483.113V147.316H489.163C490.474 147.316 491.508 147.098 492.265 146.663C493.022 146.227 493.4 145.579 493.4 144.72Z" fill="black"/>
<path d="M514.671 149.276H511.366L504.908 142.274L502.061 144.854V149.276H499.739V133.664H502.061V142.073L511.061 133.664H514.383L506.468 140.833L514.671 149.276Z" fill="black"/>
<path d="M517.823 145.055C517.823 144.072 518.072 143.251 518.569 142.592C519.066 141.922 519.716 141.397 520.518 141.018C521.331 140.627 522.258 140.348 523.297 140.18C524.348 140.001 525.416 139.912 526.501 139.912C526.919 139.912 527.292 139.918 527.619 139.929C527.958 139.94 528.275 139.957 528.568 139.979C528.873 140.001 529.179 140.029 529.484 140.063C529.789 140.096 530.122 140.135 530.484 140.18V139.058C530.484 138.298 530.314 137.673 529.975 137.182C529.647 136.69 529.241 136.305 528.755 136.026C528.269 135.736 527.761 135.535 527.229 135.423C526.698 135.3 526.246 135.239 525.874 135.239C524.699 135.239 523.614 135.395 522.62 135.708C521.625 136.02 520.699 136.439 519.84 136.964L518.789 135.239C519.738 134.669 520.8 134.206 521.975 133.848C523.162 133.48 524.461 133.296 525.874 133.296C526.732 133.296 527.574 133.407 528.399 133.631C529.235 133.843 529.981 134.178 530.636 134.636C531.303 135.082 531.834 135.674 532.229 136.411C532.625 137.148 532.822 138.03 532.822 139.058V149.276H530.484V146.663C530.077 147.165 529.614 147.606 529.094 147.986C528.585 148.366 528.049 148.678 527.484 148.924C526.919 149.159 526.354 149.337 525.789 149.46C525.224 149.594 524.687 149.661 524.179 149.661C522.088 149.661 520.507 149.265 519.433 148.472C518.36 147.679 517.823 146.54 517.823 145.055ZM524.179 147.701C525.15 147.701 526.02 147.562 526.789 147.282C527.568 146.992 528.229 146.635 528.772 146.21C529.314 145.786 529.732 145.334 530.026 144.854C530.331 144.373 530.484 143.938 530.484 143.547V142.073C529.727 141.961 528.998 141.9 528.297 141.889C527.608 141.878 527.009 141.872 526.501 141.872C525.665 141.872 524.857 141.928 524.077 142.039C523.309 142.151 522.636 142.335 522.06 142.592C521.484 142.838 521.021 143.162 520.67 143.564C520.32 143.966 520.145 144.463 520.145 145.055C520.145 145.713 520.467 146.322 521.111 146.88C521.766 147.428 522.789 147.701 524.179 147.701Z" fill="black"/>
<path d="M592.583 147.316V154.619H590.498V149.276H575.532V127.416H577.854V147.316H587.329V127.416H589.667V147.316H592.583Z" fill="black"/>
<path d="M609.412 144.82C609.412 146.328 608.847 147.45 607.718 148.187C606.599 148.913 604.989 149.276 602.887 149.276H594.481V133.664H602.362C603.13 133.664 603.887 133.726 604.633 133.848C605.39 133.96 606.062 134.167 606.65 134.468C607.237 134.759 607.718 135.166 608.09 135.691C608.463 136.216 608.65 136.903 608.65 137.751C608.65 138.555 608.452 139.231 608.057 139.778C607.661 140.325 606.887 140.744 605.735 141.034C607.147 141.358 608.113 141.838 608.633 142.475C609.153 143.1 609.412 143.882 609.412 144.82ZM606.328 137.885C606.328 137.405 606.198 137.02 605.938 136.73C605.678 136.428 605.356 136.199 604.972 136.043C604.599 135.875 604.181 135.764 603.718 135.708C603.254 135.652 602.802 135.624 602.362 135.624H596.803V140.113H602.362C602.825 140.113 603.294 140.085 603.769 140.029C604.243 139.974 604.672 139.862 605.057 139.694C605.441 139.516 605.746 139.287 605.972 139.008C606.209 138.717 606.328 138.343 606.328 137.885ZM607.09 144.72C607.09 143.804 606.712 143.134 605.955 142.71C605.198 142.285 604.164 142.073 602.853 142.073H596.803V147.316H602.853C604.164 147.316 605.198 147.098 605.955 146.663C606.712 146.227 607.09 145.579 607.09 144.72Z" fill="black"/>
<path d="M614.921 142.274C615.09 143.927 615.7 145.244 616.751 146.227C617.802 147.21 619.169 147.701 620.853 147.701C622.039 147.701 623.095 147.461 624.022 146.981C624.948 146.501 625.643 145.903 626.107 145.189L627.734 146.294C626.943 147.389 625.999 148.226 624.903 148.807C623.807 149.376 622.457 149.661 620.853 149.661C619.632 149.661 618.514 149.46 617.497 149.058C616.48 148.656 615.599 148.098 614.853 147.383C614.118 146.657 613.548 145.797 613.141 144.803C612.734 143.809 612.531 142.704 612.531 141.487C612.531 140.303 612.712 139.214 613.073 138.22C613.446 137.215 613.977 136.35 614.666 135.624C615.367 134.887 616.214 134.317 617.209 133.915C618.203 133.502 619.316 133.296 620.547 133.296C621.892 133.296 623.067 133.519 624.073 133.966C625.078 134.412 625.914 135.032 626.581 135.825C627.259 136.607 627.756 137.545 628.073 138.639C628.4 139.733 628.564 140.945 628.564 142.274H614.921ZM626.107 140.314C625.847 138.606 625.22 137.333 624.225 136.495C623.231 135.657 622.005 135.239 620.547 135.239C619.802 135.239 619.113 135.362 618.48 135.607C617.847 135.842 617.288 136.182 616.802 136.629C616.316 137.076 615.909 137.617 615.582 138.254C615.254 138.879 615.045 139.566 614.955 140.314H626.107Z" fill="black"/>
<path d="M647.343 141.034H645.36V135.624H640.614V147.316H644.174V149.276H634.699V147.316H638.276V135.624H633.53V141.034H631.547V133.664H647.343V141.034Z" fill="black"/>
<path d="M704.324 143.547C703.747 145.423 702.804 146.903 701.493 147.986C700.182 149.069 698.533 149.611 696.544 149.611C694.996 149.611 693.686 149.304 692.612 148.69C691.539 148.075 690.658 147.249 689.968 146.21C689.29 145.172 688.799 143.971 688.494 142.609C688.2 141.247 688.053 139.834 688.053 138.371C688.053 136.908 688.2 135.496 688.494 134.133C688.799 132.771 689.29 131.565 689.968 130.515C690.658 129.465 691.539 128.628 692.612 128.002C693.686 127.366 694.996 127.048 696.544 127.048C697.911 127.048 699.081 127.288 700.053 127.768C701.024 128.248 701.742 128.98 702.205 129.962V127.416H704.188V134.585H702.205C702.205 133.815 702.052 133.089 701.747 132.408C701.454 131.715 701.053 131.118 700.544 130.616C700.036 130.113 699.431 129.722 698.731 129.443C698.041 129.153 697.313 129.007 696.544 129.007C695.347 129.007 694.352 129.287 693.561 129.845C692.782 130.403 692.155 131.135 691.68 132.039C691.206 132.944 690.867 133.949 690.663 135.054C690.471 136.16 690.375 137.266 690.375 138.371C690.375 139.465 690.471 140.571 690.663 141.688C690.867 142.793 691.206 143.787 691.68 144.669C692.155 145.54 692.782 146.261 693.561 146.83C694.352 147.389 695.347 147.668 696.544 147.668C699.301 147.668 701.222 146.032 702.307 142.76L704.324 143.547Z" fill="black"/>
<path d="M722.306 149.276H719.967V135.624H710.493V149.276H708.171V133.664H722.306V149.276Z" fill="black"/>
<path d="M742.085 141.487C742.085 142.704 741.893 143.809 741.508 144.803C741.124 145.797 740.582 146.657 739.881 147.383C739.192 148.098 738.356 148.656 737.373 149.058C736.39 149.46 735.288 149.661 734.068 149.661C733.232 149.661 732.418 149.51 731.628 149.209C730.848 148.907 730.119 148.461 729.441 147.869V155.524H727.119V133.664H729.441V135.105C730.876 133.899 732.418 133.296 734.068 133.296C735.288 133.296 736.39 133.497 737.373 133.899C738.356 134.289 739.192 134.853 739.881 135.59C740.582 136.316 741.124 137.187 741.508 138.204C741.893 139.209 742.085 140.303 742.085 141.487ZM739.763 141.487C739.763 140.616 739.638 139.8 739.39 139.041C739.153 138.271 738.791 137.606 738.305 137.048C737.819 136.489 737.22 136.048 736.509 135.724C735.808 135.401 734.995 135.239 734.068 135.239C733.187 135.239 732.362 135.401 731.594 135.724C730.837 136.048 730.119 136.573 729.441 137.299V145.674C730.119 146.4 730.837 146.92 731.594 147.232C732.362 147.545 733.187 147.701 734.068 147.701C734.995 147.701 735.808 147.539 736.509 147.215C737.22 146.892 737.819 146.451 738.305 145.892C738.791 145.334 739.153 144.681 739.39 143.932C739.638 143.173 739.763 142.358 739.763 141.487Z" fill="black"/>
<path d="M745.203 145.055C745.203 144.072 745.452 143.251 745.949 142.592C746.446 141.922 747.096 141.397 747.898 141.018C748.711 140.627 749.638 140.348 750.678 140.18C751.728 140.001 752.796 139.912 753.881 139.912C754.299 139.912 754.672 139.918 754.999 139.929C755.338 139.94 755.655 139.957 755.948 139.979C756.254 140.001 756.559 140.029 756.864 140.063C757.169 140.096 757.502 140.135 757.864 140.18V139.058C757.864 138.298 757.694 137.673 757.355 137.182C757.028 136.69 756.621 136.305 756.135 136.026C755.649 135.736 755.141 135.535 754.61 135.423C754.078 135.3 753.627 135.239 753.254 135.239C752.079 135.239 750.994 135.395 750 135.708C749.005 136.02 748.079 136.439 747.22 136.964L746.169 135.239C747.118 134.669 748.18 134.206 749.356 133.848C750.542 133.48 751.841 133.296 753.254 133.296C754.112 133.296 754.954 133.407 755.779 133.631C756.615 133.843 757.361 134.178 758.016 134.636C758.683 135.082 759.214 135.674 759.609 136.411C760.005 137.148 760.203 138.03 760.203 139.058V149.276H757.864V146.663C757.457 147.165 756.994 147.606 756.474 147.986C755.965 148.366 755.429 148.678 754.864 148.924C754.299 149.159 753.734 149.337 753.169 149.46C752.604 149.594 752.067 149.661 751.559 149.661C749.469 149.661 747.887 149.265 746.813 148.472C745.74 147.679 745.203 146.54 745.203 145.055ZM751.559 147.701C752.531 147.701 753.401 147.562 754.169 147.282C754.949 146.992 755.609 146.635 756.152 146.21C756.694 145.786 757.112 145.334 757.406 144.854C757.711 144.373 757.864 143.938 757.864 143.547V142.073C757.107 141.961 756.378 141.9 755.677 141.889C754.988 141.878 754.389 141.872 753.881 141.872C753.045 141.872 752.237 141.928 751.457 142.039C750.689 142.151 750.017 142.335 749.44 142.592C748.864 142.838 748.401 143.162 748.051 143.564C747.7 143.966 747.525 144.463 747.525 145.055C747.525 145.713 747.847 146.322 748.491 146.88C749.147 147.428 750.169 147.701 751.559 147.701Z" fill="black"/>
<path d="M779.947 144.82C779.947 146.328 779.383 147.45 778.253 148.187C777.134 148.913 775.524 149.276 773.422 149.276H765.016V133.664H772.897C773.665 133.664 774.422 133.726 775.168 133.848C775.925 133.96 776.597 134.167 777.185 134.468C777.772 134.759 778.253 135.166 778.625 135.691C778.998 136.216 779.185 136.903 779.185 137.751C779.185 138.555 778.987 139.231 778.592 139.778C778.196 140.325 777.422 140.744 776.27 141.034C777.682 141.358 778.648 141.838 779.168 142.475C779.688 143.1 779.947 143.882 779.947 144.82ZM776.863 137.885C776.863 137.405 776.733 137.02 776.473 136.73C776.213 136.428 775.891 136.199 775.507 136.043C775.134 135.875 774.716 135.764 774.253 135.708C773.79 135.652 773.338 135.624 772.897 135.624H767.338V140.113H772.897C773.36 140.113 773.829 140.085 774.304 140.029C774.778 139.974 775.208 139.862 775.592 139.694C775.976 139.516 776.281 139.287 776.507 139.008C776.744 138.717 776.863 138.343 776.863 137.885ZM777.626 144.72C777.626 143.804 777.247 143.134 776.49 142.71C775.733 142.285 774.699 142.073 773.388 142.073H767.338V147.316H773.388C774.699 147.316 775.733 147.098 776.49 146.663C777.247 146.227 777.626 145.579 777.626 144.72Z" fill="black"/>
<path d="M798.896 149.276H795.591L789.133 142.274L786.286 144.854V149.276H783.964V133.664H786.286V142.073L795.286 133.664H798.608L790.693 140.833L798.896 149.276Z" fill="black"/>
<path d="M802.048 145.055C802.048 144.072 802.297 143.251 802.794 142.592C803.291 141.922 803.941 141.397 804.743 141.018C805.557 140.627 806.483 140.348 807.523 140.18C808.573 140.001 809.641 139.912 810.726 139.912C811.144 139.912 811.517 139.918 811.844 139.929C812.183 139.94 812.5 139.957 812.794 139.979C813.099 140.001 813.404 140.029 813.709 140.063C814.014 140.096 814.347 140.135 814.709 140.18V139.058C814.709 138.298 814.539 137.673 814.2 137.182C813.873 136.69 813.466 136.305 812.98 136.026C812.494 135.736 811.986 135.535 811.455 135.423C810.924 135.3 810.472 135.239 810.099 135.239C808.924 135.239 807.839 135.395 806.845 135.708C805.85 136.02 804.924 136.439 804.065 136.964L803.014 135.239C803.963 134.669 805.026 134.206 806.201 133.848C807.387 133.48 808.686 133.296 810.099 133.296C810.957 133.296 811.799 133.407 812.624 133.631C813.46 133.843 814.206 134.178 814.861 134.636C815.528 135.082 816.059 135.674 816.454 136.411C816.85 137.148 817.048 138.03 817.048 139.058V149.276H814.709V146.663C814.302 147.165 813.839 147.606 813.319 147.986C812.81 148.366 812.274 148.678 811.709 148.924C811.144 149.159 810.579 149.337 810.014 149.46C809.449 149.594 808.912 149.661 808.404 149.661C806.314 149.661 804.732 149.265 803.658 148.472C802.585 147.679 802.048 146.54 802.048 145.055ZM808.404 147.701C809.376 147.701 810.246 147.562 811.014 147.282C811.794 146.992 812.455 146.635 812.997 146.21C813.539 145.786 813.957 145.334 814.251 144.854C814.556 144.373 814.709 143.938 814.709 143.547V142.073C813.952 141.961 813.223 141.9 812.522 141.889C811.833 141.878 811.234 141.872 810.726 141.872C809.89 141.872 809.082 141.928 808.302 142.039C807.534 142.151 806.862 142.335 806.285 142.592C805.709 142.838 805.246 143.162 804.896 143.564C804.545 143.966 804.37 144.463 804.37 145.055C804.37 145.713 804.692 146.322 805.336 146.88C805.992 147.428 807.014 147.701 808.404 147.701Z" fill="black"/>
<path d="M357.048 429.333H293.524V416.175H317.501V295.729H293.524V282.571H357.048V295.729H333.184V416.175H357.048V429.333Z" fill="black"/>
<path d="M508.19 429.333H444.667V416.175H468.644V295.729H444.667V282.571H484.326V416.175H508.19V429.333Z" fill="black"/>
<path d="M607.033 446.971C607.033 457.95 608.362 468.248 611.02 477.865L680.616 404.605C676.971 397.79 672.453 392.566 667.061 388.931C661.746 385.297 655.519 383.479 648.381 383.479C635.016 383.479 624.765 389.158 617.627 400.516C610.565 411.799 607.033 427.283 607.033 446.971ZM616.374 490.472C623.891 503.799 634.56 510.462 648.381 510.462C661.442 510.462 671.58 504.821 678.793 493.539C686.007 482.181 689.614 466.658 689.614 446.971C689.614 441.519 689.273 436.37 688.589 431.524C687.906 426.602 686.957 421.907 685.742 417.44L616.374 490.472ZM591.429 446.971C591.429 437.051 592.492 427.473 594.618 418.235C596.744 408.997 600.047 400.819 604.528 393.702C609.008 386.584 614.855 380.905 622.069 376.665C629.359 372.348 638.129 370.19 648.381 370.19C658.632 370.19 667.365 372.348 674.579 376.665C681.869 380.905 687.792 386.584 692.348 393.702C696.904 400.819 700.208 408.997 702.258 418.235C704.308 427.473 705.333 437.051 705.333 446.971C705.333 456.89 704.308 466.469 702.258 475.706C700.208 484.944 696.942 493.084 692.462 500.126C687.982 507.168 682.097 512.847 674.807 517.163C667.593 521.404 658.784 523.524 648.381 523.524C637.978 523.524 629.131 521.404 621.841 517.163C614.627 512.847 608.742 507.168 604.186 500.126C599.706 493.084 596.478 484.944 594.504 475.706C592.454 466.469 591.429 456.89 591.429 446.971Z" fill="black"/>
<path d="M858.667 448.064C858.667 457.842 857.661 467.284 855.65 476.39C853.64 485.495 850.437 493.519 846.043 500.46C841.649 507.402 835.877 513 828.727 517.254C821.652 521.434 813.013 523.524 802.81 523.524C792.606 523.524 783.93 521.434 776.78 517.254C769.705 513 763.933 507.402 759.464 500.46C755.07 493.519 751.905 485.495 749.969 476.39C747.958 467.284 746.952 457.842 746.952 448.064C746.952 438.287 747.958 428.845 749.969 419.739C751.905 410.633 755.108 402.572 759.576 395.556C764.119 388.54 769.928 382.942 777.004 378.762C784.153 374.508 792.755 372.381 802.81 372.381C812.864 372.381 821.429 374.508 828.504 378.762C835.654 382.942 841.425 388.54 845.82 395.556C850.214 402.572 853.453 410.633 855.539 419.739C857.624 428.845 858.667 438.287 858.667 448.064ZM843.25 448.064C843.25 438.436 842.319 429.778 840.457 422.09C838.67 414.328 836.063 407.722 832.637 402.274C829.211 396.825 824.966 392.683 819.902 389.846C814.912 386.935 809.214 385.48 802.81 385.48C794.841 385.48 788.249 387.346 783.036 391.078C777.897 394.81 773.764 399.699 770.636 405.744C767.508 411.79 765.311 418.507 764.045 425.897C762.853 433.286 762.257 440.675 762.257 448.064C762.257 455.379 762.853 462.768 764.045 470.232C765.311 477.621 767.508 484.301 770.636 490.272C773.764 496.169 777.897 501.02 783.036 504.827C788.249 508.559 794.841 510.425 802.81 510.425C810.704 510.425 817.258 508.559 822.471 504.827C827.685 501.02 831.855 496.169 834.983 490.272C838.111 484.301 840.271 477.621 841.463 470.232C842.654 462.768 843.25 455.379 843.25 448.064Z" fill="black"/>
<path fill-rule="evenodd" clip-rule="evenodd" d="M197.143 663.714V194.952H201.524V663.714H197.143Z" fill="black"/>
<path fill-rule="evenodd" clip-rule="evenodd" d="M26.2857 216.857H31.4025V220.336H29.8452V221.592H26.2857V216.857ZM38.0766 216.857H44.7507V220.336H38.0766V216.857ZM51.4248 216.857H58.0989V220.336H51.4248V216.857ZM64.773 216.857H71.4471V220.336H64.773V216.857ZM78.1212 216.857H83.2381V221.592H79.6785V220.336H78.1212V216.857ZM26.2857 233.576V227.584H29.8452V233.576H26.2857ZM83.2381 227.584V233.576H79.6785V227.584H83.2381ZM26.2857 245.559V239.567H29.8452V245.559H26.2857ZM83.2381 239.567V245.559H79.6785V239.567H83.2381ZM26.2857 251.55H29.8452V252.807H31.4025V256.286H26.2857V251.55ZM83.2381 251.55V256.286H78.1212V252.807H79.6785V251.55H83.2381ZM44.7507 256.286H38.0766V252.807H44.7507V256.286ZM58.0989 256.286H51.4248V252.807H58.0989V256.286ZM71.4471 256.286H64.773V252.807H71.4471V256.286Z" fill="black"/>
<path fill-rule="evenodd" clip-rule="evenodd" d="M145.084 210.286L170.857 236.888L145.084 262.857L125.371 242.995C125.16 243.066 124.934 243.136 124.728 243.2C124.627 243.231 124.531 243.261 124.443 243.289C123.68 243.531 122.947 243.81 122.266 244.329C121.008 245.287 119.407 247.484 119.407 253.509C119.407 255.547 118.946 257.391 117.571 258.411C116.074 259.521 114.313 259.103 113.089 258.437C110.641 257.105 108.317 253.854 107.757 250.333C107.242 247.092 107.031 240.842 108.099 234.662C109.15 228.583 111.539 221.989 116.724 218.782C121.424 215.875 125.307 214.742 128.957 214.996C132.094 215.214 134.851 216.448 137.569 218.042L145.084 210.286ZM135.086 220.604C132.845 219.355 130.844 218.577 128.71 218.429C126.051 218.244 122.908 219.023 118.589 221.695C114.755 224.066 112.573 229.327 111.551 235.239C110.546 241.049 110.759 246.924 111.217 249.802M135.086 220.604L119.31 236.888L122.652 240.256C121.892 240.534 120.998 240.941 120.121 241.608C117.676 243.471 115.906 246.915 115.906 253.509C115.906 255.129 115.535 255.588 115.472 255.654C115.463 255.654 115.449 255.655 115.429 255.654C115.324 255.648 115.107 255.601 114.784 255.426C113.391 254.668 111.63 252.4 111.217 249.802M145.084 215.276L124.173 236.859L129.661 242.389L149.923 220.271L145.084 215.276ZM152.344 222.771L132.111 244.858L145.084 257.929L165.994 236.859L152.344 222.771Z" fill="black"/>
<path fill-rule="evenodd" clip-rule="evenodd" d="M57.3407 286.952L78.8572 290.654V304.85L47.7891 335.143L30.6667 319.545V306.562L57.3407 286.952ZM58.1941 290.621L35.3069 307.447L47.6371 316.54L73.3403 293.227L58.1941 290.621ZM75.415 296.014L49.4702 319.547V328.674L75.415 303.377V296.014ZM46.028 328.86V319.655L34.1089 310.865V318.002L46.028 328.86Z" fill="black"/>
<path fill-rule="evenodd" clip-rule="evenodd" d="M123.762 285.979C116.705 285.979 110.984 291.318 110.984 297.905C110.984 304.491 116.705 309.831 123.762 309.831C130.819 309.831 136.54 304.491 136.54 297.905C136.54 291.318 130.819 285.979 123.762 285.979ZM107.333 297.905C107.333 289.436 114.689 282.571 123.762 282.571C132.835 282.571 140.19 289.436 140.19 297.905C140.19 306.373 132.835 313.238 123.762 313.238C114.689 313.238 107.333 306.373 107.333 297.905Z" fill="black"/>
<path fill-rule="evenodd" clip-rule="evenodd" d="M131.429 343.905H144.571V376.762H131.429V343.905ZM135.013 347.304V373.363H140.987V347.304H135.013Z" fill="black"/>
<path fill-rule="evenodd" clip-rule="evenodd" d="M131.901 372.381L133.932 375.338L125.469 381.647H148.861L141.326 375.271L143.528 372.448L155.524 382.6V409.619H118.286V382.531L131.901 372.381ZM152.033 385.284H121.777V405.982H129.33V395.633H132.821V405.982H140.681V395.633H144.172V405.982H152.033V385.284Z" fill="black"/>
<path fill-rule="evenodd" clip-rule="evenodd" d="M152.268 473.143L118.286 436.961L121.542 433.714L155.524 469.896L152.268 473.143Z" fill="black"/>
<path fill-rule="evenodd" clip-rule="evenodd" d="M26.2857 488.476H81.0476V521.333H26.2857V488.476ZM29.7811 491.875V517.934H77.5521V491.875H29.7811Z" fill="black"/>
<path fill-rule="evenodd" clip-rule="evenodd" d="M118.685 496.004C113.457 498.571 110.862 501.811 110.862 504.905C110.862 507.999 113.457 511.238 118.685 513.806C123.818 516.326 131.031 517.934 139.095 517.934C147.159 517.934 154.373 516.326 159.505 513.806C164.734 511.238 167.328 507.999 167.328 504.905C167.328 501.811 164.734 498.571 159.505 496.004C154.373 493.484 147.159 491.875 139.095 491.875C131.031 491.875 123.818 493.484 118.685 496.004ZM117.082 492.976C122.807 490.165 130.592 488.476 139.095 488.476C147.598 488.476 155.383 490.165 161.108 492.976C166.736 495.739 170.857 499.864 170.857 504.905C170.857 509.945 166.736 514.07 161.108 516.834C155.383 519.645 147.598 521.333 139.095 521.333C130.592 521.333 122.807 519.645 117.082 516.834C111.454 514.07 107.333 509.945 107.333 504.905C107.333 499.864 111.454 495.739 117.082 492.976Z" fill="black"/>
<path d="M35.0476 543.238H76.6666V584.857H35.0476V543.238Z" fill="black"/>
<path fill-rule="evenodd" clip-rule="evenodd" d="M32.8571 541.047H78.8571V584.857H32.8571V541.047ZM36.3956 544.417V581.487H75.3187V544.417H36.3956Z" fill="black"/>
<path d="M118.286 543.238H159.905V584.857H118.286V543.238Z" fill="#075BFF"/>
<path fill-rule="evenodd" clip-rule="evenodd" d="M118.286 541.047H162.095V584.857H118.286V541.047ZM121.656 544.417V581.487H158.725V544.417H121.656Z" fill="black"/>
<path d="M35.0476 604.571H76.6666V646.19H35.0476V604.571Z" fill="#FF5C00"/>
<path fill-rule="evenodd" clip-rule="evenodd" d="M32.8571 602.381H78.8571V648.381H32.8571V602.381ZM36.3956 605.919V644.842H75.3187V605.919H36.3956Z" fill="black"/>
<path d="M118.286 604.571H159.905V646.19H118.286V604.571Z" fill="#DFE9DD"/>
<path fill-rule="evenodd" clip-rule="evenodd" d="M118.286 602.381H162.095V648.381H118.286V602.381ZM121.656 605.919V644.842H158.725V605.919H121.656Z" fill="black"/>
<path fill-rule="evenodd" clip-rule="evenodd" d="M460 495.048V453.429H466.571V495.048H460Z" fill="#FF5C00"/>
<path fill-rule="evenodd" clip-rule="evenodd" d="M311.889 494.324V452.705H318.461V494.324H311.889Z" fill="#FF5C00"/>
<path fill-rule="evenodd" clip-rule="evenodd" d="M481.905 495.048V453.429H488.476V495.048H481.905Z" fill="#FF5C00"/>
<path fill-rule="evenodd" clip-rule="evenodd" d="M333.794 494.324V452.705H340.366V494.324H333.794Z" fill="#FF5C00"/>
<path fill-rule="evenodd" clip-rule="evenodd" d="M492.857 268.699C481.566 268.699 472.413 277.852 472.413 289.143C472.413 300.434 481.566 309.587 492.857 309.587C504.148 309.587 513.302 300.434 513.302 289.143C513.302 277.852 504.148 268.699 492.857 268.699ZM466.571 289.143C466.571 274.626 478.34 262.857 492.857 262.857C507.374 262.857 519.143 274.626 519.143 289.143C519.143 303.66 507.374 315.429 492.857 315.429C478.34 315.429 466.571 303.66 466.571 289.143Z" fill="#FF5C00"/>
<path fill-rule="evenodd" clip-rule="evenodd" d="M649.476 419.672C635.067 419.672 623.386 431.353 623.386 445.762C623.386 460.171 635.067 471.852 649.476 471.852C663.885 471.852 675.566 460.171 675.566 445.762C675.566 431.353 663.885 419.672 649.476 419.672ZM617.714 445.762C617.714 428.22 631.935 414 649.476 414C667.018 414 681.238 428.22 681.238 445.762C681.238 463.304 667.018 477.524 649.476 477.524C631.935 477.524 617.714 463.304 617.714 445.762Z" fill="#FF5C00"/>
<path fill-rule="evenodd" clip-rule="evenodd" d="M341.714 268.699C330.423 268.699 321.27 277.852 321.27 289.143C321.27 300.434 330.423 309.587 341.714 309.587C353.005 309.587 362.159 300.434 362.159 289.143C362.159 277.852 353.005 268.699 341.714 268.699ZM315.429 289.143C315.429 274.626 327.197 262.857 341.714 262.857C356.231 262.857 368 274.626 368 289.143C368 303.66 356.231 315.429 341.714 315.429C327.197 315.429 315.429 303.66 315.429 289.143Z" fill="#FF5C00"/>
<path fill-rule="evenodd" clip-rule="evenodd" d="M788.484 425.204L805.501 443.541C806.546 444.666 806.546 446.491 805.501 447.616L788.484 465.952C787.439 467.078 785.746 467.078 784.702 465.952C783.658 464.827 783.658 463.003 784.702 461.878L797.155 448.46H676.324V442.697H797.155L784.702 429.279C783.658 428.154 783.658 426.33 784.702 425.204C785.746 424.079 787.439 424.079 788.484 425.204Z" fill="#FF5C00"/>
<path d="M627.137 350.115H624.853V343.555H615.601V350.115H613.333V335.488H615.601V341.719H624.853V335.488H627.137V350.115Z" fill="black"/>
<path d="M646.85 342.849C646.85 343.989 646.657 345.025 646.271 345.956C645.895 346.887 645.349 347.688 644.632 348.357C643.926 349.017 643.076 349.534 642.083 349.911C641.09 350.288 639.981 350.476 638.756 350.476C637.554 350.476 636.456 350.288 635.463 349.911C634.469 349.534 633.614 349.017 632.897 348.357C632.191 347.688 631.645 346.887 631.258 345.956C630.883 345.025 630.696 343.989 630.696 342.849C630.696 341.74 630.883 340.709 631.258 339.757C631.645 338.794 632.191 337.978 632.897 337.309C633.614 336.629 634.469 336.1 635.463 335.724C636.456 335.336 637.554 335.143 638.756 335.143C639.981 335.143 641.09 335.336 642.083 335.724C643.076 336.1 643.926 336.629 644.632 337.309C645.349 337.978 645.895 338.794 646.271 339.757C646.657 340.709 646.85 341.74 646.85 342.849ZM644.582 342.849C644.582 342.012 644.45 341.243 644.185 340.542C643.931 339.83 643.551 339.208 643.043 338.674C642.536 338.14 641.918 337.722 641.189 337.418C640.472 337.115 639.661 336.963 638.756 336.963C637.851 336.963 637.035 337.115 636.307 337.418C635.589 337.722 634.983 338.14 634.486 338.674C633.989 339.208 633.609 339.83 633.344 340.542C633.09 341.243 632.963 342.012 632.963 342.849C632.963 343.686 633.09 344.46 633.344 345.171C633.609 345.872 633.989 346.479 634.486 346.992C634.983 347.505 635.589 347.908 636.307 348.2C637.035 348.493 637.851 348.64 638.756 348.64C639.661 348.64 640.472 348.493 641.189 348.2C641.918 347.908 642.536 347.505 643.043 346.992C643.551 346.479 643.931 345.872 644.185 345.171C644.45 344.46 644.582 343.686 644.582 342.849Z" fill="black"/>
<path d="M664.146 335.488V350.115H661.862V337.324H654.894V346.866C654.894 347.442 654.789 347.955 654.579 348.405C654.381 348.854 654.11 349.231 653.768 349.534C653.426 349.838 653.029 350.068 652.577 350.225C652.124 350.392 651.65 350.476 651.153 350.476C650.226 350.476 649.548 350.345 649.117 350.084L649.564 348.373C649.719 348.467 649.89 348.535 650.077 348.577C650.276 348.619 650.535 348.64 650.855 348.64C652.025 348.64 652.61 348.049 652.61 346.866V335.488H664.146Z" fill="black"/>
<path d="M671.114 341.342H677.023C679.076 341.342 680.653 341.693 681.757 342.394C682.871 343.084 683.429 344.188 683.429 345.705C683.429 347.233 682.877 348.352 681.773 349.064C680.681 349.765 679.109 350.115 677.056 350.115H668.847V335.488H671.114V341.342ZM681.161 345.705C681.161 344.899 680.791 344.277 680.052 343.837C679.313 343.398 678.303 343.178 677.023 343.178H671.114V348.279H677.023C678.303 348.279 679.313 348.054 680.052 347.604C680.791 347.154 681.161 346.521 681.161 345.705Z" fill="black"/>
<path d="M756.829 343.173C756.829 344.926 757.322 346.332 758.307 347.39C759.292 348.437 760.649 348.961 762.379 348.961C763.18 348.961 763.919 348.829 764.595 348.564C765.282 348.289 765.872 347.897 766.364 347.39C766.857 346.872 767.235 346.26 767.498 345.555C767.773 344.838 767.911 344.044 767.911 343.173C767.911 341.409 767.43 340.004 766.468 338.956C765.505 337.898 764.143 337.369 762.379 337.369C760.477 337.369 759.074 337.898 758.17 338.956C757.276 340.004 756.829 341.409 756.829 343.173ZM754.252 339.75C754.252 338.097 754.43 336.586 754.785 335.219C755.152 333.852 755.661 332.678 756.314 331.697C756.978 330.716 757.763 329.949 758.668 329.398C759.573 328.847 760.575 328.571 761.674 328.571C762.19 328.571 762.625 328.621 762.98 328.72C763.335 328.819 763.65 328.941 763.925 329.084C764.211 329.216 764.48 329.332 764.732 329.431C764.996 329.531 765.305 329.58 765.66 329.58C766.13 329.58 766.525 329.503 766.846 329.349C767.178 329.194 767.579 328.935 768.048 328.571L769.268 329.927C768.775 330.379 768.197 330.76 767.533 331.068C766.868 331.366 766.244 331.515 765.66 331.515C765.213 331.515 764.824 331.465 764.492 331.366C764.16 331.267 763.85 331.151 763.564 331.019C763.289 330.876 763.003 330.754 762.705 330.655C762.419 330.556 762.075 330.506 761.674 330.506C760.976 330.506 760.317 330.694 759.699 331.068C759.092 331.432 758.559 331.967 758.101 332.673C757.643 333.367 757.282 334.21 757.018 335.203C756.766 336.195 756.64 337.314 756.64 338.56C756.927 338.063 757.276 337.622 757.688 337.237C758.101 336.851 758.559 336.526 759.063 336.261C759.567 335.985 760.105 335.781 760.678 335.649C761.251 335.517 761.817 335.451 762.379 335.451C763.501 335.451 764.543 335.616 765.505 335.947C766.468 336.266 767.298 336.752 767.997 337.402C768.707 338.041 769.262 338.841 769.663 339.8C770.064 340.759 770.264 341.883 770.264 343.173C770.264 344.254 770.064 345.268 769.663 346.216C769.262 347.164 768.707 347.985 767.997 348.68C767.298 349.364 766.468 349.904 765.505 350.301C764.543 350.698 763.501 350.896 762.379 350.896C759.687 350.896 757.66 349.992 756.297 348.184C754.934 346.376 754.252 343.565 754.252 339.75Z" fill="black"/>
<path d="M789.97 335.103L781.311 354.418C780.865 355.499 780.235 356.204 779.421 356.535C778.608 356.877 777.709 357.048 776.724 357.048C775.625 357.048 774.525 356.855 773.426 356.469L773.889 354.517C774.428 354.738 774.955 354.892 775.47 354.981C775.985 355.08 776.403 355.129 776.724 355.129C777.503 355.129 778.036 354.947 778.322 354.584C778.62 354.22 778.877 353.79 779.095 353.294L780.074 350.962L772.927 335.103H775.711L781.483 348.581L787.153 335.103H789.97Z" fill="black"/>
<path d="M808.645 350.516H805.295L798.749 343.603L795.863 346.15V350.516H793.509V335.103H795.863V343.405L804.986 335.103H808.353L800.33 342.181L808.645 350.516Z" fill="black"/>
<path d="M827.852 346.117C827.852 347.605 827.28 348.713 826.134 349.441C825.001 350.157 823.368 350.516 821.238 350.516H812.717V335.103H820.705C821.484 335.103 822.252 335.164 823.008 335.285C823.775 335.396 824.456 335.6 825.052 335.897C825.648 336.184 826.134 336.586 826.512 337.104C826.89 337.622 827.079 338.3 827.079 339.138C827.079 339.932 826.879 340.599 826.478 341.139C826.077 341.679 825.293 342.093 824.124 342.38C825.556 342.699 826.535 343.173 827.062 343.802C827.589 344.419 827.852 345.191 827.852 346.117ZM824.726 339.271C824.726 338.797 824.594 338.416 824.33 338.13C824.067 337.832 823.741 337.606 823.351 337.452C822.973 337.286 822.549 337.176 822.08 337.121C821.61 337.066 821.152 337.038 820.705 337.038H815.07V341.47H820.705C821.175 341.47 821.65 341.442 822.131 341.387C822.612 341.332 823.048 341.222 823.437 341.057C823.827 340.88 824.136 340.654 824.365 340.379C824.605 340.092 824.726 339.723 824.726 339.271ZM825.499 346.018C825.499 345.114 825.115 344.452 824.348 344.033C823.58 343.614 822.532 343.405 821.204 343.405H815.07V348.581H821.204C822.532 348.581 823.58 348.366 824.348 347.936C825.115 347.506 825.499 346.867 825.499 346.018Z" fill="black"/>
<path d="M831.048 346.348C831.048 345.378 831.3 344.568 831.804 343.917C832.308 343.256 832.966 342.738 833.78 342.363C834.604 341.977 835.543 341.702 836.597 341.536C837.662 341.36 838.745 341.272 839.844 341.272C840.268 341.272 840.646 341.277 840.978 341.288C841.322 341.299 841.642 341.316 841.94 341.338C842.249 341.36 842.559 341.387 842.868 341.42C843.177 341.453 843.515 341.492 843.882 341.536V340.428C843.882 339.679 843.71 339.061 843.366 338.576C843.034 338.091 842.622 337.711 842.129 337.435C841.637 337.148 841.121 336.95 840.583 336.84C840.045 336.718 839.587 336.658 839.209 336.658C838.017 336.658 836.918 336.812 835.91 337.121C834.902 337.43 833.963 337.843 833.092 338.361L832.027 336.658C832.989 336.096 834.066 335.638 835.257 335.285C836.46 334.922 837.777 334.74 839.209 334.74C840.079 334.74 840.932 334.85 841.768 335.07C842.616 335.28 843.372 335.611 844.036 336.063C844.712 336.504 845.25 337.088 845.651 337.815C846.052 338.543 846.252 339.414 846.252 340.428V350.516H843.882V347.936C843.469 348.432 843 348.867 842.473 349.242C841.957 349.617 841.413 349.926 840.841 350.168C840.268 350.4 839.695 350.576 839.123 350.698C838.55 350.83 838.006 350.896 837.491 350.896C835.372 350.896 833.768 350.505 832.68 349.722C831.592 348.939 831.048 347.815 831.048 346.348ZM837.491 348.961C838.476 348.961 839.357 348.823 840.136 348.548C840.927 348.261 841.597 347.908 842.146 347.489C842.696 347.07 843.12 346.624 843.418 346.15C843.727 345.676 843.882 345.246 843.882 344.86V343.405C843.114 343.295 842.375 343.234 841.665 343.223C840.967 343.212 840.36 343.206 839.844 343.206C838.997 343.206 838.178 343.262 837.387 343.372C836.609 343.482 835.927 343.664 835.343 343.917C834.759 344.16 834.289 344.48 833.934 344.877C833.579 345.273 833.402 345.764 833.402 346.348C833.402 346.999 833.728 347.6 834.381 348.151C835.045 348.691 836.082 348.961 837.491 348.961Z" fill="black"/>
</svg>
