<svg width="713" height="477" viewBox="0 0 713 477" fill="none" xmlns="http://www.w3.org/2000/svg">
<path d="M5 5H710V473H5V5Z" fill="#DFE9DD"/>
<path d="M670 126V475M6 430H51M711 430H51M51 430V475" stroke="black" stroke-width="3"/>
<path d="M642 439L658.5 451L642 460.5" stroke="black" stroke-width="3"/>
<path d="M37.5 439L21 451L37.5 460.5" stroke="black" stroke-width="3"/>
<path d="M677 155L687.5 136L698 155" stroke="black" stroke-width="3"/>
<path d="M698 441L687.5 460L677 441" stroke="black" stroke-width="3"/>
<path d="M632 429V473" stroke="black" stroke-width="3"/>
<path d="M10 126H703" stroke="black" stroke-width="3"/>
<path fill-rule="evenodd" clip-rule="evenodd" d="M0 0H713V477H0V0ZM10.176 9.57831V467.422H702.824V9.57831H10.176Z" fill="#075BFF"/>
<path d="M5.14192 5.14172H709.572V63.6417H5.14192V5.14172Z" fill="#075BFF"/>
<path fill-rule="evenodd" clip-rule="evenodd" d="M595 40.4688H551V34.4688H595V40.4688Z" fill="#DFE9DD"/>
<path fill-rule="evenodd" clip-rule="evenodd" d="M614 16.4688H650V52.4688H614V16.4688ZM619.625 28.238V46.4688H644.375V28.238H619.625Z" fill="#DFE9DD"/>
<path fill-rule="evenodd" clip-rule="evenodd" d="M696.639 50.3643L667.192 20.7284L671.376 16.5715L700.822 46.2074L696.639 50.3643Z" fill="#DFE9DD"/>
<path fill-rule="evenodd" clip-rule="evenodd" d="M667.563 47.0044L695.852 16.2612L700.192 20.2546L671.903 50.9978L667.563 47.0044Z" fill="#DFE9DD"/>
<path d="M10.8613 24.0605H14.5V39.8633L20.9512 24.0605H25.5215V47H21.8828V30.3711L15.0801 47H10.8613V24.0605ZM29.6523 43.7305C30.3203 43.3672 30.8652 42.9512 31.2871 42.4824C31.709 42.0137 32.0371 41.4219 32.2715 40.707C32.5176 39.9805 32.6875 39.1016 32.7812 38.0703C32.875 37.0391 32.9219 35.8027 32.9219 34.3613V30.6172H43.3633V43.7305H46.0352V52.6074H42.748V47H32.9219V52.6074H29.6523V43.7305ZM36.5605 35.082C36.5605 35.75 36.5371 36.5059 36.4902 37.3496C36.4434 38.1934 36.3262 39.0254 36.1387 39.8457C35.9629 40.6543 35.6875 41.4102 35.3125 42.1133C34.9492 42.8047 34.4277 43.3438 33.748 43.7305H39.7246V33.6758H36.5605V35.082ZM52.6445 40.1973C52.8203 41.3223 53.3535 42.2598 54.2441 43.0098C55.1465 43.748 56.3535 44.1172 57.8652 44.1172C59.0488 44.1172 60.0742 43.9355 60.9414 43.5723C61.8203 43.1973 62.5762 42.7051 63.209 42.0957L65.0723 44.6621C64.0176 45.7168 62.8984 46.4375 61.7148 46.8242C60.543 47.2109 59.2598 47.4043 57.8652 47.4043C56.5996 47.4043 55.4219 47.1934 54.332 46.7715C53.2422 46.3496 52.2988 45.7637 51.502 45.0137C50.7051 44.252 50.0781 43.3496 49.6211 42.3066C49.1758 41.2637 48.9531 40.1035 48.9531 38.8262C48.9531 37.584 49.1582 36.4414 49.5684 35.3984C49.9902 34.3438 50.5762 33.4355 51.3262 32.6738C52.0879 31.9004 52.9961 31.3027 54.0508 30.8809C55.1055 30.4473 56.2715 30.2305 57.5488 30.2305C58.873 30.2305 60.0742 30.459 61.1523 30.916C62.2305 31.3613 63.1504 32.0117 63.9121 32.8672C64.6855 33.7227 65.2891 34.7715 65.7227 36.0137C66.1562 37.2441 66.373 38.6387 66.373 40.1973H52.6445ZM62.2598 36.998C62.0723 35.9434 61.5273 35.0996 60.625 34.4668C59.7227 33.8223 58.6973 33.5 57.5488 33.5C56.4004 33.5 55.3691 33.8223 54.4551 34.4668C53.541 35.0996 52.9902 35.9434 52.8027 36.998H62.2598ZM69.8184 30.6172H73.457V41.8848L79.9082 30.6172H84.4785V47H80.8398V35.082L74.0371 47H69.8184V30.6172ZM125.066 38.8262C125.066 40.1035 124.861 41.2637 124.451 42.3066C124.053 43.3496 123.473 44.252 122.711 45.0137C121.961 45.7637 121.059 46.3496 120.004 46.7715C118.949 47.1934 117.771 47.4043 116.471 47.4043C115.193 47.4043 114.027 47.1934 112.973 46.7715C111.918 46.3496 111.01 45.7637 110.248 45.0137C109.498 44.252 108.918 43.3496 108.508 42.3066C108.109 41.2637 107.91 40.1035 107.91 38.8262C107.91 37.584 108.109 36.4355 108.508 35.3809C108.918 34.3145 109.498 33.4004 110.248 32.6387C111.01 31.8652 111.918 31.2734 112.973 30.8633C114.027 30.4414 115.193 30.2305 116.471 30.2305C117.771 30.2305 118.949 30.4414 120.004 30.8633C121.059 31.2734 121.961 31.8652 122.711 32.6387C123.473 33.4004 124.053 34.3145 124.451 35.3809C124.861 36.4355 125.066 37.584 125.066 38.8262ZM121.445 38.8262C121.445 38.0879 121.328 37.3906 121.094 36.7344C120.871 36.0664 120.543 35.498 120.109 35.0293C119.676 34.5605 119.148 34.1914 118.527 33.9219C117.918 33.6406 117.232 33.5 116.471 33.5C115.697 33.5 115.006 33.6406 114.396 33.9219C113.787 34.1914 113.271 34.5605 112.85 35.0293C112.428 35.498 112.1 36.0664 111.865 36.7344C111.643 37.3906 111.531 38.0879 111.531 38.8262C111.531 39.5996 111.643 40.3027 111.865 40.9355C112.1 41.5684 112.428 42.125 112.85 42.6055C113.271 43.0859 113.787 43.4609 114.396 43.7305C115.006 43.9883 115.697 44.1172 116.471 44.1172C117.232 44.1172 117.918 43.9883 118.527 43.7305C119.148 43.4609 119.676 43.0859 120.109 42.6055C120.543 42.125 120.871 41.5684 121.094 40.9355C121.328 40.3027 121.445 39.5996 121.445 38.8262ZM131.764 39.1953C131.764 40.6836 132.156 41.8789 132.941 42.7812C133.738 43.6719 134.822 44.1172 136.193 44.1172C137.494 44.1172 138.561 43.6719 139.393 42.7812C140.236 41.8789 140.658 40.6836 140.658 39.1953C140.658 37.6836 140.26 36.4824 139.463 35.5918C138.678 34.7012 137.588 34.2559 136.193 34.2559C134.705 34.2559 133.592 34.7012 132.854 35.5918C132.127 36.4824 131.764 37.6836 131.764 39.1953ZM127.914 35.5566C127.914 33.7988 128.096 32.1934 128.459 30.7402C128.834 29.2871 129.355 28.0391 130.023 26.9961C130.703 25.9531 131.506 25.1387 132.432 24.5527C133.357 23.9668 134.383 23.6738 135.508 23.6738C136.059 23.6738 136.516 23.7266 136.879 23.832C137.242 23.9375 137.564 24.0664 137.846 24.2188C138.139 24.3594 138.408 24.4824 138.654 24.5879C138.912 24.6934 139.223 24.7461 139.586 24.7461C140.066 24.7461 140.471 24.6641 140.799 24.5C141.139 24.3359 141.549 24.0605 142.029 23.6738L143.682 26.082C143.248 26.6094 142.662 27.0664 141.924 27.4531C141.197 27.8398 140.418 28.0332 139.586 28.0332C139.023 28.0332 138.572 27.9805 138.232 27.875C137.904 27.7578 137.6 27.6289 137.318 27.4883C137.049 27.3477 136.779 27.2246 136.51 27.1191C136.252 27.002 135.918 26.9434 135.508 26.9434C134.957 26.9434 134.447 27.084 133.979 27.3652C133.51 27.6348 133.094 28.0684 132.73 28.666C132.379 29.252 132.098 30.0078 131.887 30.9336C131.688 31.8477 131.588 32.9668 131.588 34.291C132.045 33.2129 132.684 32.3926 133.504 31.8301C134.336 31.2676 135.244 30.9863 136.229 30.9863C137.377 30.9863 138.443 31.1621 139.428 31.5137C140.412 31.8535 141.262 32.3691 141.977 33.0605C142.703 33.7402 143.271 34.5898 143.682 35.6094C144.092 36.6289 144.297 37.8242 144.297 39.1953C144.297 40.3438 144.092 41.4219 143.682 42.4297C143.271 43.4375 142.703 44.3105 141.977 45.0488C141.262 45.7754 140.412 46.3496 139.428 46.7715C138.443 47.1934 137.377 47.4043 136.229 47.4043C133.475 47.4043 131.4 46.4434 130.006 44.5215C128.611 42.5996 127.914 39.6113 127.914 35.5566ZM148.428 30.6172H152.066V32.0938C152.758 31.4727 153.455 31.0098 154.158 30.7051C154.873 30.3887 155.688 30.2305 156.602 30.2305C157.656 30.2305 158.635 30.4473 159.537 30.8809C160.439 31.3027 161.213 31.8945 161.857 32.6562C162.502 33.4062 163.012 34.3145 163.387 35.3809C163.762 36.4355 163.949 37.584 163.949 38.8262C163.949 40.0801 163.762 41.2344 163.387 42.2891C163.012 43.3438 162.502 44.252 161.857 45.0137C161.213 45.7637 160.439 46.3496 159.537 46.7715C158.635 47.1934 157.656 47.4043 156.602 47.4043C155.688 47.4043 154.873 47.2402 154.158 46.9121C153.455 46.584 152.758 46.1094 152.066 45.4883V53.5566H148.428V30.6172ZM152.066 42.6055C152.5 43.0859 153.051 43.4609 153.719 43.7305C154.398 43.9883 155.049 44.1172 155.67 44.1172C157.041 44.1172 158.154 43.6309 159.01 42.6582C159.877 41.6855 160.311 40.4082 160.311 38.8262C160.311 37.2441 159.877 35.9609 159.01 34.9766C158.154 33.9922 157.041 33.5 155.67 33.5C155.049 33.5 154.398 33.6289 153.719 33.8867C153.051 34.1328 152.5 34.4961 152.066 34.9766V42.6055ZM167.148 42.2891C167.148 41.3281 167.406 40.4902 167.922 39.7754C168.438 39.0488 169.111 38.4453 169.943 37.9648C170.787 37.4844 171.748 37.127 172.826 36.8926C173.916 36.6465 175.023 36.5234 176.148 36.5234C176.77 36.5234 177.303 36.5352 177.748 36.5586C178.193 36.582 178.645 36.6172 179.102 36.6641V36.0137C179.102 35.1582 178.768 34.5195 178.1 34.0977C177.443 33.6758 176.576 33.4648 175.498 33.4648C174.514 33.4648 173.512 33.6055 172.492 33.8867C171.473 34.1562 170.506 34.5547 169.592 35.082L168.115 32.2344C169.193 31.6133 170.348 31.127 171.578 30.7754C172.82 30.4121 174.127 30.2305 175.498 30.2305C176.389 30.2305 177.262 30.3301 178.117 30.5293C178.984 30.7285 179.758 31.0566 180.438 31.5137C181.129 31.9707 181.68 32.5684 182.09 33.3066C182.5 34.0332 182.705 34.9355 182.705 36.0137V47H179.102V44.5918C178.527 45.4824 177.678 46.1738 176.553 46.666C175.439 47.1582 174.238 47.4043 172.949 47.4043C172.152 47.4043 171.396 47.293 170.682 47.0703C169.979 46.8594 169.369 46.5371 168.854 46.1035C168.338 45.6699 167.922 45.1367 167.605 44.5039C167.301 43.8594 167.148 43.1211 167.148 42.2891ZM173.881 44.1523C174.596 44.1523 175.264 44.0645 175.885 43.8887C176.518 43.7012 177.074 43.4492 177.555 43.1328C178.035 42.8047 178.41 42.4121 178.68 41.9551C178.961 41.498 179.102 40.9941 179.102 40.4434V39.8281C178.527 39.7344 177.988 39.6816 177.484 39.6699C176.98 39.6582 176.535 39.6523 176.148 39.6523C174.367 39.6523 173.02 39.8867 172.105 40.3555C171.203 40.8242 170.752 41.4043 170.752 42.0957C170.752 43.4668 171.795 44.1523 173.881 44.1523ZM202.568 35.1172C202.568 35.9141 202.258 36.6641 201.637 37.3672C201.027 38.0586 200.148 38.498 199 38.6855C200.078 38.8965 200.945 39.3535 201.602 40.0566C202.27 40.748 202.604 41.5156 202.604 42.3594C202.604 43.1445 202.393 43.8535 201.971 44.4863C201.549 45.1074 200.969 45.6348 200.23 46.0684C199.504 46.502 198.643 46.8301 197.646 47.0527C196.65 47.2871 195.566 47.4043 194.395 47.4043C192.52 47.4043 190.973 47.1172 189.754 46.543C188.547 45.957 187.574 45.0781 186.836 43.9062L189.684 41.9902C190.012 42.623 190.604 43.1387 191.459 43.5371C192.314 43.9238 193.316 44.1172 194.465 44.1172C195.812 44.1172 196.896 43.9355 197.717 43.5723C198.549 43.1973 198.965 42.6934 198.965 42.0605C198.965 41.6152 198.66 41.1992 198.051 40.8125C197.441 40.4258 196.521 40.2324 195.291 40.2324H192.689V36.9629H195.256C196.486 36.9629 197.406 36.8047 198.016 36.4883C198.625 36.1719 198.93 35.8145 198.93 35.416C198.93 34.8301 198.537 34.3672 197.752 34.0273C196.979 33.6758 195.941 33.5 194.641 33.5C192.414 33.5 190.855 34.1973 189.965 35.5918L187.311 33.7461C188.025 32.5742 188.969 31.6953 190.141 31.1094C191.324 30.5234 192.812 30.2305 194.605 30.2305C195.742 30.2305 196.791 30.3477 197.752 30.582C198.725 30.8047 199.562 31.127 200.266 31.5488C200.98 31.959 201.543 32.4746 201.953 33.0957C202.363 33.7051 202.568 34.3789 202.568 35.1172ZM223.328 38.8262C223.328 40.1035 223.123 41.2637 222.713 42.3066C222.314 43.3496 221.734 44.252 220.973 45.0137C220.223 45.7637 219.32 46.3496 218.266 46.7715C217.211 47.1934 216.033 47.4043 214.732 47.4043C213.455 47.4043 212.289 47.1934 211.234 46.7715C210.18 46.3496 209.271 45.7637 208.51 45.0137C207.76 44.252 207.18 43.3496 206.77 42.3066C206.371 41.2637 206.172 40.1035 206.172 38.8262C206.172 37.584 206.371 36.4355 206.77 35.3809C207.18 34.3145 207.76 33.4004 208.51 32.6387C209.271 31.8652 210.18 31.2734 211.234 30.8633C212.289 30.4414 213.455 30.2305 214.732 30.2305C216.033 30.2305 217.211 30.4414 218.266 30.8633C219.32 31.2734 220.223 31.8652 220.973 32.6387C221.734 33.4004 222.314 34.3145 222.713 35.3809C223.123 36.4355 223.328 37.584 223.328 38.8262ZM219.707 38.8262C219.707 38.0879 219.59 37.3906 219.355 36.7344C219.133 36.0664 218.805 35.498 218.371 35.0293C217.938 34.5605 217.41 34.1914 216.789 33.9219C216.18 33.6406 215.494 33.5 214.732 33.5C213.959 33.5 213.268 33.6406 212.658 33.9219C212.049 34.1914 211.533 34.5605 211.111 35.0293C210.689 35.498 210.361 36.0664 210.127 36.7344C209.904 37.3906 209.793 38.0879 209.793 38.8262C209.793 39.5996 209.904 40.3027 210.127 40.9355C210.361 41.5684 210.689 42.125 211.111 42.6055C211.533 43.0859 212.049 43.4609 212.658 43.7305C213.268 43.9883 213.959 44.1172 214.732 44.1172C215.494 44.1172 216.18 43.9883 216.789 43.7305C217.41 43.4609 217.938 43.0859 218.371 42.6055C218.805 42.125 219.133 41.5684 219.355 40.9355C219.59 40.3027 219.707 39.5996 219.707 38.8262ZM242.523 42.5C242.523 43.9883 241.973 45.1133 240.871 45.875C239.781 46.625 238.217 47 236.178 47H227.037V30.6172H235.527C236.277 30.6172 237.021 30.6758 237.76 30.793C238.51 30.8984 239.178 31.1094 239.764 31.4258C240.35 31.7305 240.824 32.1641 241.188 32.7266C241.551 33.2891 241.732 34.0156 241.732 34.9062C241.732 35.7266 241.475 36.4648 240.959 37.1211C240.443 37.7773 239.646 38.2637 238.568 38.5801C239.904 38.7676 240.895 39.2012 241.539 39.8809C242.195 40.5488 242.523 41.4219 242.523 42.5ZM238.129 35.3281C238.129 34.9766 238.053 34.6953 237.9 34.4844C237.76 34.2617 237.566 34.0918 237.32 33.9746C237.086 33.8457 236.811 33.7637 236.494 33.7285C236.189 33.6934 235.885 33.6758 235.58 33.6758H230.676V36.9629H235.58C235.885 36.9629 236.189 36.9453 236.494 36.9102C236.811 36.8633 237.086 36.7812 237.32 36.6641C237.566 36.5469 237.76 36.3828 237.9 36.1719C238.053 35.9492 238.129 35.668 238.129 35.3281ZM238.92 41.9551C238.92 41.3809 238.68 40.9531 238.199 40.6719C237.719 40.3789 237.045 40.2324 236.178 40.2324H230.676V43.7305H236.178C237.045 43.7305 237.719 43.584 238.199 43.291C238.68 42.998 238.92 42.5527 238.92 41.9551ZM256.234 47H251.805V42.5703H256.234V47ZM282.039 41.7793C281.852 43.502 281.172 44.873 280 45.8926C278.84 46.9004 277.387 47.4043 275.641 47.4043C274.68 47.4043 273.801 47.2461 273.004 46.9297C272.207 46.6133 271.527 46.1738 270.965 45.6113C270.402 45.0488 269.963 44.375 269.646 43.5898C269.342 42.793 269.189 41.9258 269.189 40.9883V33.9043H265.48V30.6172H269.189V24.0605H272.828V30.6172H279.701V33.9043H272.828V40.9883C272.828 42.043 273.086 42.8281 273.602 43.3438C274.117 43.8594 274.797 44.1172 275.641 44.1172C276.672 44.1172 277.439 43.8184 277.943 43.2207C278.447 42.623 278.746 41.9023 278.84 41.0586L282.039 41.7793ZM301.902 47H294.133V43.7305H295.574L293.342 40.3027L291.145 43.7305H292.48V47H284.781V43.7305H287.154L290.828 38.6855L287.33 33.9043H285.133V30.6172H292.516V33.9043H291.355L293.342 37.0684L295.363 33.9043H294.062V30.6172H301.516V33.9043H299.389L295.891 38.6855L299.564 43.7305H301.902V47ZM321.344 41.7793C321.156 43.502 320.477 44.873 319.305 45.8926C318.145 46.9004 316.691 47.4043 314.945 47.4043C313.984 47.4043 313.105 47.2461 312.309 46.9297C311.512 46.6133 310.832 46.1738 310.27 45.6113C309.707 45.0488 309.268 44.375 308.951 43.5898C308.646 42.793 308.494 41.9258 308.494 40.9883V33.9043H304.785V30.6172H308.494V24.0605H312.133V30.6172H319.006V33.9043H312.133V40.9883C312.133 42.043 312.391 42.8281 312.906 43.3438C313.422 43.8594 314.102 44.1172 314.945 44.1172C315.977 44.1172 316.744 43.8184 317.248 43.2207C317.752 42.623 318.051 41.9023 318.145 41.0586L321.344 41.7793Z" fill="#DFE9DD"/>
<path d="M43.0039 93.4053C43.0039 94.3623 42.8525 95.251 42.5498 96.0713C42.2568 96.8916 41.8369 97.6143 41.29 98.2393C40.7529 98.8545 40.1035 99.3574 39.3418 99.748C38.5898 100.139 37.7549 100.383 36.8369 100.48V103H34.8154V100.451C33.8975 100.354 33.0625 100.109 32.3105 99.7188C31.5684 99.3281 30.9238 98.8301 30.377 98.2246C29.8398 97.6094 29.4248 96.8916 29.1318 96.0713C28.8486 95.251 28.707 94.3623 28.707 93.4053C28.707 92.4385 28.8486 91.5449 29.1318 90.7246C29.4248 89.9043 29.8398 89.1816 30.377 88.5566C30.9238 87.9219 31.5684 87.4141 32.3105 87.0332C33.0625 86.6426 33.8975 86.3838 34.8154 86.2568V83.8838H36.8369V86.2568C37.7549 86.3545 38.5898 86.6035 39.3418 87.0039C40.1035 87.4043 40.7529 87.917 41.29 88.542C41.8369 89.1572 42.2568 89.8799 42.5498 90.71C42.8525 91.54 43.0039 92.4385 43.0039 93.4053ZM40.9971 93.4053C40.9971 92.7217 40.8994 92.0771 40.7041 91.4717C40.5186 90.8564 40.25 90.3096 39.8984 89.8311C39.5566 89.3525 39.1221 88.957 38.5947 88.6445C38.0771 88.332 37.4912 88.1172 36.8369 88V98.708C38.1553 98.4932 39.1758 97.9023 39.8984 96.9355C40.6309 95.959 40.9971 94.7822 40.9971 93.4053ZM30.7139 93.4053C30.7139 94.7822 31.0654 95.959 31.7686 96.9355C32.4814 97.9023 33.4971 98.4932 34.8154 98.708V88C34.1611 88.1172 33.5752 88.3369 33.0576 88.6592C32.5498 88.9814 32.1201 89.377 31.7686 89.8457C31.4268 90.3145 31.1631 90.8564 30.9775 91.4717C30.8018 92.0771 30.7139 92.7217 30.7139 93.4053ZM45.3477 99.3086C45.3477 98.4492 45.5625 97.7314 45.9922 97.1553C46.4219 96.5693 46.9834 96.1104 47.6768 95.7783C48.3799 95.4365 49.1807 95.1924 50.0791 95.0459C50.9873 94.8896 51.9102 94.8115 52.8477 94.8115C53.209 94.8115 53.5312 94.8164 53.8145 94.8262C54.1074 94.8359 54.3809 94.8506 54.6348 94.8701C54.8984 94.8896 55.1621 94.9141 55.4258 94.9434C55.6895 94.9727 55.9775 95.0068 56.29 95.0459V94.0645C56.29 93.4004 56.1436 92.8535 55.8506 92.4238C55.5674 91.9941 55.2158 91.6572 54.7959 91.4131C54.376 91.1592 53.9365 90.9834 53.4775 90.8857C53.0186 90.7783 52.6279 90.7246 52.3057 90.7246C51.29 90.7246 50.3525 90.8613 49.4932 91.1348C48.6338 91.4082 47.833 91.7744 47.0908 92.2334L46.1826 90.7246C47.0029 90.2266 47.9209 89.8213 48.9365 89.5088C49.9619 89.1865 51.085 89.0254 52.3057 89.0254C53.0479 89.0254 53.7754 89.123 54.4883 89.3184C55.2109 89.5039 55.8555 89.7969 56.4219 90.1973C56.998 90.5879 57.457 91.1055 57.7988 91.75C58.1406 92.3945 58.3115 93.166 58.3115 94.0645V103H56.29V100.715C55.9385 101.154 55.5381 101.54 55.0889 101.872C54.6494 102.204 54.1855 102.478 53.6973 102.692C53.209 102.897 52.7207 103.054 52.2324 103.161C51.7441 103.278 51.2803 103.337 50.8408 103.337C49.0342 103.337 47.667 102.99 46.7393 102.297C45.8115 101.604 45.3477 100.607 45.3477 99.3086ZM50.8408 101.623C51.6807 101.623 52.4326 101.501 53.0967 101.257C53.7705 101.003 54.3418 100.69 54.8105 100.319C55.2793 99.9482 55.6406 99.5527 55.8945 99.1328C56.1582 98.7129 56.29 98.332 56.29 97.9902V96.7012C55.6357 96.6035 55.0059 96.5498 54.4004 96.54C53.8047 96.5303 53.2871 96.5254 52.8477 96.5254C52.125 96.5254 51.4268 96.5742 50.7529 96.6719C50.0889 96.7695 49.5078 96.9307 49.0098 97.1553C48.5117 97.3701 48.1113 97.6533 47.8086 98.0049C47.5059 98.3564 47.3545 98.791 47.3545 99.3086C47.3545 99.8848 47.6328 100.417 48.1895 100.905C48.7559 101.384 49.6396 101.623 50.8408 101.623ZM62.4717 89.3477H64.4785V100.363L71.8613 89.3477H74.6885V103H72.667V91.4863L64.9619 103H62.4717V89.3477ZM72.7695 85.2754C71.627 86.4082 70.2354 86.9746 68.5947 86.9746C66.9541 86.9746 65.5625 86.4082 64.4199 85.2754L65.5625 84.1621C66.4805 85.0801 67.4912 85.5391 68.5947 85.5391C69.6982 85.5391 70.709 85.0801 71.627 84.1621L72.7695 85.2754ZM91.0654 89.3477V103H89.0439V91.0615H82.877V99.9678C82.877 100.505 82.7842 100.983 82.5986 101.403C82.4229 101.823 82.1836 102.175 81.8809 102.458C81.5781 102.741 81.2266 102.956 80.8262 103.103C80.4258 103.259 80.0059 103.337 79.5664 103.337C78.7461 103.337 78.1455 103.215 77.7646 102.971L78.1602 101.374C78.2969 101.462 78.4482 101.525 78.6143 101.564C78.79 101.604 79.0195 101.623 79.3027 101.623C80.3379 101.623 80.8555 101.071 80.8555 99.9678V89.3477H91.0654ZM140.196 103H138.175V85.5977H129.986V103H127.979V83.8838H140.196V103ZM157.291 96.1885C157.291 97.2529 157.125 98.2197 156.793 99.0889C156.461 99.958 155.992 100.71 155.387 101.345C154.791 101.97 154.068 102.458 153.219 102.81C152.369 103.161 151.417 103.337 150.362 103.337C149.64 103.337 148.937 103.205 148.253 102.941C147.579 102.678 146.949 102.287 146.363 101.77V108.464H144.356V89.3477H146.363V90.6074C147.604 89.5527 148.937 89.0254 150.362 89.0254C151.417 89.0254 152.369 89.2012 153.219 89.5527C154.068 89.8945 154.791 90.3877 155.387 91.0322C155.992 91.667 156.461 92.4287 156.793 93.3174C157.125 94.1963 157.291 95.1533 157.291 96.1885ZM155.284 96.1885C155.284 95.4268 155.177 94.7139 154.962 94.0498C154.757 93.376 154.444 92.7949 154.024 92.3066C153.604 91.8184 153.087 91.4326 152.472 91.1494C151.866 90.8662 151.163 90.7246 150.362 90.7246C149.601 90.7246 148.888 90.8662 148.224 91.1494C147.569 91.4326 146.949 91.8916 146.363 92.5264V99.8506C146.949 100.485 147.569 100.939 148.224 101.213C148.888 101.486 149.601 101.623 150.362 101.623C151.163 101.623 151.866 101.481 152.472 101.198C153.087 100.915 153.604 100.529 154.024 100.041C154.444 99.5527 154.757 98.9814 154.962 98.3271C155.177 97.6631 155.284 96.9502 155.284 96.1885ZM159.986 99.3086C159.986 98.4492 160.201 97.7314 160.631 97.1553C161.061 96.5693 161.622 96.1104 162.315 95.7783C163.019 95.4365 163.819 95.1924 164.718 95.0459C165.626 94.8896 166.549 94.8115 167.486 94.8115C167.848 94.8115 168.17 94.8164 168.453 94.8262C168.746 94.8359 169.02 94.8506 169.273 94.8701C169.537 94.8896 169.801 94.9141 170.064 94.9434C170.328 94.9727 170.616 95.0068 170.929 95.0459V94.0645C170.929 93.4004 170.782 92.8535 170.489 92.4238C170.206 91.9941 169.854 91.6572 169.435 91.4131C169.015 91.1592 168.575 90.9834 168.116 90.8857C167.657 90.7783 167.267 90.7246 166.944 90.7246C165.929 90.7246 164.991 90.8613 164.132 91.1348C163.272 91.4082 162.472 91.7744 161.729 92.2334L160.821 90.7246C161.642 90.2266 162.56 89.8213 163.575 89.5088C164.601 89.1865 165.724 89.0254 166.944 89.0254C167.687 89.0254 168.414 89.123 169.127 89.3184C169.85 89.5039 170.494 89.7969 171.061 90.1973C171.637 90.5879 172.096 91.1055 172.438 91.75C172.779 92.3945 172.95 93.166 172.95 94.0645V103H170.929V100.715C170.577 101.154 170.177 101.54 169.728 101.872C169.288 102.204 168.824 102.478 168.336 102.692C167.848 102.897 167.359 103.054 166.871 103.161C166.383 103.278 165.919 103.337 165.479 103.337C163.673 103.337 162.306 102.99 161.378 102.297C160.45 101.604 159.986 100.607 159.986 99.3086ZM165.479 101.623C166.319 101.623 167.071 101.501 167.735 101.257C168.409 101.003 168.98 100.69 169.449 100.319C169.918 99.9482 170.279 99.5527 170.533 99.1328C170.797 98.7129 170.929 98.332 170.929 97.9902V96.7012C170.274 96.6035 169.645 96.5498 169.039 96.54C168.443 96.5303 167.926 96.5254 167.486 96.5254C166.764 96.5254 166.065 96.5742 165.392 96.6719C164.728 96.7695 164.146 96.9307 163.648 97.1553C163.15 97.3701 162.75 97.6533 162.447 98.0049C162.145 98.3564 161.993 98.791 161.993 99.3086C161.993 99.8848 162.271 100.417 162.828 100.905C163.395 101.384 164.278 101.623 165.479 101.623ZM190.016 99.1035C190.016 100.422 189.527 101.403 188.551 102.048C187.584 102.683 186.192 103 184.376 103H177.11V89.3477H183.922C184.586 89.3477 185.24 89.4014 185.885 89.5088C186.539 89.6064 187.12 89.7871 187.628 90.0508C188.136 90.3047 188.551 90.6611 188.873 91.1201C189.195 91.5791 189.356 92.1797 189.356 92.9219C189.356 93.625 189.186 94.2158 188.844 94.6943C188.502 95.1729 187.833 95.5391 186.837 95.793C188.058 96.0762 188.893 96.4961 189.342 97.0527C189.791 97.5996 190.016 98.2832 190.016 99.1035ZM187.35 93.0391C187.35 92.6191 187.237 92.2822 187.013 92.0283C186.788 91.7646 186.51 91.5645 186.178 91.4277C185.855 91.2812 185.494 91.1836 185.094 91.1348C184.693 91.0859 184.303 91.0615 183.922 91.0615H179.117V94.9873H183.922C184.322 94.9873 184.728 94.9629 185.138 94.9141C185.548 94.8652 185.919 94.7676 186.251 94.6211C186.583 94.4648 186.847 94.2646 187.042 94.0205C187.247 93.7666 187.35 93.4395 187.35 93.0391ZM188.009 99.0156C188.009 98.2148 187.682 97.6289 187.027 97.2578C186.373 96.8867 185.479 96.7012 184.347 96.7012H179.117V101.286H184.347C185.479 101.286 186.373 101.096 187.027 100.715C187.682 100.334 188.009 99.7676 188.009 99.0156ZM206.393 103H203.536L197.955 96.877L195.494 99.1328V103H193.487V89.3477H195.494V96.7012L203.272 89.3477H206.144L199.303 95.6172L206.393 103ZM209.117 99.3086C209.117 98.4492 209.332 97.7314 209.762 97.1553C210.191 96.5693 210.753 96.1104 211.446 95.7783C212.149 95.4365 212.95 95.1924 213.849 95.0459C214.757 94.8896 215.68 94.8115 216.617 94.8115C216.979 94.8115 217.301 94.8164 217.584 94.8262C217.877 94.8359 218.15 94.8506 218.404 94.8701C218.668 94.8896 218.932 94.9141 219.195 94.9434C219.459 94.9727 219.747 95.0068 220.06 95.0459V94.0645C220.06 93.4004 219.913 92.8535 219.62 92.4238C219.337 91.9941 218.985 91.6572 218.565 91.4131C218.146 91.1592 217.706 90.9834 217.247 90.8857C216.788 90.7783 216.397 90.7246 216.075 90.7246C215.06 90.7246 214.122 90.8613 213.263 91.1348C212.403 91.4082 211.603 91.7744 210.86 92.2334L209.952 90.7246C210.772 90.2266 211.69 89.8213 212.706 89.5088C213.731 89.1865 214.854 89.0254 216.075 89.0254C216.817 89.0254 217.545 89.123 218.258 89.3184C218.98 89.5039 219.625 89.7969 220.191 90.1973C220.768 90.5879 221.227 91.1055 221.568 91.75C221.91 92.3945 222.081 93.166 222.081 94.0645V103H220.06V100.715C219.708 101.154 219.308 101.54 218.858 101.872C218.419 102.204 217.955 102.478 217.467 102.692C216.979 102.897 216.49 103.054 216.002 103.161C215.514 103.278 215.05 103.337 214.61 103.337C212.804 103.337 211.437 102.99 210.509 102.297C209.581 101.604 209.117 100.607 209.117 99.3086ZM214.61 101.623C215.45 101.623 216.202 101.501 216.866 101.257C217.54 101.003 218.111 100.69 218.58 100.319C219.049 99.9482 219.41 99.5527 219.664 99.1328C219.928 98.7129 220.06 98.332 220.06 97.9902V96.7012C219.405 96.6035 218.775 96.5498 218.17 96.54C217.574 96.5303 217.057 96.5254 216.617 96.5254C215.895 96.5254 215.196 96.5742 214.522 96.6719C213.858 96.7695 213.277 96.9307 212.779 97.1553C212.281 97.3701 211.881 97.6533 211.578 98.0049C211.275 98.3564 211.124 98.791 211.124 99.3086C211.124 99.8848 211.402 100.417 211.959 100.905C212.525 101.384 213.409 101.623 214.61 101.623ZM272.281 93.4053C272.281 94.3623 272.13 95.251 271.827 96.0713C271.534 96.8916 271.114 97.6143 270.567 98.2393C270.03 98.8545 269.381 99.3574 268.619 99.748C267.867 100.139 267.032 100.383 266.114 100.48V103H264.093V100.451C263.175 100.354 262.34 100.109 261.588 99.7188C260.846 99.3281 260.201 98.8301 259.654 98.2246C259.117 97.6094 258.702 96.8916 258.409 96.0713C258.126 95.251 257.984 94.3623 257.984 93.4053C257.984 92.4385 258.126 91.5449 258.409 90.7246C258.702 89.9043 259.117 89.1816 259.654 88.5566C260.201 87.9219 260.846 87.4141 261.588 87.0332C262.34 86.6426 263.175 86.3838 264.093 86.2568V83.8838H266.114V86.2568C267.032 86.3545 267.867 86.6035 268.619 87.0039C269.381 87.4043 270.03 87.917 270.567 88.542C271.114 89.1572 271.534 89.8799 271.827 90.71C272.13 91.54 272.281 92.4385 272.281 93.4053ZM270.274 93.4053C270.274 92.7217 270.177 92.0771 269.981 91.4717C269.796 90.8564 269.527 90.3096 269.176 89.8311C268.834 89.3525 268.399 88.957 267.872 88.6445C267.354 88.332 266.769 88.1172 266.114 88V98.708C267.433 98.4932 268.453 97.9023 269.176 96.9355C269.908 95.959 270.274 94.7822 270.274 93.4053ZM259.991 93.4053C259.991 94.7822 260.343 95.959 261.046 96.9355C261.759 97.9023 262.774 98.4932 264.093 98.708V88C263.438 88.1172 262.853 88.3369 262.335 88.6592C261.827 88.9814 261.397 89.377 261.046 89.8457C260.704 90.3145 260.44 90.8564 260.255 91.4717C260.079 92.0771 259.991 92.7217 259.991 93.4053ZM288.658 96.2178C288.658 97.2822 288.487 98.249 288.146 99.1182C287.813 99.9873 287.33 100.734 286.695 101.359C286.07 101.975 285.318 102.458 284.439 102.81C283.561 103.161 282.579 103.337 281.495 103.337C280.431 103.337 279.459 103.161 278.58 102.81C277.701 102.458 276.944 101.975 276.31 101.359C275.685 100.734 275.201 99.9873 274.859 99.1182C274.527 98.249 274.361 97.2822 274.361 96.2178C274.361 95.1826 274.527 94.2207 274.859 93.332C275.201 92.4336 275.685 91.6719 276.31 91.0469C276.944 90.4121 277.701 89.9189 278.58 89.5674C279.459 89.2061 280.431 89.0254 281.495 89.0254C282.579 89.0254 283.561 89.2061 284.439 89.5674C285.318 89.9189 286.07 90.4121 286.695 91.0469C287.33 91.6719 287.813 92.4336 288.146 93.332C288.487 94.2207 288.658 95.1826 288.658 96.2178ZM286.651 96.2178C286.651 95.4365 286.534 94.7188 286.3 94.0645C286.075 93.4004 285.738 92.8193 285.289 92.3213C284.84 91.8232 284.293 91.4326 283.648 91.1494C283.014 90.8662 282.296 90.7246 281.495 90.7246C280.694 90.7246 279.972 90.8662 279.327 91.1494C278.692 91.4326 278.155 91.8232 277.716 92.3213C277.276 92.8193 276.939 93.4004 276.705 94.0645C276.48 94.7188 276.368 95.4365 276.368 96.2178C276.368 96.999 276.48 97.7217 276.705 98.3857C276.939 99.04 277.276 99.6064 277.716 100.085C278.155 100.563 278.692 100.939 279.327 101.213C279.972 101.486 280.694 101.623 281.495 101.623C282.296 101.623 283.014 101.486 283.648 101.213C284.293 100.939 284.84 100.563 285.289 100.085C285.738 99.6064 286.075 99.04 286.3 98.3857C286.534 97.7217 286.651 96.999 286.651 96.2178ZM304.684 96.1885C304.684 97.2529 304.518 98.2197 304.186 99.0889C303.854 99.958 303.385 100.71 302.779 101.345C302.184 101.97 301.461 102.458 300.611 102.81C299.762 103.161 298.81 103.337 297.755 103.337C297.032 103.337 296.329 103.205 295.646 102.941C294.972 102.678 294.342 102.287 293.756 101.77V108.464H291.749V89.3477H293.756V90.6074C294.996 89.5527 296.329 89.0254 297.755 89.0254C298.81 89.0254 299.762 89.2012 300.611 89.5527C301.461 89.8945 302.184 90.3877 302.779 91.0322C303.385 91.667 303.854 92.4287 304.186 93.3174C304.518 94.1963 304.684 95.1533 304.684 96.1885ZM302.677 96.1885C302.677 95.4268 302.569 94.7139 302.354 94.0498C302.149 93.376 301.837 92.7949 301.417 92.3066C300.997 91.8184 300.479 91.4326 299.864 91.1494C299.259 90.8662 298.556 90.7246 297.755 90.7246C296.993 90.7246 296.28 90.8662 295.616 91.1494C294.962 91.4326 294.342 91.8916 293.756 92.5264V99.8506C294.342 100.485 294.962 100.939 295.616 101.213C296.28 101.486 296.993 101.623 297.755 101.623C298.556 101.623 299.259 101.481 299.864 101.198C300.479 100.915 300.997 100.529 301.417 100.041C301.837 99.5527 302.149 98.9814 302.354 98.3271C302.569 97.6631 302.677 96.9502 302.677 96.1885ZM320.343 103H318.321V92.1748L314.967 99.25H313.531L310.133 92.1748V103H308.126V89.3477H310.733L314.249 96.4668L317.735 89.3477H320.343V103ZM323.756 99.3086C323.756 98.4492 323.971 97.7314 324.4 97.1553C324.83 96.5693 325.392 96.1104 326.085 95.7783C326.788 95.4365 327.589 95.1924 328.487 95.0459C329.396 94.8896 330.318 94.8115 331.256 94.8115C331.617 94.8115 331.939 94.8164 332.223 94.8262C332.516 94.8359 332.789 94.8506 333.043 94.8701C333.307 94.8896 333.57 94.9141 333.834 94.9434C334.098 94.9727 334.386 95.0068 334.698 95.0459V94.0645C334.698 93.4004 334.552 92.8535 334.259 92.4238C333.976 91.9941 333.624 91.6572 333.204 91.4131C332.784 91.1592 332.345 90.9834 331.886 90.8857C331.427 90.7783 331.036 90.7246 330.714 90.7246C329.698 90.7246 328.761 90.8613 327.901 91.1348C327.042 91.4082 326.241 91.7744 325.499 92.2334L324.591 90.7246C325.411 90.2266 326.329 89.8213 327.345 89.5088C328.37 89.1865 329.493 89.0254 330.714 89.0254C331.456 89.0254 332.184 89.123 332.896 89.3184C333.619 89.5039 334.264 89.7969 334.83 90.1973C335.406 90.5879 335.865 91.1055 336.207 91.75C336.549 92.3945 336.72 93.166 336.72 94.0645V103H334.698V100.715C334.347 101.154 333.946 101.54 333.497 101.872C333.058 102.204 332.594 102.478 332.105 102.692C331.617 102.897 331.129 103.054 330.641 103.161C330.152 103.278 329.688 103.337 329.249 103.337C327.442 103.337 326.075 102.99 325.147 102.297C324.22 101.604 323.756 100.607 323.756 99.3086ZM329.249 101.623C330.089 101.623 330.841 101.501 331.505 101.257C332.179 101.003 332.75 100.69 333.219 100.319C333.688 99.9482 334.049 99.5527 334.303 99.1328C334.566 98.7129 334.698 98.332 334.698 97.9902V96.7012C334.044 96.6035 333.414 96.5498 332.809 96.54C332.213 96.5303 331.695 96.5254 331.256 96.5254C330.533 96.5254 329.835 96.5742 329.161 96.6719C328.497 96.7695 327.916 96.9307 327.418 97.1553C326.92 97.3701 326.52 97.6533 326.217 98.0049C325.914 98.3564 325.763 98.791 325.763 99.3086C325.763 99.8848 326.041 100.417 326.598 100.905C327.164 101.384 328.048 101.623 329.249 101.623ZM353.814 95.793H352.101V91.0615H347.999V101.286H351.075V103H342.887V101.286H345.978V91.0615H341.876V95.793H340.162V89.3477H353.814V95.793ZM402.916 97.5361C402.916 99.3623 402.325 100.729 401.144 101.638C399.962 102.546 398.282 103 396.104 103H390.011V83.8838H395.768C396.568 83.8838 397.354 83.9521 398.126 84.0889C398.897 84.2158 399.586 84.46 400.191 84.8213C400.807 85.1826 401.305 85.6855 401.686 86.3301C402.066 86.9648 402.257 87.7998 402.257 88.835C402.257 90.8174 401.266 92.1699 399.283 92.8926C401.705 93.6348 402.916 95.1826 402.916 97.5361ZM400.25 88.835C400.25 88.1611 400.108 87.6094 399.825 87.1797C399.542 86.75 399.181 86.4229 398.741 86.1982C398.302 85.9639 397.818 85.8076 397.291 85.7295C396.764 85.6416 396.256 85.5977 395.768 85.5977H392.018V92.0869H395.768C396.314 92.0869 396.852 92.0479 397.379 91.9697C397.906 91.8818 398.38 91.7207 398.8 91.4863C399.22 91.2422 399.566 90.9102 399.84 90.4902C400.113 90.0703 400.25 89.5186 400.25 88.835ZM400.909 97.5361C400.909 96.2178 400.479 95.2607 399.62 94.665C398.771 94.0596 397.599 93.7568 396.104 93.7568H392.018V101.286H396.104C397.599 101.286 398.771 100.974 399.62 100.349C400.479 99.7139 400.909 98.7764 400.909 97.5361ZM406.388 89.3477H408.395V100.363L415.777 89.3477H418.604V103H416.583V91.4863L408.878 103H406.388V89.3477ZM422.047 101.286C422.506 101.188 422.945 100.925 423.365 100.495C423.785 100.065 424.151 99.4697 424.464 98.708C424.776 97.9463 425.025 97.0234 425.211 95.9395C425.406 94.8457 425.504 93.5908 425.504 92.1748V89.3477H432.96V101.286H435.699V107.673H433.897V103H423.849V107.673H422.047V101.286ZM427.511 92.1748C427.511 93.3076 427.428 94.3721 427.262 95.3682C427.105 96.3545 426.896 97.2383 426.632 98.0195C426.378 98.8008 426.085 99.4746 425.753 100.041C425.421 100.598 425.094 101.013 424.771 101.286H430.953V91.0615H427.511V92.1748ZM484.947 97.9902C484.449 99.6309 483.634 100.925 482.501 101.872C481.368 102.819 479.942 103.293 478.224 103.293C476.886 103.293 475.753 103.024 474.825 102.487C473.897 101.95 473.136 101.228 472.54 100.319C471.954 99.4111 471.529 98.3613 471.266 97.1699C471.012 95.9785 470.885 94.7432 470.885 93.4639C470.885 92.1846 471.012 90.9492 471.266 89.7578C471.529 88.5664 471.954 87.5117 472.54 86.5938C473.136 85.6758 473.897 84.9434 474.825 84.3965C475.753 83.8398 476.886 83.5615 478.224 83.5615C479.405 83.5615 480.416 83.7715 481.256 84.1914C482.096 84.6113 482.716 85.251 483.116 86.1104V83.8838H484.83V90.1533H483.116C483.116 89.4795 482.984 88.8447 482.721 88.249C482.467 87.6436 482.12 87.1211 481.681 86.6816C481.241 86.2422 480.719 85.9004 480.113 85.6562C479.518 85.4023 478.888 85.2754 478.224 85.2754C477.188 85.2754 476.329 85.5195 475.646 86.0078C474.972 86.4961 474.43 87.1357 474.02 87.9268C473.609 88.7178 473.316 89.5967 473.141 90.5635C472.975 91.5303 472.892 92.4971 472.892 93.4639C472.892 94.4209 472.975 95.3877 473.141 96.3643C473.316 97.3311 473.609 98.2002 474.02 98.9717C474.43 99.7334 474.972 100.363 475.646 100.861C476.329 101.35 477.188 101.594 478.224 101.594C480.606 101.594 482.267 100.163 483.204 97.3018L484.947 97.9902ZM500.489 103H498.468V91.0615H490.279V103H488.272V89.3477H500.489V103ZM517.584 96.1885C517.584 97.2529 517.418 98.2197 517.086 99.0889C516.754 99.958 516.285 100.71 515.68 101.345C515.084 101.97 514.361 102.458 513.512 102.81C512.662 103.161 511.71 103.337 510.655 103.337C509.933 103.337 509.229 103.205 508.546 102.941C507.872 102.678 507.242 102.287 506.656 101.77V108.464H504.649V89.3477H506.656V90.6074C507.896 89.5527 509.229 89.0254 510.655 89.0254C511.71 89.0254 512.662 89.2012 513.512 89.5527C514.361 89.8945 515.084 90.3877 515.68 91.0322C516.285 91.667 516.754 92.4287 517.086 93.3174C517.418 94.1963 517.584 95.1533 517.584 96.1885ZM515.577 96.1885C515.577 95.4268 515.47 94.7139 515.255 94.0498C515.05 93.376 514.737 92.7949 514.317 92.3066C513.897 91.8184 513.38 91.4326 512.765 91.1494C512.159 90.8662 511.456 90.7246 510.655 90.7246C509.894 90.7246 509.181 90.8662 508.517 91.1494C507.862 91.4326 507.242 91.8916 506.656 92.5264V99.8506C507.242 100.485 507.862 100.939 508.517 101.213C509.181 101.486 509.894 101.623 510.655 101.623C511.456 101.623 512.159 101.481 512.765 101.198C513.38 100.915 513.897 100.529 514.317 100.041C514.737 99.5527 515.05 98.9814 515.255 98.3271C515.47 97.6631 515.577 96.9502 515.577 96.1885ZM520.279 99.3086C520.279 98.4492 520.494 97.7314 520.924 97.1553C521.354 96.5693 521.915 96.1104 522.608 95.7783C523.312 95.4365 524.112 95.1924 525.011 95.0459C525.919 94.8896 526.842 94.8115 527.779 94.8115C528.141 94.8115 528.463 94.8164 528.746 94.8262C529.039 94.8359 529.312 94.8506 529.566 94.8701C529.83 94.8896 530.094 94.9141 530.357 94.9434C530.621 94.9727 530.909 95.0068 531.222 95.0459V94.0645C531.222 93.4004 531.075 92.8535 530.782 92.4238C530.499 91.9941 530.147 91.6572 529.728 91.4131C529.308 91.1592 528.868 90.9834 528.409 90.8857C527.95 90.7783 527.56 90.7246 527.237 90.7246C526.222 90.7246 525.284 90.8613 524.425 91.1348C523.565 91.4082 522.765 91.7744 522.022 92.2334L521.114 90.7246C521.935 90.2266 522.853 89.8213 523.868 89.5088C524.894 89.1865 526.017 89.0254 527.237 89.0254C527.979 89.0254 528.707 89.123 529.42 89.3184C530.143 89.5039 530.787 89.7969 531.354 90.1973C531.93 90.5879 532.389 91.1055 532.73 91.75C533.072 92.3945 533.243 93.166 533.243 94.0645V103H531.222V100.715C530.87 101.154 530.47 101.54 530.021 101.872C529.581 102.204 529.117 102.478 528.629 102.692C528.141 102.897 527.652 103.054 527.164 103.161C526.676 103.278 526.212 103.337 525.772 103.337C523.966 103.337 522.599 102.99 521.671 102.297C520.743 101.604 520.279 100.607 520.279 99.3086ZM525.772 101.623C526.612 101.623 527.364 101.501 528.028 101.257C528.702 101.003 529.273 100.69 529.742 100.319C530.211 99.9482 530.572 99.5527 530.826 99.1328C531.09 98.7129 531.222 98.332 531.222 97.9902V96.7012C530.567 96.6035 529.938 96.5498 529.332 96.54C528.736 96.5303 528.219 96.5254 527.779 96.5254C527.057 96.5254 526.358 96.5742 525.685 96.6719C525.021 96.7695 524.439 96.9307 523.941 97.1553C523.443 97.3701 523.043 97.6533 522.74 98.0049C522.438 98.3564 522.286 98.791 522.286 99.3086C522.286 99.8848 522.564 100.417 523.121 100.905C523.688 101.384 524.571 101.623 525.772 101.623ZM550.309 99.1035C550.309 100.422 549.82 101.403 548.844 102.048C547.877 102.683 546.485 103 544.669 103H537.403V89.3477H544.215C544.879 89.3477 545.533 89.4014 546.178 89.5088C546.832 89.6064 547.413 89.7871 547.921 90.0508C548.429 90.3047 548.844 90.6611 549.166 91.1201C549.488 91.5791 549.649 92.1797 549.649 92.9219C549.649 93.625 549.479 94.2158 549.137 94.6943C548.795 95.1729 548.126 95.5391 547.13 95.793C548.351 96.0762 549.186 96.4961 549.635 97.0527C550.084 97.5996 550.309 98.2832 550.309 99.1035ZM547.643 93.0391C547.643 92.6191 547.53 92.2822 547.306 92.0283C547.081 91.7646 546.803 91.5645 546.471 91.4277C546.148 91.2812 545.787 91.1836 545.387 91.1348C544.986 91.0859 544.596 91.0615 544.215 91.0615H539.41V94.9873H544.215C544.615 94.9873 545.021 94.9629 545.431 94.9141C545.841 94.8652 546.212 94.7676 546.544 94.6211C546.876 94.4648 547.14 94.2646 547.335 94.0205C547.54 93.7666 547.643 93.4395 547.643 93.0391ZM548.302 99.0156C548.302 98.2148 547.975 97.6289 547.32 97.2578C546.666 96.8867 545.772 96.7012 544.64 96.7012H539.41V101.286H544.64C545.772 101.286 546.666 101.096 547.32 100.715C547.975 100.334 548.302 99.7676 548.302 99.0156ZM566.686 103H563.829L558.248 96.877L555.787 99.1328V103H553.78V89.3477H555.787V96.7012L563.565 89.3477H566.437L559.596 95.6172L566.686 103ZM569.41 99.3086C569.41 98.4492 569.625 97.7314 570.055 97.1553C570.484 96.5693 571.046 96.1104 571.739 95.7783C572.442 95.4365 573.243 95.1924 574.142 95.0459C575.05 94.8896 575.973 94.8115 576.91 94.8115C577.271 94.8115 577.594 94.8164 577.877 94.8262C578.17 94.8359 578.443 94.8506 578.697 94.8701C578.961 94.8896 579.225 94.9141 579.488 94.9434C579.752 94.9727 580.04 95.0068 580.353 95.0459V94.0645C580.353 93.4004 580.206 92.8535 579.913 92.4238C579.63 91.9941 579.278 91.6572 578.858 91.4131C578.438 91.1592 577.999 90.9834 577.54 90.8857C577.081 90.7783 576.69 90.7246 576.368 90.7246C575.353 90.7246 574.415 90.8613 573.556 91.1348C572.696 91.4082 571.896 91.7744 571.153 92.2334L570.245 90.7246C571.065 90.2266 571.983 89.8213 572.999 89.5088C574.024 89.1865 575.147 89.0254 576.368 89.0254C577.11 89.0254 577.838 89.123 578.551 89.3184C579.273 89.5039 579.918 89.7969 580.484 90.1973C581.061 90.5879 581.52 91.1055 581.861 91.75C582.203 92.3945 582.374 93.166 582.374 94.0645V103H580.353V100.715C580.001 101.154 579.601 101.54 579.151 101.872C578.712 102.204 578.248 102.478 577.76 102.692C577.271 102.897 576.783 103.054 576.295 103.161C575.807 103.278 575.343 103.337 574.903 103.337C573.097 103.337 571.729 102.99 570.802 102.297C569.874 101.604 569.41 100.607 569.41 99.3086ZM574.903 101.623C575.743 101.623 576.495 101.501 577.159 101.257C577.833 101.003 578.404 100.69 578.873 100.319C579.342 99.9482 579.703 99.5527 579.957 99.1328C580.221 98.7129 580.353 98.332 580.353 97.9902V96.7012C579.698 96.6035 579.068 96.5498 578.463 96.54C577.867 96.5303 577.35 96.5254 576.91 96.5254C576.188 96.5254 575.489 96.5742 574.815 96.6719C574.151 96.7695 573.57 96.9307 573.072 97.1553C572.574 97.3701 572.174 97.6533 571.871 98.0049C571.568 98.3564 571.417 98.791 571.417 99.3086C571.417 99.8848 571.695 100.417 572.252 100.905C572.818 101.384 573.702 101.623 574.903 101.623Z" fill="black"/>
</svg>
