<svg width="713" height="451" viewBox="0 0 713 451" fill="none" xmlns="http://www.w3.org/2000/svg">
<path d="M5 4.72754H710V447.218H5V4.72754Z" fill="#DFE9DD"/>
<path d="M670 119.132V449.109M6 406.562H51M711 406.562H51M51 406.562V449.109" stroke="black" stroke-width="3"/>
<path d="M642 415.071L658.5 426.417L642 435.399" stroke="black" stroke-width="3"/>
<path d="M37.5 415.071L21 426.417L37.5 435.399" stroke="black" stroke-width="3"/>
<path d="M677 146.551L687.5 128.587L698 146.551" stroke="black" stroke-width="3"/>
<path d="M698 416.962L687.5 434.927L677 416.962" stroke="black" stroke-width="3"/>
<path d="M632 405.616V447.218" stroke="black" stroke-width="3"/>
<path d="M10 119.132H703" stroke="black" stroke-width="3"/>
<path fill-rule="evenodd" clip-rule="evenodd" d="M0 0H713V451H0V0ZM10.176 9.05622V441.944H702.824V9.05622H10.176Z" fill="#075BFF"/>
<path d="M5.14192 4.86157H709.572V60.1729H5.14192V4.86157Z" fill="#075BFF"/>
<path fill-rule="evenodd" clip-rule="evenodd" d="M595 38.2628H551V32.5898H595V38.2628Z" fill="#DFE9DD"/>
<path fill-rule="evenodd" clip-rule="evenodd" d="M614 15.571H650V49.6088H614V15.571ZM619.625 26.6988V43.9358H644.375V26.6988H619.625Z" fill="#DFE9DD"/>
<path fill-rule="evenodd" clip-rule="evenodd" d="M696.639 47.6191L667.192 19.5986L671.376 15.6683L700.822 43.6888L696.639 47.6191Z" fill="#DFE9DD"/>
<path fill-rule="evenodd" clip-rule="evenodd" d="M667.563 44.4423L695.852 15.3748L700.192 19.1506L671.903 48.2181L667.563 44.4423Z" fill="#DFE9DD"/>
<path d="M26.3477 26.4277H23.0957V21.3477H20.002V37.7305H23.6406V41H12.7422V37.7305H16.3633V21.3477H13.2344V26.4277H10V18.0605H26.3477V26.4277ZM30.5137 24.6172H34.1523V35.8848L40.6035 24.6172H45.1738V41H41.5352V29.082L34.7324 41H30.5137V24.6172ZM64.8262 41H61.1875V27.9043H53.8047V41H50.166V24.6172H64.8262V41ZM104.131 41H100.492V34.2324H93.1094V41H89.4707V24.6172H93.1094V30.9629H100.492V24.6172H104.131V41ZM111.602 34.1973C111.777 35.3223 112.311 36.2598 113.201 37.0098C114.104 37.748 115.311 38.1172 116.822 38.1172C118.006 38.1172 119.031 37.9355 119.898 37.5723C120.777 37.1973 121.533 36.7051 122.166 36.0957L124.029 38.6621C122.975 39.7168 121.855 40.4375 120.672 40.8242C119.5 41.2109 118.217 41.4043 116.822 41.4043C115.557 41.4043 114.379 41.1934 113.289 40.7715C112.199 40.3496 111.256 39.7637 110.459 39.0137C109.662 38.252 109.035 37.3496 108.578 36.3066C108.133 35.2637 107.91 34.1035 107.91 32.8262C107.91 31.584 108.115 30.4414 108.525 29.3984C108.947 28.3438 109.533 27.4355 110.283 26.6738C111.045 25.9004 111.953 25.3027 113.008 24.8809C114.062 24.4473 115.229 24.2305 116.506 24.2305C117.83 24.2305 119.031 24.459 120.109 24.916C121.188 25.3613 122.107 26.0117 122.869 26.8672C123.643 27.7227 124.246 28.7715 124.68 30.0137C125.113 31.2441 125.33 32.6387 125.33 34.1973H111.602ZM121.217 30.998C121.029 29.9434 120.484 29.0996 119.582 28.4668C118.68 27.8223 117.654 27.5 116.506 27.5C115.357 27.5 114.326 27.8223 113.412 28.4668C112.498 29.0996 111.947 29.9434 111.76 30.998H121.217ZM148.428 24.6172H163.949V27.6758H152.066V41H148.428V24.6172ZM170.559 34.1973C170.734 35.3223 171.268 36.2598 172.158 37.0098C173.061 37.748 174.268 38.1172 175.779 38.1172C176.963 38.1172 177.988 37.9355 178.855 37.5723C179.734 37.1973 180.49 36.7051 181.123 36.0957L182.986 38.6621C181.932 39.7168 180.812 40.4375 179.629 40.8242C178.457 41.2109 177.174 41.4043 175.779 41.4043C174.514 41.4043 173.336 41.1934 172.246 40.7715C171.156 40.3496 170.213 39.7637 169.416 39.0137C168.619 38.252 167.992 37.3496 167.535 36.3066C167.09 35.2637 166.867 34.1035 166.867 32.8262C166.867 31.584 167.072 30.4414 167.482 29.3984C167.904 28.3438 168.49 27.4355 169.24 26.6738C170.002 25.9004 170.91 25.3027 171.965 24.8809C173.02 24.4473 174.186 24.2305 175.463 24.2305C176.787 24.2305 177.988 24.459 179.066 24.916C180.145 25.3613 181.064 26.0117 181.826 26.8672C182.6 27.7227 183.203 28.7715 183.637 30.0137C184.07 31.2441 184.287 32.6387 184.287 34.1973H170.559ZM180.174 30.998C179.986 29.9434 179.441 29.0996 178.539 28.4668C177.637 27.8223 176.611 27.5 175.463 27.5C174.314 27.5 173.283 27.8223 172.369 28.4668C171.455 29.0996 170.904 29.9434 170.717 30.998H180.174ZM187.732 24.6172H191.371V26.0938C192.062 25.4727 192.76 25.0098 193.463 24.7051C194.178 24.3887 194.992 24.2305 195.906 24.2305C196.961 24.2305 197.939 24.4473 198.842 24.8809C199.744 25.3027 200.518 25.8945 201.162 26.6562C201.807 27.4062 202.316 28.3145 202.691 29.3809C203.066 30.4355 203.254 31.584 203.254 32.8262C203.254 34.0801 203.066 35.2344 202.691 36.2891C202.316 37.3438 201.807 38.252 201.162 39.0137C200.518 39.7637 199.744 40.3496 198.842 40.7715C197.939 41.1934 196.961 41.4043 195.906 41.4043C194.992 41.4043 194.178 41.2402 193.463 40.9121C192.76 40.584 192.062 40.1094 191.371 39.4883V47.5566H187.732V24.6172ZM191.371 36.6055C191.805 37.0859 192.355 37.4609 193.023 37.7305C193.703 37.9883 194.354 38.1172 194.975 38.1172C196.346 38.1172 197.459 37.6309 198.314 36.6582C199.182 35.6855 199.615 34.4082 199.615 32.8262C199.615 31.2441 199.182 29.9609 198.314 28.9766C197.459 27.9922 196.346 27.5 194.975 27.5C194.354 27.5 193.703 27.6289 193.023 27.8867C192.355 28.1328 191.805 28.4961 191.371 28.9766V36.6055ZM223.328 32.8262C223.328 34.1035 223.123 35.2637 222.713 36.3066C222.314 37.3496 221.734 38.252 220.973 39.0137C220.223 39.7637 219.32 40.3496 218.266 40.7715C217.211 41.1934 216.033 41.4043 214.732 41.4043C213.455 41.4043 212.289 41.1934 211.234 40.7715C210.18 40.3496 209.271 39.7637 208.51 39.0137C207.76 38.252 207.18 37.3496 206.77 36.3066C206.371 35.2637 206.172 34.1035 206.172 32.8262C206.172 31.584 206.371 30.4355 206.77 29.3809C207.18 28.3145 207.76 27.4004 208.51 26.6387C209.271 25.8652 210.18 25.2734 211.234 24.8633C212.289 24.4414 213.455 24.2305 214.732 24.2305C216.033 24.2305 217.211 24.4414 218.266 24.8633C219.32 25.2734 220.223 25.8652 220.973 26.6387C221.734 27.4004 222.314 28.3145 222.713 29.3809C223.123 30.4355 223.328 31.584 223.328 32.8262ZM219.707 32.8262C219.707 32.0879 219.59 31.3906 219.355 30.7344C219.133 30.0664 218.805 29.498 218.371 29.0293C217.938 28.5605 217.41 28.1914 216.789 27.9219C216.18 27.6406 215.494 27.5 214.732 27.5C213.959 27.5 213.268 27.6406 212.658 27.9219C212.049 28.1914 211.533 28.5605 211.111 29.0293C210.689 29.498 210.361 30.0664 210.127 30.7344C209.904 31.3906 209.793 32.0879 209.793 32.8262C209.793 33.5996 209.904 34.3027 210.127 34.9355C210.361 35.5684 210.689 36.125 211.111 36.6055C211.533 37.0859 212.049 37.4609 212.658 37.7305C213.268 37.9883 213.959 38.1172 214.732 38.1172C215.494 38.1172 216.18 37.9883 216.789 37.7305C217.41 37.4609 217.938 37.0859 218.371 36.6055C218.805 36.125 219.133 35.5684 219.355 34.9355C219.59 34.3027 219.707 33.5996 219.707 32.8262ZM232.047 34.6719C230.195 34.6484 228.754 34.2207 227.723 33.3887C226.691 32.5566 226.176 31.3145 226.176 29.6621C226.176 28.0098 226.703 26.7559 227.758 25.9004C228.812 25.0449 230.289 24.6172 232.188 24.6172H241.697V41H238.059V34.6719H236.582L230.816 41H225.965L232.047 34.6719ZM229.814 29.627C229.814 30.2246 230.025 30.6699 230.447 30.9629C230.869 31.2441 231.438 31.3848 232.152 31.3848H238.059V27.9043H232.152C231.438 27.9043 230.869 28.0508 230.447 28.3438C230.025 28.625 229.814 29.0527 229.814 29.627ZM256.234 41H251.805V36.5703H256.234V41ZM282.039 35.7793C281.852 37.502 281.172 38.873 280 39.8926C278.84 40.9004 277.387 41.4043 275.641 41.4043C274.68 41.4043 273.801 41.2461 273.004 40.9297C272.207 40.6133 271.527 40.1738 270.965 39.6113C270.402 39.0488 269.963 38.375 269.646 37.5898C269.342 36.793 269.189 35.9258 269.189 34.9883V27.9043H265.48V24.6172H269.189V18.0605H272.828V24.6172H279.701V27.9043H272.828V34.9883C272.828 36.043 273.086 36.8281 273.602 37.3438C274.117 37.8594 274.797 38.1172 275.641 38.1172C276.672 38.1172 277.439 37.8184 277.943 37.2207C278.447 36.623 278.746 35.9023 278.84 35.0586L282.039 35.7793ZM301.902 41H294.133V37.7305H295.574L293.342 34.3027L291.145 37.7305H292.48V41H284.781V37.7305H287.154L290.828 32.6855L287.33 27.9043H285.133V24.6172H292.516V27.9043H291.355L293.342 31.0684L295.363 27.9043H294.062V24.6172H301.516V27.9043H299.389L295.891 32.6855L299.564 37.7305H301.902V41ZM321.344 35.7793C321.156 37.502 320.477 38.873 319.305 39.8926C318.145 40.9004 316.691 41.4043 314.945 41.4043C313.984 41.4043 313.105 41.2461 312.309 40.9297C311.512 40.6133 310.832 40.1738 310.27 39.6113C309.707 39.0488 309.268 38.375 308.951 37.5898C308.646 36.793 308.494 35.9258 308.494 34.9883V27.9043H304.785V24.6172H308.494V18.0605H312.133V24.6172H319.006V27.9043H312.133V34.9883C312.133 36.043 312.391 36.8281 312.906 37.3438C313.422 37.8594 314.102 38.1172 314.945 38.1172C315.977 38.1172 316.744 37.8184 317.248 37.2207C317.752 36.623 318.051 35.9023 318.145 35.0586L321.344 35.7793Z" fill="#DFE9DD"/>
<path d="M43.0039 89.2083C43.0039 90.1653 42.8525 91.054 42.5498 91.8743C42.2568 92.6946 41.8369 93.4172 41.29 94.0422C40.7529 94.6575 40.1035 95.1604 39.3418 95.551C38.5898 95.9417 37.7549 96.1858 36.8369 96.2834V98.803H34.8154V96.2542C33.8975 96.1565 33.0625 95.9124 32.3105 95.5217C31.5684 95.1311 30.9238 94.6331 30.377 94.0276C29.8398 93.4124 29.4248 92.6946 29.1318 91.8743C28.8486 91.054 28.707 90.1653 28.707 89.2083C28.707 88.2415 28.8486 87.3479 29.1318 86.5276C29.4248 85.7073 29.8398 84.9846 30.377 84.3596C30.9238 83.7249 31.5684 83.217 32.3105 82.8362C33.0625 82.4456 33.8975 82.1868 34.8154 82.0598V79.6868H36.8369V82.0598C37.7549 82.1575 38.5898 82.4065 39.3418 82.8069C40.1035 83.2073 40.7529 83.72 41.29 84.345C41.8369 84.9602 42.2568 85.6829 42.5498 86.5129C42.8525 87.343 43.0039 88.2415 43.0039 89.2083ZM40.9971 89.2083C40.9971 88.5247 40.8994 87.8801 40.7041 87.2747C40.5186 86.6594 40.25 86.1125 39.8984 85.634C39.5566 85.1555 39.1221 84.76 38.5947 84.4475C38.0771 84.135 37.4912 83.9202 36.8369 83.803V94.511C38.1553 94.2961 39.1758 93.7053 39.8984 92.7385C40.6309 91.762 40.9971 90.5852 40.9971 89.2083ZM30.7139 89.2083C30.7139 90.5852 31.0654 91.762 31.7686 92.7385C32.4814 93.7053 33.4971 94.2961 34.8154 94.511V83.803C34.1611 83.9202 33.5752 84.1399 33.0576 84.4622C32.5498 84.7844 32.1201 85.1799 31.7686 85.6487C31.4268 86.1174 31.1631 86.6594 30.9775 87.2747C30.8018 87.8801 30.7139 88.5247 30.7139 89.2083ZM45.3477 95.1116C45.3477 94.2522 45.5625 93.5344 45.9922 92.9583C46.4219 92.3723 46.9834 91.9133 47.6768 91.5813C48.3799 91.2395 49.1807 90.9954 50.0791 90.8489C50.9873 90.6926 51.9102 90.6145 52.8477 90.6145C53.209 90.6145 53.5312 90.6194 53.8145 90.6292C54.1074 90.6389 54.3809 90.6536 54.6348 90.6731C54.8984 90.6926 55.1621 90.717 55.4258 90.7463C55.6895 90.7756 55.9775 90.8098 56.29 90.8489V89.8674C56.29 89.2034 56.1436 88.6565 55.8506 88.2268C55.5674 87.7971 55.2158 87.4602 54.7959 87.2161C54.376 86.9622 53.9365 86.7864 53.4775 86.6887C53.0186 86.5813 52.6279 86.5276 52.3057 86.5276C51.29 86.5276 50.3525 86.6643 49.4932 86.9377C48.6338 87.2112 47.833 87.5774 47.0908 88.0364L46.1826 86.5276C47.0029 86.0295 47.9209 85.6243 48.9365 85.3118C49.9619 84.9895 51.085 84.8284 52.3057 84.8284C53.0479 84.8284 53.7754 84.926 54.4883 85.1213C55.2109 85.3069 55.8555 85.5999 56.4219 86.0002C56.998 86.3909 57.457 86.9084 57.7988 87.553C58.1406 88.1975 58.3115 88.969 58.3115 89.8674V98.803H56.29V96.5178C55.9385 96.9573 55.5381 97.343 55.0889 97.675C54.6494 98.0071 54.1855 98.2805 53.6973 98.4954C53.209 98.7004 52.7207 98.8567 52.2324 98.9641C51.7441 99.0813 51.2803 99.1399 50.8408 99.1399C49.0342 99.1399 47.667 98.7932 46.7393 98.0999C45.8115 97.4065 45.3477 96.4104 45.3477 95.1116ZM50.8408 97.426C51.6807 97.426 52.4326 97.304 53.0967 97.0598C53.7705 96.8059 54.3418 96.4934 54.8105 96.1223C55.2793 95.7512 55.6406 95.3557 55.8945 94.9358C56.1582 94.5159 56.29 94.135 56.29 93.7932V92.5042C55.6357 92.4065 55.0059 92.3528 54.4004 92.343C53.8047 92.3333 53.2871 92.3284 52.8477 92.3284C52.125 92.3284 51.4268 92.3772 50.7529 92.4749C50.0889 92.5725 49.5078 92.7336 49.0098 92.9583C48.5117 93.1731 48.1113 93.4563 47.8086 93.8079C47.5059 94.1594 47.3545 94.594 47.3545 95.1116C47.3545 95.6877 47.6328 96.22 48.1895 96.7083C48.7559 97.1868 49.6396 97.426 50.8408 97.426ZM62.4717 85.1506H64.4785V96.1663L71.8613 85.1506H74.6885V98.803H72.667V87.2893L64.9619 98.803H62.4717V85.1506ZM72.7695 81.0784C71.627 82.2112 70.2354 82.7776 68.5947 82.7776C66.9541 82.7776 65.5625 82.2112 64.4199 81.0784L65.5625 79.9651C66.4805 80.8831 67.4912 81.342 68.5947 81.342C69.6982 81.342 70.709 80.8831 71.627 79.9651L72.7695 81.0784ZM91.0654 85.1506V98.803H89.0439V86.8645H82.877V95.7708C82.877 96.3079 82.7842 96.7864 82.5986 97.2063C82.4229 97.6262 82.1836 97.9778 81.8809 98.261C81.5781 98.5442 81.2266 98.759 80.8262 98.9055C80.4258 99.0618 80.0059 99.1399 79.5664 99.1399C78.7461 99.1399 78.1455 99.0178 77.7646 98.7737L78.1602 97.177C78.2969 97.2649 78.4482 97.3284 78.6143 97.3674C78.79 97.4065 79.0195 97.426 79.3027 97.426C80.3379 97.426 80.8555 96.8743 80.8555 95.7708V85.1506H91.0654ZM140.196 98.803H138.175V81.4006H129.986V98.803H127.979V79.6868H140.196V98.803ZM157.291 91.9915C157.291 93.0559 157.125 94.0227 156.793 94.8918C156.461 95.761 155.992 96.5129 155.387 97.1477C154.791 97.7727 154.068 98.261 153.219 98.6125C152.369 98.9641 151.417 99.1399 150.362 99.1399C149.64 99.1399 148.937 99.0081 148.253 98.7444C147.579 98.4807 146.949 98.0901 146.363 97.5725V104.267H144.356V85.1506H146.363V86.4104C147.604 85.3557 148.937 84.8284 150.362 84.8284C151.417 84.8284 152.369 85.0042 153.219 85.3557C154.068 85.6975 154.791 86.1907 155.387 86.8352C155.992 87.47 156.461 88.2317 156.793 89.1204C157.125 89.9993 157.291 90.9563 157.291 91.9915ZM155.284 91.9915C155.284 91.2297 155.177 90.5168 154.962 89.8528C154.757 89.179 154.444 88.5979 154.024 88.1096C153.604 87.6213 153.087 87.2356 152.472 86.9524C151.866 86.6692 151.163 86.5276 150.362 86.5276C149.601 86.5276 148.888 86.6692 148.224 86.9524C147.569 87.2356 146.949 87.6946 146.363 88.3293V95.6536C146.949 96.2883 147.569 96.7424 148.224 97.0159C148.888 97.2893 149.601 97.426 150.362 97.426C151.163 97.426 151.866 97.2844 152.472 97.0012C153.087 96.718 153.604 96.3323 154.024 95.844C154.444 95.3557 154.757 94.7844 154.962 94.1301C155.177 93.4661 155.284 92.7532 155.284 91.9915ZM159.986 95.1116C159.986 94.2522 160.201 93.5344 160.631 92.9583C161.061 92.3723 161.622 91.9133 162.315 91.5813C163.019 91.2395 163.819 90.9954 164.718 90.8489C165.626 90.6926 166.549 90.6145 167.486 90.6145C167.848 90.6145 168.17 90.6194 168.453 90.6292C168.746 90.6389 169.02 90.6536 169.273 90.6731C169.537 90.6926 169.801 90.717 170.064 90.7463C170.328 90.7756 170.616 90.8098 170.929 90.8489V89.8674C170.929 89.2034 170.782 88.6565 170.489 88.2268C170.206 87.7971 169.854 87.4602 169.435 87.2161C169.015 86.9622 168.575 86.7864 168.116 86.6887C167.657 86.5813 167.267 86.5276 166.944 86.5276C165.929 86.5276 164.991 86.6643 164.132 86.9377C163.272 87.2112 162.472 87.5774 161.729 88.0364L160.821 86.5276C161.642 86.0295 162.56 85.6243 163.575 85.3118C164.601 84.9895 165.724 84.8284 166.944 84.8284C167.687 84.8284 168.414 84.926 169.127 85.1213C169.85 85.3069 170.494 85.5999 171.061 86.0002C171.637 86.3909 172.096 86.9084 172.438 87.553C172.779 88.1975 172.95 88.969 172.95 89.8674V98.803H170.929V96.5178C170.577 96.9573 170.177 97.343 169.728 97.675C169.288 98.0071 168.824 98.2805 168.336 98.4954C167.848 98.7004 167.359 98.8567 166.871 98.9641C166.383 99.0813 165.919 99.1399 165.479 99.1399C163.673 99.1399 162.306 98.7932 161.378 98.0999C160.45 97.4065 159.986 96.4104 159.986 95.1116ZM165.479 97.426C166.319 97.426 167.071 97.304 167.735 97.0598C168.409 96.8059 168.98 96.4934 169.449 96.1223C169.918 95.7512 170.279 95.3557 170.533 94.9358C170.797 94.5159 170.929 94.135 170.929 93.7932V92.5042C170.274 92.4065 169.645 92.3528 169.039 92.343C168.443 92.3333 167.926 92.3284 167.486 92.3284C166.764 92.3284 166.065 92.3772 165.392 92.4749C164.728 92.5725 164.146 92.7336 163.648 92.9583C163.15 93.1731 162.75 93.4563 162.447 93.8079C162.145 94.1594 161.993 94.594 161.993 95.1116C161.993 95.6877 162.271 96.22 162.828 96.7083C163.395 97.1868 164.278 97.426 165.479 97.426ZM190.016 94.9065C190.016 96.2249 189.527 97.2063 188.551 97.8508C187.584 98.4856 186.192 98.803 184.376 98.803H177.11V85.1506H183.922C184.586 85.1506 185.24 85.2043 185.885 85.3118C186.539 85.4094 187.12 85.5901 187.628 85.8538C188.136 86.1077 188.551 86.4641 188.873 86.9231C189.195 87.3821 189.356 87.9827 189.356 88.7249C189.356 89.428 189.186 90.0188 188.844 90.4973C188.502 90.9758 187.833 91.342 186.837 91.5959C188.058 91.8792 188.893 92.2991 189.342 92.8557C189.791 93.4026 190.016 94.0862 190.016 94.9065ZM187.35 88.842C187.35 88.4221 187.237 88.0852 187.013 87.8313C186.788 87.5676 186.51 87.3674 186.178 87.2307C185.855 87.0842 185.494 86.9866 185.094 86.9377C184.693 86.8889 184.303 86.8645 183.922 86.8645H179.117V90.7903H183.922C184.322 90.7903 184.728 90.7659 185.138 90.717C185.548 90.6682 185.919 90.5706 186.251 90.4241C186.583 90.2678 186.847 90.0676 187.042 89.8235C187.247 89.5696 187.35 89.2424 187.35 88.842ZM188.009 94.8186C188.009 94.0178 187.682 93.4319 187.027 93.0608C186.373 92.6897 185.479 92.5042 184.347 92.5042H179.117V97.0891H184.347C185.479 97.0891 186.373 96.8987 187.027 96.5178C187.682 96.137 188.009 95.5706 188.009 94.8186ZM206.393 98.803H203.536L197.955 92.6799L195.494 94.9358V98.803H193.487V85.1506H195.494V92.5042L203.272 85.1506H206.144L199.303 91.4202L206.393 98.803ZM209.117 95.1116C209.117 94.2522 209.332 93.5344 209.762 92.9583C210.191 92.3723 210.753 91.9133 211.446 91.5813C212.149 91.2395 212.95 90.9954 213.849 90.8489C214.757 90.6926 215.68 90.6145 216.617 90.6145C216.979 90.6145 217.301 90.6194 217.584 90.6292C217.877 90.6389 218.15 90.6536 218.404 90.6731C218.668 90.6926 218.932 90.717 219.195 90.7463C219.459 90.7756 219.747 90.8098 220.06 90.8489V89.8674C220.06 89.2034 219.913 88.6565 219.62 88.2268C219.337 87.7971 218.985 87.4602 218.565 87.2161C218.146 86.9622 217.706 86.7864 217.247 86.6887C216.788 86.5813 216.397 86.5276 216.075 86.5276C215.06 86.5276 214.122 86.6643 213.263 86.9377C212.403 87.2112 211.603 87.5774 210.86 88.0364L209.952 86.5276C210.772 86.0295 211.69 85.6243 212.706 85.3118C213.731 84.9895 214.854 84.8284 216.075 84.8284C216.817 84.8284 217.545 84.926 218.258 85.1213C218.98 85.3069 219.625 85.5999 220.191 86.0002C220.768 86.3909 221.227 86.9084 221.568 87.553C221.91 88.1975 222.081 88.969 222.081 89.8674V98.803H220.06V96.5178C219.708 96.9573 219.308 97.343 218.858 97.675C218.419 98.0071 217.955 98.2805 217.467 98.4954C216.979 98.7004 216.49 98.8567 216.002 98.9641C215.514 99.0813 215.05 99.1399 214.61 99.1399C212.804 99.1399 211.437 98.7932 210.509 98.0999C209.581 97.4065 209.117 96.4104 209.117 95.1116ZM214.61 97.426C215.45 97.426 216.202 97.304 216.866 97.0598C217.54 96.8059 218.111 96.4934 218.58 96.1223C219.049 95.7512 219.41 95.3557 219.664 94.9358C219.928 94.5159 220.06 94.135 220.06 93.7932V92.5042C219.405 92.4065 218.775 92.3528 218.17 92.343C217.574 92.3333 217.057 92.3284 216.617 92.3284C215.895 92.3284 215.196 92.3772 214.522 92.4749C213.858 92.5725 213.277 92.7336 212.779 92.9583C212.281 93.1731 211.881 93.4563 211.578 93.8079C211.275 94.1594 211.124 94.594 211.124 95.1116C211.124 95.6877 211.402 96.22 211.959 96.7083C212.525 97.1868 213.409 97.426 214.61 97.426ZM272.281 89.2083C272.281 90.1653 272.13 91.054 271.827 91.8743C271.534 92.6946 271.114 93.4172 270.567 94.0422C270.03 94.6575 269.381 95.1604 268.619 95.551C267.867 95.9417 267.032 96.1858 266.114 96.2834V98.803H264.093V96.2542C263.175 96.1565 262.34 95.9124 261.588 95.5217C260.846 95.1311 260.201 94.6331 259.654 94.0276C259.117 93.4124 258.702 92.6946 258.409 91.8743C258.126 91.054 257.984 90.1653 257.984 89.2083C257.984 88.2415 258.126 87.3479 258.409 86.5276C258.702 85.7073 259.117 84.9846 259.654 84.3596C260.201 83.7249 260.846 83.217 261.588 82.8362C262.34 82.4456 263.175 82.1868 264.093 82.0598V79.6868H266.114V82.0598C267.032 82.1575 267.867 82.4065 268.619 82.8069C269.381 83.2073 270.03 83.72 270.567 84.345C271.114 84.9602 271.534 85.6829 271.827 86.5129C272.13 87.343 272.281 88.2415 272.281 89.2083ZM270.274 89.2083C270.274 88.5247 270.177 87.8801 269.981 87.2747C269.796 86.6594 269.527 86.1125 269.176 85.634C268.834 85.1555 268.399 84.76 267.872 84.4475C267.354 84.135 266.769 83.9202 266.114 83.803V94.511C267.433 94.2961 268.453 93.7053 269.176 92.7385C269.908 91.762 270.274 90.5852 270.274 89.2083ZM259.991 89.2083C259.991 90.5852 260.343 91.762 261.046 92.7385C261.759 93.7053 262.774 94.2961 264.093 94.511V83.803C263.438 83.9202 262.853 84.1399 262.335 84.4622C261.827 84.7844 261.397 85.1799 261.046 85.6487C260.704 86.1174 260.44 86.6594 260.255 87.2747C260.079 87.8801 259.991 88.5247 259.991 89.2083ZM288.658 92.0208C288.658 93.0852 288.487 94.052 288.146 94.9211C287.813 95.7903 287.33 96.5374 286.695 97.1624C286.07 97.7776 285.318 98.261 284.439 98.6125C283.561 98.9641 282.579 99.1399 281.495 99.1399C280.431 99.1399 279.459 98.9641 278.58 98.6125C277.701 98.261 276.944 97.7776 276.31 97.1624C275.685 96.5374 275.201 95.7903 274.859 94.9211C274.527 94.052 274.361 93.0852 274.361 92.0208C274.361 90.9856 274.527 90.0237 274.859 89.135C275.201 88.2366 275.685 87.4749 276.31 86.8499C276.944 86.2151 277.701 85.7219 278.58 85.3704C279.459 85.009 280.431 84.8284 281.495 84.8284C282.579 84.8284 283.561 85.009 284.439 85.3704C285.318 85.7219 286.07 86.2151 286.695 86.8499C287.33 87.4749 287.813 88.2366 288.146 89.135C288.487 90.0237 288.658 90.9856 288.658 92.0208ZM286.651 92.0208C286.651 91.2395 286.534 90.5217 286.3 89.8674C286.075 89.2034 285.738 88.6223 285.289 88.1243C284.84 87.6262 284.293 87.2356 283.648 86.9524C283.014 86.6692 282.296 86.5276 281.495 86.5276C280.694 86.5276 279.972 86.6692 279.327 86.9524C278.692 87.2356 278.155 87.6262 277.716 88.1243C277.276 88.6223 276.939 89.2034 276.705 89.8674C276.48 90.5217 276.368 91.2395 276.368 92.0208C276.368 92.802 276.48 93.5247 276.705 94.1887C276.939 94.843 277.276 95.4094 277.716 95.8879C278.155 96.3665 278.692 96.7424 279.327 97.0159C279.972 97.2893 280.694 97.426 281.495 97.426C282.296 97.426 283.014 97.2893 283.648 97.0159C284.293 96.7424 284.84 96.3665 285.289 95.8879C285.738 95.4094 286.075 94.843 286.3 94.1887C286.534 93.5247 286.651 92.802 286.651 92.0208ZM304.684 91.9915C304.684 93.0559 304.518 94.0227 304.186 94.8918C303.854 95.761 303.385 96.5129 302.779 97.1477C302.184 97.7727 301.461 98.261 300.611 98.6125C299.762 98.9641 298.81 99.1399 297.755 99.1399C297.032 99.1399 296.329 99.0081 295.646 98.7444C294.972 98.4807 294.342 98.0901 293.756 97.5725V104.267H291.749V85.1506H293.756V86.4104C294.996 85.3557 296.329 84.8284 297.755 84.8284C298.81 84.8284 299.762 85.0042 300.611 85.3557C301.461 85.6975 302.184 86.1907 302.779 86.8352C303.385 87.47 303.854 88.2317 304.186 89.1204C304.518 89.9993 304.684 90.9563 304.684 91.9915ZM302.677 91.9915C302.677 91.2297 302.569 90.5168 302.354 89.8528C302.149 89.179 301.837 88.5979 301.417 88.1096C300.997 87.6213 300.479 87.2356 299.864 86.9524C299.259 86.6692 298.556 86.5276 297.755 86.5276C296.993 86.5276 296.28 86.6692 295.616 86.9524C294.962 87.2356 294.342 87.6946 293.756 88.3293V95.6536C294.342 96.2883 294.962 96.7424 295.616 97.0159C296.28 97.2893 296.993 97.426 297.755 97.426C298.556 97.426 299.259 97.2844 299.864 97.0012C300.479 96.718 300.997 96.3323 301.417 95.844C301.837 95.3557 302.149 94.7844 302.354 94.1301C302.569 93.4661 302.677 92.7532 302.677 91.9915ZM320.343 98.803H318.321V87.9778L314.967 95.053H313.531L310.133 87.9778V98.803H308.126V85.1506H310.733L314.249 92.2698L317.735 85.1506H320.343V98.803ZM323.756 95.1116C323.756 94.2522 323.971 93.5344 324.4 92.9583C324.83 92.3723 325.392 91.9133 326.085 91.5813C326.788 91.2395 327.589 90.9954 328.487 90.8489C329.396 90.6926 330.318 90.6145 331.256 90.6145C331.617 90.6145 331.939 90.6194 332.223 90.6292C332.516 90.6389 332.789 90.6536 333.043 90.6731C333.307 90.6926 333.57 90.717 333.834 90.7463C334.098 90.7756 334.386 90.8098 334.698 90.8489V89.8674C334.698 89.2034 334.552 88.6565 334.259 88.2268C333.976 87.7971 333.624 87.4602 333.204 87.2161C332.784 86.9622 332.345 86.7864 331.886 86.6887C331.427 86.5813 331.036 86.5276 330.714 86.5276C329.698 86.5276 328.761 86.6643 327.901 86.9377C327.042 87.2112 326.241 87.5774 325.499 88.0364L324.591 86.5276C325.411 86.0295 326.329 85.6243 327.345 85.3118C328.37 84.9895 329.493 84.8284 330.714 84.8284C331.456 84.8284 332.184 84.926 332.896 85.1213C333.619 85.3069 334.264 85.5999 334.83 86.0002C335.406 86.3909 335.865 86.9084 336.207 87.553C336.549 88.1975 336.72 88.969 336.72 89.8674V98.803H334.698V96.5178C334.347 96.9573 333.946 97.343 333.497 97.675C333.058 98.0071 332.594 98.2805 332.105 98.4954C331.617 98.7004 331.129 98.8567 330.641 98.9641C330.152 99.0813 329.688 99.1399 329.249 99.1399C327.442 99.1399 326.075 98.7932 325.147 98.0999C324.22 97.4065 323.756 96.4104 323.756 95.1116ZM329.249 97.426C330.089 97.426 330.841 97.304 331.505 97.0598C332.179 96.8059 332.75 96.4934 333.219 96.1223C333.688 95.7512 334.049 95.3557 334.303 94.9358C334.566 94.5159 334.698 94.135 334.698 93.7932V92.5042C334.044 92.4065 333.414 92.3528 332.809 92.343C332.213 92.3333 331.695 92.3284 331.256 92.3284C330.533 92.3284 329.835 92.3772 329.161 92.4749C328.497 92.5725 327.916 92.7336 327.418 92.9583C326.92 93.1731 326.52 93.4563 326.217 93.8079C325.914 94.1594 325.763 94.594 325.763 95.1116C325.763 95.6877 326.041 96.22 326.598 96.7083C327.164 97.1868 328.048 97.426 329.249 97.426ZM353.814 91.5959H352.101V86.8645H347.999V97.0891H351.075V98.803H342.887V97.0891H345.978V86.8645H341.876V91.5959H340.162V85.1506H353.814V91.5959ZM402.916 93.3391C402.916 95.1653 402.325 96.5325 401.144 97.4407C399.962 98.3489 398.282 98.803 396.104 98.803H390.011V79.6868H395.768C396.568 79.6868 397.354 79.7551 398.126 79.8918C398.897 80.0188 399.586 80.2629 400.191 80.6243C400.807 80.9856 401.305 81.4885 401.686 82.1331C402.066 82.7678 402.257 83.6028 402.257 84.6379C402.257 86.6204 401.266 87.9729 399.283 88.6956C401.705 89.4377 402.916 90.9856 402.916 93.3391ZM400.25 84.6379C400.25 83.9641 400.108 83.4124 399.825 82.9827C399.542 82.553 399.181 82.2258 398.741 82.0012C398.302 81.7668 397.818 81.6106 397.291 81.5325C396.764 81.4446 396.256 81.4006 395.768 81.4006H392.018V87.8899H395.768C396.314 87.8899 396.852 87.8508 397.379 87.7727C397.906 87.6848 398.38 87.5237 398.8 87.2893C399.22 87.0452 399.566 86.7131 399.84 86.2932C400.113 85.8733 400.25 85.3215 400.25 84.6379ZM400.909 93.3391C400.909 92.0208 400.479 91.0637 399.62 90.468C398.771 89.8625 397.599 89.5598 396.104 89.5598H392.018V97.0891H396.104C397.599 97.0891 398.771 96.7766 399.62 96.1516C400.479 95.5168 400.909 94.5793 400.909 93.3391ZM406.388 85.1506H408.395V96.1663L415.777 85.1506H418.604V98.803H416.583V87.2893L408.878 98.803H406.388V85.1506ZM422.047 97.0891C422.506 96.9915 422.945 96.7278 423.365 96.2981C423.785 95.8684 424.151 95.2727 424.464 94.511C424.776 93.7493 425.025 92.8264 425.211 91.7424C425.406 90.6487 425.504 89.3938 425.504 87.9778V85.1506H432.96V97.0891H435.699V103.476H433.897V98.803H423.849V103.476H422.047V97.0891ZM427.511 87.9778C427.511 89.1106 427.428 90.175 427.262 91.1711C427.105 92.1575 426.896 93.0413 426.632 93.8225C426.378 94.6038 426.085 95.2776 425.753 95.844C425.421 96.4006 425.094 96.8157 424.771 97.0891H430.953V86.8645H427.511V87.9778ZM484.947 93.7932C484.449 95.4338 483.634 96.7278 482.501 97.675C481.368 98.6223 479.942 99.0959 478.224 99.0959C476.886 99.0959 475.753 98.8274 474.825 98.2903C473.897 97.7532 473.136 97.0305 472.54 96.1223C471.954 95.2141 471.529 94.1643 471.266 92.9729C471.012 91.7815 470.885 90.5461 470.885 89.2668C470.885 87.9875 471.012 86.7522 471.266 85.5608C471.529 84.3694 471.954 83.3147 472.54 82.3967C473.136 81.4788 473.897 80.7463 474.825 80.1995C475.753 79.6428 476.886 79.3645 478.224 79.3645C479.405 79.3645 480.416 79.5745 481.256 79.9944C482.096 80.4143 482.716 81.054 483.116 81.9133V79.6868H484.83V85.9563H483.116C483.116 85.2825 482.984 84.6477 482.721 84.052C482.467 83.4465 482.12 82.9241 481.681 82.4846C481.241 82.0452 480.719 81.7034 480.113 81.4592C479.518 81.2053 478.888 81.0784 478.224 81.0784C477.188 81.0784 476.329 81.3225 475.646 81.8108C474.972 82.2991 474.43 82.9387 474.02 83.7297C473.609 84.5208 473.316 85.3997 473.141 86.3665C472.975 87.3333 472.892 88.3 472.892 89.2668C472.892 90.2239 472.975 91.1907 473.141 92.1672C473.316 93.134 473.609 94.0032 474.02 94.7747C474.43 95.5364 474.972 96.1663 475.646 96.6643C476.329 97.1526 477.188 97.3967 478.224 97.3967C480.606 97.3967 482.267 95.9661 483.204 93.1047L484.947 93.7932ZM500.489 98.803H498.468V86.8645H490.279V98.803H488.272V85.1506H500.489V98.803ZM517.584 91.9915C517.584 93.0559 517.418 94.0227 517.086 94.8918C516.754 95.761 516.285 96.5129 515.68 97.1477C515.084 97.7727 514.361 98.261 513.512 98.6125C512.662 98.9641 511.71 99.1399 510.655 99.1399C509.933 99.1399 509.229 99.0081 508.546 98.7444C507.872 98.4807 507.242 98.0901 506.656 97.5725V104.267H504.649V85.1506H506.656V86.4104C507.896 85.3557 509.229 84.8284 510.655 84.8284C511.71 84.8284 512.662 85.0042 513.512 85.3557C514.361 85.6975 515.084 86.1907 515.68 86.8352C516.285 87.47 516.754 88.2317 517.086 89.1204C517.418 89.9993 517.584 90.9563 517.584 91.9915ZM515.577 91.9915C515.577 91.2297 515.47 90.5168 515.255 89.8528C515.05 89.179 514.737 88.5979 514.317 88.1096C513.897 87.6213 513.38 87.2356 512.765 86.9524C512.159 86.6692 511.456 86.5276 510.655 86.5276C509.894 86.5276 509.181 86.6692 508.517 86.9524C507.862 87.2356 507.242 87.6946 506.656 88.3293V95.6536C507.242 96.2883 507.862 96.7424 508.517 97.0159C509.181 97.2893 509.894 97.426 510.655 97.426C511.456 97.426 512.159 97.2844 512.765 97.0012C513.38 96.718 513.897 96.3323 514.317 95.844C514.737 95.3557 515.05 94.7844 515.255 94.1301C515.47 93.4661 515.577 92.7532 515.577 91.9915ZM520.279 95.1116C520.279 94.2522 520.494 93.5344 520.924 92.9583C521.354 92.3723 521.915 91.9133 522.608 91.5813C523.312 91.2395 524.112 90.9954 525.011 90.8489C525.919 90.6926 526.842 90.6145 527.779 90.6145C528.141 90.6145 528.463 90.6194 528.746 90.6292C529.039 90.6389 529.312 90.6536 529.566 90.6731C529.83 90.6926 530.094 90.717 530.357 90.7463C530.621 90.7756 530.909 90.8098 531.222 90.8489V89.8674C531.222 89.2034 531.075 88.6565 530.782 88.2268C530.499 87.7971 530.147 87.4602 529.728 87.2161C529.308 86.9622 528.868 86.7864 528.409 86.6887C527.95 86.5813 527.56 86.5276 527.237 86.5276C526.222 86.5276 525.284 86.6643 524.425 86.9377C523.565 87.2112 522.765 87.5774 522.022 88.0364L521.114 86.5276C521.935 86.0295 522.853 85.6243 523.868 85.3118C524.894 84.9895 526.017 84.8284 527.237 84.8284C527.979 84.8284 528.707 84.926 529.42 85.1213C530.143 85.3069 530.787 85.5999 531.354 86.0002C531.93 86.3909 532.389 86.9084 532.73 87.553C533.072 88.1975 533.243 88.969 533.243 89.8674V98.803H531.222V96.5178C530.87 96.9573 530.47 97.343 530.021 97.675C529.581 98.0071 529.117 98.2805 528.629 98.4954C528.141 98.7004 527.652 98.8567 527.164 98.9641C526.676 99.0813 526.212 99.1399 525.772 99.1399C523.966 99.1399 522.599 98.7932 521.671 98.0999C520.743 97.4065 520.279 96.4104 520.279 95.1116ZM525.772 97.426C526.612 97.426 527.364 97.304 528.028 97.0598C528.702 96.8059 529.273 96.4934 529.742 96.1223C530.211 95.7512 530.572 95.3557 530.826 94.9358C531.09 94.5159 531.222 94.135 531.222 93.7932V92.5042C530.567 92.4065 529.938 92.3528 529.332 92.343C528.736 92.3333 528.219 92.3284 527.779 92.3284C527.057 92.3284 526.358 92.3772 525.685 92.4749C525.021 92.5725 524.439 92.7336 523.941 92.9583C523.443 93.1731 523.043 93.4563 522.74 93.8079C522.438 94.1594 522.286 94.594 522.286 95.1116C522.286 95.6877 522.564 96.22 523.121 96.7083C523.688 97.1868 524.571 97.426 525.772 97.426ZM550.309 94.9065C550.309 96.2249 549.82 97.2063 548.844 97.8508C547.877 98.4856 546.485 98.803 544.669 98.803H537.403V85.1506H544.215C544.879 85.1506 545.533 85.2043 546.178 85.3118C546.832 85.4094 547.413 85.5901 547.921 85.8538C548.429 86.1077 548.844 86.4641 549.166 86.9231C549.488 87.3821 549.649 87.9827 549.649 88.7249C549.649 89.428 549.479 90.0188 549.137 90.4973C548.795 90.9758 548.126 91.342 547.13 91.5959C548.351 91.8792 549.186 92.2991 549.635 92.8557C550.084 93.4026 550.309 94.0862 550.309 94.9065ZM547.643 88.842C547.643 88.4221 547.53 88.0852 547.306 87.8313C547.081 87.5676 546.803 87.3674 546.471 87.2307C546.148 87.0842 545.787 86.9866 545.387 86.9377C544.986 86.8889 544.596 86.8645 544.215 86.8645H539.41V90.7903H544.215C544.615 90.7903 545.021 90.7659 545.431 90.717C545.841 90.6682 546.212 90.5706 546.544 90.4241C546.876 90.2678 547.14 90.0676 547.335 89.8235C547.54 89.5696 547.643 89.2424 547.643 88.842ZM548.302 94.8186C548.302 94.0178 547.975 93.4319 547.32 93.0608C546.666 92.6897 545.772 92.5042 544.64 92.5042H539.41V97.0891H544.64C545.772 97.0891 546.666 96.8987 547.32 96.5178C547.975 96.137 548.302 95.5706 548.302 94.8186ZM566.686 98.803H563.829L558.248 92.6799L555.787 94.9358V98.803H553.78V85.1506H555.787V92.5042L563.565 85.1506H566.437L559.596 91.4202L566.686 98.803ZM569.41 95.1116C569.41 94.2522 569.625 93.5344 570.055 92.9583C570.484 92.3723 571.046 91.9133 571.739 91.5813C572.442 91.2395 573.243 90.9954 574.142 90.8489C575.05 90.6926 575.973 90.6145 576.91 90.6145C577.271 90.6145 577.594 90.6194 577.877 90.6292C578.17 90.6389 578.443 90.6536 578.697 90.6731C578.961 90.6926 579.225 90.717 579.488 90.7463C579.752 90.7756 580.04 90.8098 580.353 90.8489V89.8674C580.353 89.2034 580.206 88.6565 579.913 88.2268C579.63 87.7971 579.278 87.4602 578.858 87.2161C578.438 86.9622 577.999 86.7864 577.54 86.6887C577.081 86.5813 576.69 86.5276 576.368 86.5276C575.353 86.5276 574.415 86.6643 573.556 86.9377C572.696 87.2112 571.896 87.5774 571.153 88.0364L570.245 86.5276C571.065 86.0295 571.983 85.6243 572.999 85.3118C574.024 84.9895 575.147 84.8284 576.368 84.8284C577.11 84.8284 577.838 84.926 578.551 85.1213C579.273 85.3069 579.918 85.5999 580.484 86.0002C581.061 86.3909 581.52 86.9084 581.861 87.553C582.203 88.1975 582.374 88.969 582.374 89.8674V98.803H580.353V96.5178C580.001 96.9573 579.601 97.343 579.151 97.675C578.712 98.0071 578.248 98.2805 577.76 98.4954C577.271 98.7004 576.783 98.8567 576.295 98.9641C575.807 99.0813 575.343 99.1399 574.903 99.1399C573.097 99.1399 571.729 98.7932 570.802 98.0999C569.874 97.4065 569.41 96.4104 569.41 95.1116ZM574.903 97.426C575.743 97.426 576.495 97.304 577.159 97.0598C577.833 96.8059 578.404 96.4934 578.873 96.1223C579.342 95.7512 579.703 95.3557 579.957 94.9358C580.221 94.5159 580.353 94.135 580.353 93.7932V92.5042C579.698 92.4065 579.068 92.3528 578.463 92.343C577.867 92.3333 577.35 92.3284 576.91 92.3284C576.188 92.3284 575.489 92.3772 574.815 92.4749C574.151 92.5725 573.57 92.7336 573.072 92.9583C572.574 93.1731 572.174 93.4563 571.871 93.8079C571.568 94.1594 571.417 94.594 571.417 95.1116C571.417 95.6877 571.695 96.22 572.252 96.7083C572.818 97.1868 573.702 97.426 574.903 97.426Z" fill="black"/>
</svg>
